<mxfile host="app.diagrams.net" agent="Mozilla/5.0 (X11; Linux x86_64) AppleWebKit/537.36 (KHTML, like Gecko) Chrome/141.0.0.0 Safari/537.36" version="28.2.8">
  <diagram name="Page-1" id="W_OO48JBHBJolQkUzp4D">
    <mxGraphModel dx="2066" dy="1087" grid="1" gridSize="10" guides="1" tooltips="1" connect="1" arrows="1" fold="1" page="1" pageScale="1" pageWidth="850" pageHeight="1100" math="0" shadow="0">
      <root>
        <mxCell id="0" />
        <mxCell id="1" parent="0" />
        <mxCell id="-GlMdH1-iFwV5xs4R0uD-6" style="edgeStyle=orthogonalEdgeStyle;rounded=0;orthogonalLoop=1;jettySize=auto;html=1;entryX=0;entryY=0.5;entryDx=0;entryDy=0;strokeWidth=4;fillColor=#e1d5e7;strokeColor=#000000;" parent="1" source="-GlMdH1-iFwV5xs4R0uD-1" target="-GlMdH1-iFwV5xs4R0uD-2" edge="1">
          <mxGeometry relative="1" as="geometry" />
        </mxCell>
        <mxCell id="-GlMdH1-iFwV5xs4R0uD-1" value="Data Collection" style="rounded=1;whiteSpace=wrap;html=1;fontSize=16;strokeWidth=4;fillColor=#e1d5e7;strokeColor=#000000;" parent="1" vertex="1">
          <mxGeometry x="200" y="65" width="160" height="50" as="geometry" />
        </mxCell>
        <mxCell id="-GlMdH1-iFwV5xs4R0uD-7" style="edgeStyle=orthogonalEdgeStyle;rounded=0;orthogonalLoop=1;jettySize=auto;html=1;entryX=0.5;entryY=0;entryDx=0;entryDy=0;strokeWidth=4;fillColor=#e1d5e7;strokeColor=#000000;" parent="1" source="-GlMdH1-iFwV5xs4R0uD-2" target="-GlMdH1-iFwV5xs4R0uD-5" edge="1">
          <mxGeometry relative="1" as="geometry" />
        </mxCell>
        <mxCell id="-GlMdH1-iFwV5xs4R0uD-2" value="Devising of&lt;div&gt;Multimodal Models&lt;/div&gt;" style="rounded=1;whiteSpace=wrap;html=1;fontSize=16;strokeWidth=4;fillColor=#e1d5e7;strokeColor=#000000;" parent="1" vertex="1">
          <mxGeometry x="449.02" y="65" width="160" height="50" as="geometry" />
        </mxCell>
        <mxCell id="0_99gsNGC9KbOV2Wp5mH-19" style="edgeStyle=orthogonalEdgeStyle;rounded=0;orthogonalLoop=1;jettySize=auto;html=1;entryX=0;entryY=0.25;entryDx=0;entryDy=0;strokeWidth=4;" edge="1" parent="1" source="-GlMdH1-iFwV5xs4R0uD-3" target="-GlMdH1-iFwV5xs4R0uD-1">
          <mxGeometry relative="1" as="geometry" />
        </mxCell>
        <mxCell id="-GlMdH1-iFwV5xs4R0uD-3" value="" style="shape=image;verticalLabelPosition=bottom;labelBackgroundColor=default;verticalAlign=top;aspect=fixed;imageAspect=0;image=data:image/png,iVBORw0KGgoAAAANSUhEUgAABLAAAANQCAYAAAA4wpbDAAAQAElEQVR4AezdCWBU9bX48XPuzCQB3AgqiiiQiUsVCShuoG3p5tL6r7aVvq5ubWmVxKV7+9o3r7tPizJBra1W7f7ovrl1cam4omSCWq1JwLWuKKBAlrnn/xvUp2AgM8ksd/le7k1m7v3d3++cz2+YzJzMTDxhQQABBBBAAAEEEEAAAQQQQACBqAuQHwKhFqCAFerpI3gEEEAAAQQQQAABBBCongAjIYAAAgjUSoACVq3kGRcBBBBAAAEEEIijADkjgAACCCCAAALDEKCANQw0TkEAAQQQQKCWAoyNAAIIIIAAAggggEDcBChgxW3GyRcBBAoCbAgggAACCCCAAAIIIIAAAiESoIAVoskKVqhEgwACCCCAAAIIIIAAAggggAAC0RcIRoYUsIIxD0SBAAIIIIAAAggggAACCCAQVQHyQgCBEQtQwBoxIR0ggAACCCCAAAIIIIBApQXoHwEEEEAg3gIUsOI9/2SPAAIIIIAAAvERIFMEEEAAAQQQQCC0AhSwQjt1BI4AAgggUH0BRkQAAQQQQAABBBBAAIFaCFDAqoU6YyIQZwFyRwABBBBAAAEEEEAAAQQQQKBEAQpYJYIFoTkxIIAAAggggAACCCCAAAIIIIBA9AXI8FUBClivWnAJAQQQQAABBBBAAAEEEEAgWgJkgwACERGggBWRiSQNBBBAAAEEEEAAAQQqI0CvCCCAAAII1F6AAlbt54AIEEAAAQQQQCDqAuSHAAIIIIAAAgggMCIBClgj4uNkBBBAAIFqCTAOAggggAACCCCAAAIIxFeAAlZ8557M4ydAxggggAACCCCAAAIIIIAAAgiEUoACVknTRmMEEEAAAQQQQAABBBBAAAEEEIi+ABkGTYACVtBmhHgQQAABBBBAAAEEEEAAgSgIkAMCCCBQRgEKWGXEpCsEEEAAAQQQQAABBMopQF8IIIAAAggg8JIABayXHPiKAAIIIIAAAtEUICsEEEAAAQQQQACBCAhQwIrAJJICAgggUFkBekcAAQQQQAABBBBAAAEEaitAAau2/oweFwHyRAABBBBAAAEEEEAAAQQQQACBYQuEpoA17Aw5EQEEEEAAAQQQQAABBBBAAAEEQiNAoAgMJkABazAV9iGAAAIIIIAAAggggAAC4RUgcgQQQCByAhSwIjelJIQAAggggAACCCAwcgF6QAABBBBAAIEgCVDACtJsEAsCCCCAAAJREiAXBBBAAAEEEEAAAQTKJEABq0yQdIMAAghUQoA+EUAAAQQQQAABBBBAAAEERChgcSuIugD5IYAAAggggAACCCCAAAIIIIBAyAWKKGCFPEPCRwABBBBAAAEEEEAAAQQQQACBIgRogkBwBShgBXduiAwBBBBAAAEEEEAAAQTCJkC8CCCAAAIVEaCAVRFWOkUAAQQQQAABBBAYrgDnIYAAAggggAACmwtQwNpchOsIIIAAAgiEX4AMEEAAAQQQQAABBBCIlAAFrEhNJ8kggED5BOgJAQQQQAABBBBAAAEEEEAgKAIUsIIyE1GMg5wQQAABBBBAAAEEEEAAAQQQQCD6AlXIkAJWFZAZAgEEEEAAAQQQQAABBBBAAIGtCXAMAQS2LkABa+s+HEUAAQQQQAABBBBAAIFwCBAlAggggECEBShgRXhySQ0BBBBAAAEEEChNgNYIIIAAAggggEAwBShgBXNeiAoBBBBAIKwCxI0AAggggAACCCCAAAJlF6CAVXZSOkQAgZEKcD4CCCCAAAIIIIAAAggggAACrxWggPVajehcJhMEEEAAAQQQQAABBBBAAAEEEIi+QGwypIAVm6kmUQQQQAABBBBAAAEEEEAAgdcLsAcBBMIgQAErDLNEjAgggAACCCCAAAIIBFmA2BBAAAEEEKiwAAWsCgPTPQIIIIAAAgggUIwAbRBAAAEEEEAAAQS2LEABa8s2HEEAAQQQCJcA0SKAAAIIIIAAAggggEBEBShgRXRiSQuB4QlwFgIIIIAAAggggAACCCCAAALBE6CAVe45oT8EEEAAAQQQQAABBBBAAAEEEIi+ABlWVYACVlW5GQwBBBBAAAEEEEAAAQQQQOAVAb4jgAACxQpQwCpWinYIIIAAAggggAACCARPgIgQQAABBBCIhQAFrFhMM0kigAACCCCAwJYFOIIAAggggAACCCAQdAEKWEGfIeJDAAEEwiBAjAgggAACCCCAAAIIIIBABQUoYFUQl64RKEWAtggggAACCCCAAAIIIIAAAgggMLhAlApYg2fIXgQQQAABBBBAAAEEEEAAAQQQiJIAucRQgAJWDCedlBFAAAEEEEAAAQQQQCDuAuSPAAIIhEuAAla45otoEUAAAQQQQAABBIIiQBwIIIAAAgggUDUBClhVo2YgBBBAAAEEENhcgOsIIIAAAggggAACCBQjQAGrGCXaIIAAAsEVIDIEEEAAAQQQQAABBBBAIPICFLAiP8UkOLQALRBAAAEEEEAAAQQQQAABBBBAIMgC5SlgBTlDYkMAAQQQQAABBBBAAAEEEEAAgfII0AsCNRKggFUjeIZFAAEEEEAAAQQQQACBeAqQNQIIIIBA6QIUsEo34wwEEEAAAQQQQACB2gowOgIIIIAAAgjETIACVswmnHQRQAABBBB4SYCvCCCAAAIIIIAAAgiER4ACVnjmikgRQCBoAsSDAAIIIIAAAggggAACCCBQFQEKWFVhZpAtCbAfAQQQQAABBBBAAAEEEEAAAQSiLzDSDClgjVSQ8xFAAAEEEEAAAQQQQAABBBCovAAjIBBrAQpYsZ5+kkcAAQQQQAABBBBAIE4C5IoAAgggEFYBClhhnTniRgABBBBAAAEEaiHAmAgggAACCCCAQA0EKGDVAJ0hEUAAAQTiLUD2CCCAAAIIIIAAAgggUJoABazSvGiNAALBECAKBBBAAAEEEEAAAQQQQACBGAlQwIrRZG+aKtcQQAABBBBAAAEEEEAAAQQQQCD6AtHIkAJWNOaRLBBAAAEEEEAAAQQQQAABBColQL8IIFBzAQpYNZ8CAkAAAQQQQAABBBBAIPoCZIgAAggggMBIBChgjUSPcxFAAAEEEEAAgeoJMBICCCCAAAIIIBBbAQpYsZ16EkcAAQTiKEDOCCCAAAIIIIAAAgggEEYBClhhnDViRqCWAoyNAAIIIIAAAggggAACCCCAQJUFKGBVGbwwHBsCCCCAAAIIIIAAAggggAACCERfgAzLJ0ABq3yW9IQAAggggAACCCCAAAIIIFBeAXpDAAEENgpQwNrIwBcEEEAAAQQQQAABBKIqQF4IIIAAAgiEX4ACVvjnkAwQQAABBBBAoNIC9I8AAggggAACCCBQUwEKWDXlZ3AEEEAgPgJkigACCCCAAAIIIIAAAggMV4AC1nDlOA+B6gswIgIIIIAAAggggAACCCCAAAKxFIhZASuWc0zSCCCAAAIIIIAAAggggAACCMRMgHSjJkABK2ozSj4IIIAAAggggAACCCCAQDkE6AMBBBAIkAAFrABNBqEggAACCCCAAAIIREuAbBBAAAEEEECgPAIUsMrjSC8IIIAAAgggUBkBekUAAQQQQAABBBBAQChgcSNAAAEEIi9AgggggAACCCCAAAIIIIBAuAUoYIV7/oi+WgKMgwACCCCAAAIIIIAAAggggAACNROoWgGrZhkyMAIIIIAAAggggAACCCCAAAIIVE2AgRCohAAFrEqo0icCCCCAAAIIIIAAAgggMHwBzkQAAQQQ2EyAAtZmIFxFAAEEEEAAAQQQiIIAOSCAAAIIIIBAlAQoYEVpNskFAQQQQACBcgrQFwIIIIAAAggggAACARGggBWQiSAMBBCIpgBZIYAAAggggAACCCCAAAIIjFyAAtbIDemhsgL0jgACCCCAAAIIIIAAAggggAAC0RfYaoYUsLbKw0EEEEAAAQQQQAABBBBAAAEEwiJAnAhEV4ACVnTnlswQQAABBBBAAAEEEECgVAHaI7AFgUv+eODoK646dPaPrnvTCVdcc9hH2Spr8JO/veXoy/98yNsrtf3wmlnvLszhldce9q4Fiw8btYVpZ3eABLwAxUIoCCCAAAIIIIAAAhEQIAUEEEAgagJX/vXgcfWphnvFS97s+/nFIokr2SprMNDfd5UmUtdVavPE+11hDs0Sfxy7rZ4XtdtsFPPxopgUOSGAAAIIIBByAcJHAAEEEIihwOXXT264/M8H7XL5n2dN/+HVhx15+TWHf+SKa2Z97oprZl98xTWH/8l9X3bltbMffO1W2HfFtbP/4Lbzr3Btr7x61oevuG7WOy675vCWH19z4K6LbzlslJloDDnLmnJ+IHm4iE4WlmgKqNcUzcSilRUFrGjNJ9kggMD/CXABAQQQQAABBBAIvsBP/3H42MuvnvUfV1wz+ybtnfhv8eq6Nend4al3tYr8SMQ7R0Q/KSLvFNHpZtr82q2wT0yPdduZhbam3o/F12sSKnfmpaFr3RrvCVfw6rz82tlfuPSaw5oz10tSWEoWSIhH8apktfCcoGZeeKKNb6RMUnznfujMaYEAAggggAACCCCAAAJlFVj8lwO3v+Lq2adecc3hV7ntX/0vylOq3s9F9AgR2UFVR4tJSkRVhr24c1/qY7SIbue2qWr67aQkHpzce/jTl19z+G0uhh//8NpZbym86ktYhhTwxZzjkM1ogEB4BUIQOQWsEEwSISKAAAIIIIAAAggggEB4BQqfn/TDa2e/3xWOfrQuP+pJV5u61GVztNv2dFu1XxG1g6uMHeJi+LBn3t+0d7dHr7hm9vkutqMuu3n2ti4e1kEE1LwhC1iDnMYuBBAoowAFrDJi0hUCCCCAAAIIIIAAAggMWyBSJ56wWBI//N1Bu1/uikM2UPdvz/QXrnD0EZdkvdsCtOo4ET1TRa5OrJUnr7x29hd++qf9x2YywnNFec2CxmswuIhAbQT4b1gbd0ZFAAEEEEAAAQQqIECXCCBQa4FLLjkwdfm1s/7jndsfvkwb6h9UVxxyMaXcFvxVdZSZfrs/uf0jkw+dfduV1xz6tuAHXZ0IzayxOiMxCgIIbEmAAtaWZNiPAAIIIBBPAbJGAAEEEEBgGAKXXnNY4xVXzfpcw+RROTX9mZjsryIBe7VV0YmNEdGDTBLXXXHN7DuuuOaw0xe7/CTGi4rx3DnG80/qwRDgP2Ew5oEoEIiUAMkggAACCCCAAAJxESgUrq68dtZpCfMeEc87x0zeIKKudiURWAp56EEiiUXrzFt5+dWzTvrhVUfsFIHESAEBBEIoQAErmJNGVAgggAACCCCAAAIIIBBwgSuunv3FQuHKzLtQC389MODxjig81W1djj/0PH/lj66d9fXFiyUxov5CdrKJ+SELmXDDI0CkRQpQwCoSimYIIIAAAggggAACCCCAQKFwc8VVsz90xTWz7xGVb7qizuj4qKiK6GjfvP9ct93hD/7omlkfL3zml9R8qXwAaolVlR+FERBAYGsCFLC2psMxYrAwGwAAEABJREFUBBBAAAEEEEAAAQTiIECOxQioK1rtt27bw38rnv5ERPdzmyvoSFyXKb5436+f1PD7K686bEZcEcgbAQSqJ0ABq3rWjIQAAggggAACERYgNQQQiLSAXn7NofPENCcqx0Y605KT06N99ZZece1hn8hkhOeXJftxAgIIFCvAHUyxUrRDAAEEEKi0AP0jgAACCCAQOIHLr3vjnpdfM/t2leTFrniVCFyAAQhIVT0x73uTDz38jh9fc1hzAEIiBAQQiKAABawITiopxVmA3BFAAAEEEEAAAQTKIbDxs66unX2q+r4rXhX+El85eo1yH1p4O+WBeUnc9MOrZr3PTArXo5wwuSGAQJUFKGBtDs51BBBAAAEEEEAAAQQQiLXAJX88cPS6bWadI6aXOoixbmMtXmBXT/V/r7j2sLbFi/etK/40WiJQAwGGDJUABaxQTRfBIoAAAggggAACCCCAQCUFCsWr+mTDzeJ5n67kOFHpe9A8VD0V7/z12zX++vrr35wUFgQQQKAMAhSwyoBIFwgggAACCCCAAAIIDFOA0wIkcPmfD9u/PjWqS1T5q3ojnhdVE3nXQ739f79w8b7bjLg7OkAAgdgLUMCK/U0AAAQQQAABBMIuQPwIIIDAyAV+eNURb1LPW+p62tVtrGUT0CPGbNf4wOVXHzq5bF3SEQIIxFKAAlYsp52kEUAAgc0EuIoAAggggECMBa64+rC3ep7/d1HlM5sqczuY4HnJZa5IuFNluqdXBBCIgwAFrDjMMjlWRYBBEEAAAQQQQAABBMIncMVVsz8k4v1RRHluJJVbzGQHVyS85WfXH7hj5UahZwQQiLJAkO6ko+xMbggggAACCCCAAAIIIBAwgcuvOfwo8fQnojoqYKFFNBxt7u1tWHrZdbMnRDRB0ipegJYIlCxAAatkMk5AAAEEEEAAAQQQQACBsAtcec0RB4vZn8ObRzgjV9FJCV9uu+SPvBIrnDNI1AjUToACVu3sGRkBBBBAAAEEEECglgKMHVuBi/60/1hzxStV3jZYmxuB7t6QbPjfTEZ4PlqbCWBUBEIpwB1GKKeNoBFAAAEEEAiGAFEggAACYRP40bWzdh6d3D4nKnwWUw0nz1TfMvnQwy89YbEkahgGQyOAQIgEKGCFaLIIFQEEIilAUggggAACCCBQJYEFiw8b5fv6Azfc7m5jrbmAnfTObWedziuxaj4RBIBAKAQoYIVimghy6wIcRQABBBBAAAEEEEBgaIGx2+l/icqxQ7ekRXUEVEX1/CkHH3pkdcZjFAQQCLPASwWsMGdA7AgggAACCCCAAAIIIIDAEAI/vPqwI1W8+eIqJsISIAH1zEtc+oM/HDwlQEFFOxSyQyCkAhSwQjpxhI0AAggggAACCCCAAALFCVz5m4PHeer91LUe47YRr3RQbgGdkKpLXWImWu6e6Q8BBKIjQAErOnNJJggggAACCCCAQFgEiBOBqgls/HylUanvi+g4YQmwgL79iqtnfzHAARIaAgjUWIACVo0ngOERQAABBBAYngBnIYAAAggUI5A+7I0fMNX3FNOWNjUW8PSrV1wze78aR8HwCCAQUAEKWAGdGMJCAIEqCDAEAggggAACCERa4PI/H7RL3vxvRzrJCCWnIvUmctnll7+5IUJpkQoCCJRJgAJWmSDj2g15I4AAAggggAACCCAQVAFN1l/kYtvdbawhEVDRQ3TX3lNDEi5hIhArgVonSwGr1jPA+AgggAACCCCAAAIIIFB2gR9cdchEMXtn2Tumw8oLmPfFzPVvTlZ+oKqPwIAIIDACAQpYI8DjVAQQQAABBBBAAAEEEKimQHFjXbh4322SmrxZROuEJXwCqrtN3tB/hRh/lTB8k0fECFROgAJW5WzpGQEEEEAAAQQQCJ4AESEQA4Ex2zYeq6qTYpBqdFNUOfbSq2btEd0EyQwBBEoVoIBVqhjtEUAAAQRiLwAAAggggEBwBRYvloSofTe4ERJZcQK6XV1CmcfisGiFQCwEKGDFYppJEoHACRAQAggggAACCCBQEYH1283+kojuKiyhF/BF33vlX2YfHvpESAABBMoiQAGrLIy16IQxEUAAAQQQQAABBBBA4LUCmYx4JvLR1+7jcrgF/LycGu4MiB6BcgjQR0GAAlZBgQ0BBBBAAAEEEEAAAQRCLzD54MM+JqLNwhIZAXUFyYt/M2vnESdEBwggEHoBClihn0ISQAABBBBAAAEEEECg8gJBH+FH104bo17im0GPk/hKFVCvYZR+rdSzaI8AAtEToIAVvTklIwQQQAABBBAIpgBRIYBABQXM23aGb9ZYwSHounYCR9VuaEZGAIGgCFDACspMEAcCCCCAQBECNEEAAQQQQGBQAbW8fFlVeX4zKE+4d7p5nXT5tYcfG+4siB4BBEYqwB38SAU5H4GwCRAvAggggAACCCAQMYErrjloX5fSkW5jjaiAml1e+JD+iKZHWgggUIQABawikDZvwnUEEEAAAQQQQAABBBAIjoBq6n0iqsISYQEdlz708P0jnCCpBVSAsIIjQAErOHNBJAgggAACCCCAAAIIIDAMAd/3/t8wTuOU6giUbZS82lvK1hkdIYBA6AQoYIVuyggYAQQQQAABBBBAIF4CZLs1gSv/ctgMVTlga204FhEBk09EJBPSQACBYQhQwBoGGqcggAACCCCAQMgECBcBBCIrYPnEtyKbHIltJqD7XHbN4S2b7eQqAgjERIACVkwmmjQRQACBkQpwPgIIIIAAAkETuPz6yQ0mNiNocRFP5QQ8sXdWrnd6RgCBIAtQwAry7BBb1ATIBwEEEEAAAQQQQKCMAokXd5miIjuXsUu6CrqAyuygh0h8CCBQGYGQFbAqg0CvCCCAAAIIIIAAAgggED6BfDL5n8JfH5Q4LWp6aJzyjXeuZI/ApgIUsDb14BoCCCCAAAIIIIAAAgiEQCCzeN86NTsuBKHWLsRojtx45TWz50QzNbJCAIGtCVDA2poOxxBAAAEEEEAAAQRiLUDywRXYY/sdx4vq6OBGSGQVE1A5sWJ90zECCARWgAJWYKeGwBBAAAEEEIiEAEkggAACFRFIij+hIh3TaeAFzPStixfvWxf4QAkQAQTKKkABq6ycdIYAAghUQoA+EUAAAQQQQGBzAd/8iZvv43pMBFS2eW67UeNiki1pIoDAywIUsF6G4FvEBUgPAQQQQAABBBBAIFICvskbIpUQyRQvYLJNfV9DY/En0BIBBKIgUHQBKwrJkgMCCCCAAAIIIIAAAghEQ0BVZ0QjE7IYhkBS6uzgYZzHKUUK0AyBIApQwArirBATAggggAACCCCAAAIIbFVARQ7YaoPaHmT0CguoCX+JsMLGdI9A0AQoYAVtRogHAQQQQAABBBBAQERAQGDLApf88cAdRXSysMRWwFRnxTZ5EkcgpgIUsGI68aSNAAIIIBADAVJEAAEEIirQkGg4KKKpkVbRApq+7Pd7b1t0cxoigEDoBShghX4KSQABBCopQN8IIIAAAgggEDwBS8h0YYm9gNfQuFvsEQBAIEYCFLBiNNk1SpVhEUAAAQQQQAABBBAoq4CaTC1rh3QWToG+xC7hDJyoEYisQEUTo4BVUV46RwABBBBAAAEEEEAAgXIL+CYULsqNGsL+NOWPC2HYQ4TMYQQQ2JIABawtybAfAQQQQAABBBBAAAEEAimgItttMTAOxEbAFx0bm2RJFAEEhAIWNwIEEEAAAQQQQACBTQS4gkDQBUx0dNBjJL7KC3gqOwgLAgjERoACVmymmkQRQAABBKoowFAIIIAAAhUUUDWex1TQNzRdm1LACs1kESgCIxfgjn/khvSAAAIVEaBTBBBAAAEEEEAAAQS2JmDbb+0oxxBAIFoCFLCiNZ+bZsM1BBBAAAEEEEAAAQQiKGCm/RFMi5QQQACB4QvE4EwKWDGYZFJEAAEEEEAAAQQQQCBKAqr2QpTyIZfhCah4ZX0FlrAggECgBShgBXp6CA4BBBBAAAEEEEAAgdAIVC9Qk3z1BmOkoAqYigY1NuJCAIHyC1DAKr8pPSKAAAIIIIAAAsMU4DQEEEAAgaIFzH++6LY0RACB0AtQwAr9FJIAAggggMAmAlxBAAEEEEAAAQQQQACByAlQwIrclJIQAiMXoAcEEEAAAQQQQCDQAqoDgY6P4KojYMorsKojzSgIBEKAAlZlpoFeEUAAAQQQQAABBBBAoEICJtJboa7pNkQCKrYmROESanQFyKxKAhSwqgTNMAgggAACCCCAAAIIIFAuAdtQrp7oJwgCw4vBFTJXDe9MzkIAgTAKUMAK46wRMwIIIIAAAggggAACrxWI2WX19fGYpUy6gwj4ZqsH2c0uBBCIqAAFrIhOLGkhgAACCCCAQGkCtEYAgTAJ+I+FKVpirYyAqvdMZXqmVwQQCKIABawgzgoxIYAAAuEUIGoEEEAAAQSqI+Dpg9UZiFGCLJDIDzwZ5PiIDQEEyitAAau8nvSGwAgFOB0BBBBAAAEEEEBgKIGE6ANDteF49AVekBefiH6WZIgAAq8IRK+A9UpmfEcAAQQQQAABBBBAAIFICqx7aH3hFVj5SCZHUkUK2OrT3rX8uSIb0yyqAuQVKwEKWLGabpJFAAEEEEAAAQQQQCD8AvPm3bVOxFaGP5PaZxDiCO4OceyEjgACwxCggDUMNE5BAAEEEEAAAQQQQOBlAb7VSkC1s1ZDM27tBVT1xtpHQQQIIFBNAQpY1dRmLAQQQAABBBAYRIBdCCCAQOkC5gsFrNLZonKG5fsHlkQlGfJAAIHiBChgFedEKwQQQCDYAkSHAAIIIIBA7AT8+2OXMglvFDCTPjV7aOMVviCAQGwEKGDFZqpJdCgBjiOAAAIIIIAAAgiERyDheSvCEy2RllNAPX2hfptRfIB7OVHpC4EQCJSzgBWCdAkRAQQQQAABBBBAAAEEoiCQ7FvfHYU8yKF0ARNb/dunb6CAVTpdOc+gLwSqLkABq+rkDIgAAggggAACCCCAAAIjFfjgsXc94woZuZH2U7vzGXm4Al7e/+Mv50p+uOdzHgIIhFOAAlY4542oEUAAAQQQQAABBBCIvYBn/sWxR4gdgJmXH7g8dmmTMAIICAUsbgQIIIAAAgjEWIDUEUAAgTALpAb6fi1ifWHOgdhLFvj3R469g1felczGCQiEX4ACVvjnkAwQQKC2AoyOAAIIIIAAAjUSSK5fv0ZEnxKWGAnoHTFKllQRQOA1AhSwXoPBxVoJMC4CCCCAAAIIIIAAAqULzJ17X5+qdZZ+JmeEVcBEbhAWBBAIscDwQ6eANXw7zkQAAQQQQAABBBBAAIEaC5jZRTUOgeGrKKC+/6cqDhfMoYgKgZgKUMCK6cSTNgIIIIAAAggggAACURBYedstV4vYylJyoW1YBezWk465pTus0RM3AgiMTIAC1sj8OBsBBBBAAAEEEIijADkjEBiBTEZ8U70qMAERSMUE1OTKinVOx4UH97sAABAASURBVAggEHgBCliBnyICRAABBBCIpgBZIYAAAgiUS0D9/G/K1Rf9BFbA/IGBvwc2OgJDAIGKC1DAqjgxAyCAQMUE6BgBBBBAAAEEEHACvTv13eS+rXAba3QF7nzortt5+2B055fMEBhSgALWkETRbkB2CCCAAAIIIIAAAgiEXWDezLv6xc9nRMzCngvxv17AxPrd3J6SyYj/+qPsQQCBYgXC3o4CVthnkPgRQAABBBBAAAEEEEDAla4GrhPRXmGJnoBJx0lHLbk3AIkRAgII1FCAAlYN8RkaAQQQQAABBBBAAIF4CVQu25PfeecTropVeCth5Qah5xoJ2EU1GphhEUAgQAIUsAI0GYSCAAIIIIAAAggMKUADBBDYokB/f/8n3cENbmONjIDd3/dw708jkw6JIIDAsAUoYA2bjhMRQAABBMIqQNwIIIAAAtEU+Pj/u2OFiP0jmtnFMyvL27fmzburP57ZkzUCCLxWgALWazW4jAACxQrQDgEEEEAAAQQQCKaAyaJgBkZUpQvYMye/85aflH4eZyCAQBQFKGDVbFYZGAEEEEAAAQQQQAABBMotcNLRS/4oYjeUu1/6q66AifR6nhztRnUX3VdWBEItQPDlEKCAVQ5F+kAAAQQQQAABBBBAAIGgCJgNyFeDEgxxDE9A1a5reH7Jsv87mwsIIBB7AQpYsb8JAIAAAggggAACCCAQB4E45Xjyu5bcLGpL45RztHK1NWvyT54wd67ko5UX2SCAwEgEKGCNRI9zEUAAAQQQQCBOAuSKAALhEbBkfuCtIrY6PCET6asC9rW2Y7p6X73OJQQQQECEAha3AgQQQACBKgowFAIIIIAAAtUR+PAxt69Rk+9XZzRGKZuA2m2r1thFZeuPjhBAIDICFLAiM5UkEhsBEkUAAQQQQAABBBAoSuDEo5d8zkyWF9WYRgEQsL7+DQPzzp576/oABEMICCAQMIFYFrACNgeEgwACCCCAAAIIIIAAAhUSMMu3Vqhrui2zgJos+Pi7b+8sc7d0F3MB0o+OAAWs6MwlmSCAAAIIIIAAAggggMBmAqccc+uN5vttImabHeJqcQJVaaUqt5949JIvVWUwBkEAgVAKUMAK5bQRNAIIIIAAAggggEB4BIi01gLj5anvi+idwhJMAbM+8f2zXHAUGR0CKwIIDC5AAWtwF/YigAACCCCAQJAEiAUBBBAYgcAxx3T1/vmym2eJ2FMj6IZTKyWg8p0Tj77l1kp1T78IIBANAQpY0ZhHskAAAQSGFKABAggggAACcRb45S8lL2onxNkgmLnbv0av8b8TzNiICgEEgiRAAStIs0EsQRcgPgQQQAABBBBAAIEQC5x05C03mfknhziFqIX+eF3/htlz+auDUZtX8kGgIgJVLmBVJAc6RQABBBBAAAEEEEAAAQSKEjj56FuuEPF/bmZ+USfQqFICL4j6H/jgsXc9U6kB6LfWAoyPQHkFKGCV15PeEEAAAQQQQAABBBBAIOACJx11ywdV5M8BD1MkygGafajwirgop0huCCBQXgEKWOX1pDcEEEAAAQQQQACBAAkQCgJbEhi9+3PvM7HfbOk4+yskYLZezN590tFL/lChEegWAQQiKkABK6ITS1oIIIAAAgiUSYBuEEAAgUgKzJ16X5/fKye5IlZHJBMMZFK2Rnw5ieJVICeHoBAIvAAFrMBPEQEigED4BcgAAQQQQAABBIIocOq7l6zt698w28W2wm2sFRYwlfed9M4liys8DN0jgEBEBShgRXRiI5cWCSGAAAIIIIAAAgggUAGBecfetc7Wv3CAmf29At3TZUHAJJ8QmX7ykUv+UrjKhgACCGxVYAsHKWBtAYbdCCCAAAIIIIAAAgggEA+Bk4/veD5lA8e7ItZVImbxyLpqWd7XO7B+l48cdXOuaiMykECAQBQFKGBFcVbJCQEEEEAAAQQQQAABBEoS+PAxt695qCH1bjFZKiL5kk6m8aACKvLAGv+JA+Yde9czgzZgJwIIIFCCAAWsErBoigACCCCAAAIIIFCsAO0QCJ9AZs4NAycdteQQ0fxp4Ys+aBHbP1TXHNh2TFdv0CIjHgQQCKcABaxwzhtRI4AAAgjEQYAcEUAAAQSqL6BiJx156/dFbKob/G9uYy1d4GKrf+wdHz2y88XST+UMBBBAYHABCliDu7AXAQQiIkAaCCCAAAIIIIDAcAROOmrJvScddfPbxexL7vx/u411aIEXTezLzu20k+es3DB0c1oggAACxQtQwCreKq4tyRsBBBBAAAEEEEAAgbgK2ElHL/n2yvqb93CFmX/EFaGovM3W+9r7hpOPWvKtotrTCAEEgigQ6JgoYAV6eggOAQQQQAABBBBAAAEEai2QmSMDD9UveYt49m4zW1vreAI1vpkvYv81eu1zO5xy5J2PBCq2mgTDoAggUCkBCliVkqVfBBBAAAEEEEAAAQQQKF0goGcUilgnvWPJH9QbmOMKNncFNMxqhpUXkz+r+TNPOmrJ1+bOva+vmoMzFgIIxE+AAlb85pyMEUAAAQQQQCDiAqSHAAKVEzjpyNvv+vOaJYeY+T8Ws/WVGymoPZuJygpL2OEnHX3zu0485tZlQY2UuBBAIFoCFLCiNZ9kgwACCCBQHgF6QQABBBBAYIsCv5wr+ZOPvuWjA+pPc43i85cKTZ4207f09q2fevLbl9zmcmdFAAEEqiZAAatq1AyEQNwEyBcBBBBAAAEEEIi2wMeOurVr5W03v8P3/RPE7IaoZmtmd5ovp5509M3jTz765hvmHXvXuqjmSl4IIBBcAQpYwZ0bEWJDAAEEEEAAAQQQQACBQAtkMuKfcswtvzrp6CVzVPKHmMmNIhb6Ao+KDJjY7b6vbz756CUHn3zMzT90E2FuY0UAgUoI0OeQAhSwhiSiAQIIIIAAAggggAACCCAwtMCJR916x8lH3Tynd82GCeL7n3dn5N0WwtVWbli/fp+Hjlwy65Rj/uEKcuFIgSgRQCDaAhSwoj2/ZIcAAggggAACCCCAQLECtCuHgIrNm3vX6pOOueV/rP7RbUzyR4v53xCxZ8vRfcX6MFvrQv+6r/nZJx65pGne8Xd1Z1T8io1HxwgggECJAhSwSgSjOQIIIIAAAgggsGUBjiCAAAKvCpw8Z+WGk4+69ZqTjr7lKycdtWQn0f6Zrpj1fVfMulVcZevVlrW6ZPe6WK7Im7179NolY088aslXTzny1ltUXXS1ColxEUAAgS0IUMDaAgy7EUAAAQRqJMCwCCCAAAIIRFPATjry9rtcMWueK2bNGr121eiE5o93taIuMVvjtj5XTKrQZ0yZuY57Xf+r3aUeX6x19MRV9S6OqW47+dSjl/xh7lwJ6dsdo3ljISsEEHi9AAWs15uwB4HQC5AAAggggAACCCCAQLAF5s69r+8jR976uxOPWrKnPfHY+P58frqZvkXEf5+KLBCx+10Grujkvpa6mjzhzr/a9XNm3rdjBtTeLF7//mv8J8effPSS9ClHLVk0d+p9rmBWase0RwABBGonQAFrcHv2IoAAAggggAACCCCAAAJVETj55JUbPv6u2/558tE333DSUbf8+sSjbv70SUctecNJR908avSam5Nr/Cca6urX7yS+35yQ/J6bb5764z1ds02h7YlH3uyddPTNu5501JJjXD8LTz1mydUfO/KWm05+x+0Pth3TNbyCWFUUGASBmgkwcEgEKGCFZKIIEwEEEEAAAQQQQAABBGInYIW39hUKTx+cc9czJx1zS/dHjrq1a/Pto0fe8tRHj+x8sdC2Np9fFbt5IWEEEKiBAAWsGqAzJAIIIIAAAggggAACmwhwBQEEEEAAAQS2KkABa6s8HEQAAQQQQACBsAgQJwIIIIAAAggggEB0BShgRXduyQwBBBAoVYD2CCCAAAIIIIAAAggggEAgBShgBXJaCCq8AkSOAAIIIIAAAggggAACCCCAAALlFgheAavcGdIfAggggAACCCCAAAIIIIAAAggET4CIEChBgAJWCVg0RQABBBBAAAEEEEAAAQSCJEAsCCCAQFwEKGDFZabJEwEEEEAAAQQQQGAwAfYhgAACCCCAQAgEKGCFYJIIEQEEEEAAgWALEB0CCCCAAAIIIIAAApUVoIBVWV96RwABBIoToBUCCCCAAAIIIIAAAggggMAWBShgbZGGA2ETIF4EEEAAAQQQQAABBBBAAAEEEIimwGsLWNHMkKwQQAABBBBAAAEEEEAAAQQQQOC1AlxGIHQCFLBCN2UEjAACCCCAAAIIIIAAArUXIAIEEEAAgWoKUMCqpjZjIYAAAggggAACCLwqwCUEEEAAAQQQQKBIAQpYRULRDAEEEEAAgSAKEBMCCCCAAAIIIIAAAnEQoIAVh1kmRwQQ2JoAxxBAAAEEEEAAAQQQQAABBAIuQAEr4BMUjvCIEgEEEEAAAQQQQAABBBBAAAEEoi9QuwwpYNXOnpERQAABBBBAAAEEEEAAAQTiJkC+CCAwLAEKWMNi4yQEEEAAAQQQQAABBBColQDjIoAAAgjET4ACVvzmnIwRQAABBBBAAAEEEEAAAQQQQACBUAlQwArVdBEsAggggEBwBIgEAQQQQAABBBBAAAEEqiVAAata0oyDAAKvF2APAggggAACCCCAAAIIIIAAAkUIUMAqAinITYgNAQQQQAABBBBAAAEEEEAAAQSiLxD3DClgxf0WQP4IIIAAAggggAACCCCAQDwEyBIBBEIsQAErxJNH6AgggAACCCCAAAIIVFeA0RBAAAEEEKiNAAWs2rgzKgIIIIAAAgjEVYC8EUAAAQQQQAABBEoWoIBVMhknIIAAAgjUWoDxEUAAAQQQQAABBBBAIF4CFLDiNd9ki8ArAnxHAAEEEEAAAQQQQAABBBBAIDQCFLCGPVWciAACCCCAAAIIIIAAAggggAAC0RcgwyAIUMAKwiwQAwIIIIAAAgiEQmDKBcvHNy3sPCbdnvtyOtv5veb23E/T2dyvm7Od16azHTc3t3fc09yee8Rtz7jt2eb2zvXu+wa39W3csh397tyBUrdmd97G89tzL/Xz6nfXd2GMzbZs7oV0NveEG+dOF8Ni9/0beyzo2C8UyASJAALRFCArBBBAYIQCFLBGCMjpCCCAAAIIIBAdgfHnXjsmvfCuA13x56OuQDW/OZs7v7m94/bm9lyhILXBS/iPe579WUW+oWrzXOYfVJX3iNo7VHW2iBaKRBNFZJzbGkWswX2vd1tq46aadOcmSt1ENbnxfJGX+nn1u+u7MMZmm8oYVRnvxpnpYjjBff9yXUqXp11BzRWzHk63d/zGXf5KUzb3qSkLOz6SXtgxZ9L5S3eVxZZw47AGVICwEEAAAQQQiLOAF+fkyR0BBBBAAAEEYiXwarJmuuM59287cUHHbk3ty2c2ZTsucwWdf2/bsMtz6iWXuuLPla5A1S4qZ4rowfJSQareFYLC/NjJpWUNLofdVfR4FfvxGgzYAAAQAElEQVSap3JRwtMfqad/TyZTjzU/0bku3Z5blc523tGU7fjqpPPvPix94fLd0xfndp6cub5QjHMUrAgggAACCCCAQPUFwvwgrPpajIgAAgjEXgAABMIr0HRJ9/bpRZ2fSGc7fuu+37HD6N776pPareLf4ameomK7uOwKr3By3+K3qrhynUqd+z7WFe8Ocib/nUwmlqjv9+iAPZhobOx0djels7lvTjhv6Y7CggACCCCAAAIIVFHAq+JYDIUAAgUBNgQQQACBygpcsjQ1aWHHnOaFHWc3ZTu+m27PFT4HarX2vfCsmn1PVY9TkZkuiImqUnhVlbvqrrG+TsDBuFWSIrqds9pTVY9QlS+Nqk8+kc52PNXUnvtV86LcF53ze3Zb9M/C2yaFBQEEEEAAAQQQqISAV4lOK90n/SOAAAIIIIAAAv8n4ApWUy64a1q6ffn7m9tztzf3pV5IJby/iaff9VTPdhUYV6yy7dz3wuc7uW//dyYXhimgoglV3ck9kHyvmHzLOf96lPU94fyfTLcvu6BpYe6t6YW5qRMXPDJqmENwGgIIIIAAAhsF+ILAKwLucccrF/mOAAIIIIAAAgiER2Dy+St2SGdzP3AFq0cSieRSEf/nLvrC51XViZm6y6zVFUi64XZW8c5QT/7itrvrU6seS2c77phyYe59woIAArUSYFwEEEAgEgIUsCIxjSSBAAIIIIBA9AUKr+ZJL1r2iXR77srm9lxPMrH6aVX5mMt8vNtSrmLlVneJteYCbiLcKoU5GauqB3m+LHZztt7N3c1uu2BK9q4jah5kSQHQGAEEEEAAAQRqLUABq9YzwPgI1Eogc31yygXLx0++IHdIur3z6OaFHXObsnd/oLm948PphXe3NrUvO2PTreOs5mznfw+2NbXn/mvTtpuf++r19MLclwfro7Bv/4vv+fZBP7j3vMLlV7ambMdXN/ad7Thlz/bOD6bbl7+/aVHHu5oXdR7WnM1NlOyD9bUiZFwEEChBYDhNL1mampztfJP7v/6p5vbc7Q2pVavVvEtcZeSjrrspolp4xY+7yBp0ATdnbpXCX0Cc7S6c4WnyRjenhbcbfnnKBZ1vFOEVc0GfQ+JDAAEEEECg1gIUsGo9A4yPQEUFTCdnrm/Y+7L7t939nLsnTFm4fG5ze8e16WzHE+lxjWsTSft3MiG3qdhV4un/epr4mYj+WL1E1hPvAm+TTReI2lcH29wdSWbTtt5m5756XT35xmB9FPatH8h/4bkNA58uXH5l81T/2yvEoXqZif1Uxf+FZ/pHMbtFVB5ulnVrXE6r0+2dD6Wzub+6Yte3mrLL3rn7/yxNN2cf3K7wZ/InZJaOFlewk5AvhI9AHASas1fV75K9e6em9tyF6b7U80lPrnf/1y9yuRfeGhjbvxDo8o/U6opYbpWdVbxvJBJ2Q3P78uddofJ948/NjREWBEYoMPnyFQ07XXjPNq9shdtV4bHA5pssvqdOMoNt1yflhMWJIbeMuYdAheJrALbC26YXFxFzMXlVqk0hRinVaoQ3Bk5HAIFICbg73UjlQzIIbE0gFscmfHf57umFuc80t+d+lW7vvDHR2PhAfl3vk3WjEw8nPP8XIvoOVR3vnjk0uCKQ+yZhXtQ9sa2Twl/HEttDVd7qil1f9NT7Y92o1L9EXnx2+1Ebnhw1LtWTbmy8q7m987rmbMdPprQv/3DhrUjCggACgRFw91tTXRH6Z6K73buNJh5zD1BOU5HREbifCoxxgANxU23bufvzxdvWy8qm9twfJ52fOyDA8RJagAWaFnV+NfHCmn9t5+cffWXbpkEeGdWY6tl8Sz85cG96XP6ezbfmcWPvbH7TPrcPtaUbc7els503BmHb88LOm5qfGjrmoXKq5PH0otw/SrFqau+8wT1uc794zf1gpwuv3ybANztCQwCBKgm4x4eljERbBBAIhMAlS1PN2eXppmznh9LtnZ9rKrxSIdux3BWt1o5K+SvVk3NdnO91zwiOcEWdPdzlUe5ywn1339zX6K8ubfFENamqhdzHq8o0EXu72/ehhPg/akitWu28Hm7O5n7kti81ZTtOmZTtmDE5s6Ih+jxkiEAwBAr3Y4X/f+7/4n3iWYf7f/oBF1nabSm3scZPQEVlR0/kXamk3uluF8uaF3WcPXHBvY3xoyDj4Qg0Zx/cScU+ryK7u23712xj3f1L4bHApptos2uz5+abiE53xfMDh9pU9SBVKTzWqvlmJocPFW+tj6vo7FK83H3BG0ULv3iVj23nj/uxsNRAgCERCJaAu18IVkBEgwACrwpMzlzfMPn8ZZPdA/j9ms5f9s6mhR0/TrfnHkn3pVaL5z/oqf3EPVA7x/1HPk1Vp7ozt1F1hRthGUJA3fHCE+TdReUjbvump3pZSvWuZOPqNe5J0zPpbO4G53325Gzu0EkXLn/DbtnbJm58m4E7kRUBBIYvsOM5N2+7x8LOA93/sb+L+vcX/v+53t6gooUiu7vIikBBoPDWLJkupt9tSA082bwod9GUC3J7y8a3bAkLAoMK9CXXb6smhZ/vgx6vyU4GLYuAiuxVlo7oBAEEQi3gnveGOn6CRyB6AtkH69PZZZ91hapbEuMa/5VI6r3ut2o5TXp/9Dz9sPsBPtFto8Tc077oZV/rjFRUCw98x6nKm9TT8xIqt6R8PzdKR9+bHjfwr+b2zlumLOxoFVdcrHWwjI9AqARc4SHd3pHdYfS2/0yp3eH+j73Zxc+HsDsE1q0LuKNJMflkIiG59LjOXNOCu9/m9rEi8DqBugF3z2KFz1h63SF2hFzAxB8T8hQIHwEEyiBAAasMiHSBwIgEPrE01ZTteE/zwtyl6fbcA826bq2qd46KHOa23VV0tNtcHUV0RONwcskCDtw9Et7o7opatp2KThKxwxIJXdg8rrHwSq3u5nY3bxcuf/+b+ZD4kn05oWoCNR0ovTD3H+ls7neu8PCiqs53weymKoXHHyosCBQvULi91LsvU71U4rrCz8um9o5zdrrwHj4Xp3hDWiIQXgFzPznCGz2RI4BAmQQKDyDL1BXdIIBAsQKTL7xjl+b2jiPdA/Dvp6cmn/FUf+2ezp3qHpgXXh7tiiUbiybFdke7igtsNsBLr34rzFOTO3Kq+v7PH21sfD6d7fjfKe25/9e0oHN/oaDlaFjjKjBxQcdu6UW5E9PZ3EPqyc/c0453u/u3Bnnp/05cWci7fALuJiV7eaKf297PP5Ne2HHO5POXTS9f9/SEAAIIIIAAAkEU8IIYFDFFUICUNgpMviB3SDrbeW/Sr39MRK9xT+g+rqrbCUvYBdSVHMe4uZybEPm9l7LO5nHjnnNFyusmX5Q7VDIbP8sl7DkSPwJFCbii1ZUNKV2pJleoyh4i7n+HsCBQMYF69fRzyaR3t/ul0F0Tzlu6Y8VGomMEEEAAAQQQKE6gQq0oYFUIlm4RKAg0Z27brjnb+Z10tmOJ21YnEnKrqu3rjvF/zyFEe7VtRPTtibzc0jyuc4N7YlV4hdYKdzu4NZ3N/WzKos43CgsCERGYcsHyae52fbW7na93RauPuLT4bCuHwFpVAXfTkxmj61KPpbMd/0hfeM+cqo7OYAgggECZBegOAQReL8CT6NebsAeB4QtkMl564bJZzQs7zm5uz90m40Y9I2qfV9VZbttOhVciSMyWl+c85b5v724Dk912qKp8wDO73j3Z/3c6u+ybk9uXvVncbUdYEAiXgBYKsen2jt8kEv5Sd7s+yt3OG1wK7pv7yopA9QXU/ZStU9XDxR/4i7tt/indnntL9cNgxIAIEAYCCCCAQMQEKGBFbEJJp/oCzdkH6wuf99K0qPPzzY3HP62ed7N4+l0XySFuK3xOkvvGisCmAiruViKyi6r3paR6f3e3naeash2fn3Le3ZPGn5vjL+1sysW1gAns3n7/hOb2jmsSZjeq6PEuPO7rHEL01vBm5G6XCbe9U0X+ml6Uu3rS+Ut3FTF3Nbw5ETkCCCCAAAJxF6CAFfdbAPkPW2BK9u6WdDZ3lei6noaUrvDMvi0qja5DHiA7BNYSBAofbK0yzlP9TqLO69qmQXrS2Y4lTRd2HF5CLzQNokDEYioUWJvbc7fXaV+3iL5DWBAIvoCqyZGpZGpFuj33m8IvnYIfMhEigAACCCCAwGACFLAGU2EfAlsQKBStmhZ2LGjOdvR46t2lKke7phPcVnj1AYUrB1HuNXb9qSbdDWlnLbzt1Neb0u2djze15y5NZ5edNOGSpaNj50HCgRDY46LOpvSijsu9+sR9LqCD1azBfWdFICwC7m5V6lX0ONF13U3tHWdJ5p66sARPnAgggAACCCDwkgAFrJccovyV3EYqYKbphbmp7je3VyYksdTz9CxRnaKiiZF2zfkIbE1Axd3SxHb1RE5V9S4f3Zt6qqk9d3FzNnfoThfes42wIFBhgYkXd+zW1N75hbq83a+mJ6kIRdQKm9N9xQV2U9HvNo/L3z4le09LxUdjAAQQQAABBKorEOnR3POiSOdHcgiMSGD8uU+MSbfnblZPlqvIR0WFv6w1IlFOHpGAyhh3p/1Jdzu8dXvffyadzV0pmcW8imBEqJy8BQFNZzvOaxjQlZ7Yt0Uk5TZWBCIh4H6eu1WmJzS/rLm988f8EY1ITCtJIFBGAbpCAIGgCnhBDYy4EKilwOQLl01vbl/2+23rn3xSVWfVMhbGRmBwAat3hdWPNDfutTad7VwyZeGyL0++fAVv6xoci70lCEzJLvt4ur3jX6J6tjst6TZWBKIqoCb2oeZxxz/Y1J57b1STrEleDIoAAggggEAFBChgVQCVLkMqcMLiRHphx5x0e8dvk753p4j3/0SFvwYX0umMRdgbP/xd61RtVsLzvpF8Yc3T6WzHwqZs59vkkqW8YiYWN4IyJWmmkzbe/+VuTqh3iYo2q7h7QGGplQDjVkfg5dt5k/u+ON2eu2Ly+csmV2dkRkEAAQQQQACBUgUoYJUqRvvoCWSvqp98Qe6Q9BF7P6Ce/k0LH/IqkoxeomQUA4FtVLXNU/tLc1/qseZFyz8yccG9hb+MGYPUX5ciO4oUmHDe0h3Ti3I/S268/5PZ7jR1GysCsRJwN3rPbScmk/qv5vblH56cub4hVgAkiwACCCCAQAgEvBDESIgIVExgj2zn25p14u1Jz25WlbQbyD1+dV9ZRQSEkAvsJOZf2ZAauD/dnvvZjufcv23I8yH8sguYTmnPfXlUfeo+VX2/u/Nza9kHoUMEQiagKRP/yuS4xhsnnX/friELnnARQAABBBCItAAFrEpOL30HViDd3nlcOpv7e53adSLWIqq84iqws0VgIxAoFCR2cl8+sP3o3ifdbf77hb9gOIL+ODUiApPOv/uw5vbO692DgK+524crdor7FpHkSAOBEQq4/wzuv4YcnEz235duX/a5yRk+X3CEpJyOAAIIxEOALCsuUPgBXfFBGACBQAhcsjQ15YLOXkByrgAAEABJREFUNzZlOzpU7DeqMsfF5R6nuq+sCERcwN3QR7nb/MdNZUlze+7Gpva7Z8on+JysiE/769Lb6cLrt2la2LEglUjc5A6+yd0ueBzgIFgRGEzA/f/YQcU7JzFuzXXN2aWFV2kLCwIIVFaA3hFAAIGtCfDAdWs6HIuMwPhzczune1O3egn/757qNJeYe1zqvrIiEDMBd8Mv3O8foeLd1jw11Vn4i5vCEguBPRZ17Ld9fuwK9fRMUT7nLxaTTpJlEXDF/8NFUx3p9s6jy9JhZTuhdwQQQAABBCIrUHgiE9nkSAyBCRcs3SOd7bh823rrcQ9AD1TRhFNRt7EiEGcBVXH/F1T2Sea9292Tsqsmty9/c5xBIp27mabbO85Jmd4hqjuqiFuFZYsCHEBgMwHb+H9mGxH7Uzq77MoJmaWjN2vBVQQQQAABBBCoggAFrCogM0T1BSYuuGVUUzb3qTHJuntU9SRRHVP9KBgRgRAIqNSp2NFJ8//W3J771eTzl00fcdR0EBiBSRcuf0N6UedSdz/4WRXhSXdgZoZAwijg/g95qt5HRzWmrm36bsdeYcyBmBFAAAEEEAizgBfm4IkdgdcJZMxrunDZQQ2p0f/2VC4ys1D+5bXX5cUOBCotoFL4efDeZDJxY9N3lm4vLOEWcPeFkxd2fiLl+/e4J90HyEuvIAl3TkSPQEAEVOVwr15z6YXLZrmQ3H8x95UVAQQQQAABBCouUHjCUvFBajAAQ8ZQoPCku3nHzt94vi4RUZ6ACwsCwxBQ21bH1H92GGdySlAEMvfUpcflfpX07EIXEj/nHQIrAmUXMGlQ9a5vWpT7Qtn7pkMEEEAAgVIFaB8TAR7YxmSiI52me7LW1H73J3V08kExebeIpoQFAQSGJ2Cianb48E7mrFoLpBcun9U8Ln+/ih7nYkm6jRUBBColoFKnpt9IZ3NXNmevqq/UMPSLQHUEGAUBBBAIvoAX/BCJEIEtCzRdcM8ezeP8P3mSuFhVd9pyS44ggECxAqaWL7Yt7QIikMl46faOVlX/RhfRFLep21gRQKDCAirmqcpHTSfeM/Hijt0qPBzdI4AAAgggEGsBClixnv5wJz85m2vTRD4nYm8LdyZEj0CwBMzXO4IVEdFsTaDwF9HSjcf/3bU5X1RC/aorlwMrAqEUcIWs5oYBuWP37NJ0KBMgaAQQQAABBEIgQAErBJNEiJsKTD5/2eR0e8dvkioXqMgOIu4pm7AggICIlAUhL/51ZemITiou0NR+98xRO9bd4O4F36iiiYoPyAAIILAVAZ1QJ6m/T1nU+catNOIQAggggAACCAxTgALWMOE4rQYCiy2RvjB3VCLp3e6eqB3vIlC3lXmlOwRiL9C79rkNd8VeIegAmYzXtKjzGJXEX9XsIHdn6FZhQQCBGguoyh4Js+umZHPvq3EoDI8AAggggEDkBMpfwIocEQkFRECbnlx+hfhylXuWtnNAYiIMBCInYCbPbyfr+yKXWMQSahp33Odc4eqP7v6Qv7gasbklnUgI1CdUftl8YeeHIpENSSCAAAJbE+AYAlUUoIBVRWyGGp7AHovu3S+dzd3hiX3YPVlz6/D64SwEEBhaQFWfXSk3UsAamqo2LTLXJ9PZzv/1RL/l7gy92gTBqAggUIyA+faD9MLcZ1xb99/VfWVFYAsC7EYAAQQQKE6AB7/FOdGqFgInLE40tXecnLKBm1VlZi1CYEwE4iZgYn+RTMaPW95hyHfigo7d0o1jb1S1uS5enhA7BFYEXhYI5Df3n3SU+//67XS288uyeDGfURfIWSIoBBBAAIEwCVDACtNsxSjWyZevaGh6495f90R/6B4AFj6oPUbZkyoCNRMw3+xnNRudgbco0NTeuX9DUh9U1VlbbDSiA5yMAAIVEVBNuiLW15ue3KfN/XLAq8gYdIoAAggggEBMBPhBGpOJDlWameuTyRfWXuMKV18IVdwEG2+BKGSv8viKtpY7o5BKlHJoyi57p2dW+EuDo6KUF7kgECcBz/z/aWo8/rtxyplcEUAAAQQQKLcABaxyi9LfsAUKJzYt6Ny/eVzjChF7kytgubWwlw0BBKohYL78XURNWIIhkMl46WznfE+8n4tKYzCCIgoEEBiWwEuvxGptas9dKJ9YmhpWH5yEAAIIIIBAhASGkwoFrOGocU5FBNILc0dpyu5wnU90GysCCFRZwMRuqPKQDLclgUuWpprGvudMVTvfFa+23VIz9iOAQHgEVDThHniflp6a+pRkzF0MT+xEigACgRQgKARiJ8APz9hNeTATbsp2nKKe/k5FGoIZIVEhEH0B6/P/Fv0sw5Fh04bk19STc120SbexIoBAlARUzk+Py305SimFNxciRwABBBAIkwAFrDDNVkRjTWdz3/RULxKx+oimSFoIBF/At7+s+MwBDwU/0IhHmLk+mW7P/Vw9/ZwKr9CI+GxHIz2yKFnA/bLOU9GvuP/r33Anq9tYEUAAAQQQQKAIAQpYRSDRpEICJyxOpLMdX1eVL7kRKF45BFYEaiFgrnrsq3yvFmMzpsgrBhPOW7pj87jGX7hns+93Gz+fX4HhOwLRFEi5/+efa2rPfSqa6ZEVAggggAAC5RfgAXL5TemxKAHT9Bv3/qGq/mdRzWmEwJYFODJCAfck6kVNJPjrgyN0HNHpmXvqRtWlFrs+3us2NyXuKysCCERdIOUeiF84ZVHH3KgnSn4IIIAAAgiUQ8D93CxHN/QRboHqRt+cfbA+3Z77uxv1Q25jRQCBGguYyHPdyd4nahxGfIfPZLzmcfl/qMqbhQUBBGIn4JlckV6Y+4/YJU7CCCCAAAI1EgjvsBSwwjt3oYx8wiWPj/btxUtV9M0qkghlEgSNQNQETH4r82b2Ry2tMOQz5YLbxqcbj1/qYj3Ybeo2VgQQiJmAio4StYvTCzvmxCx10kUgvAJEjgACNRGggFUT9pgOmrmnrqHv6R94nn44pgKkjUDgBEzETPXSwAUWg4D2uKhzrJcYdZWqzIhBuqSIAAJbEVDVHVTluqYFS/ffSrNIHSIZBBBAAAEEShWggFWqGO2HJ5C5Ptk0buAmFfnA8DrgLAQQqIiAyVM9rdOWV6RvOt2yQCbjpQb8v7n7xAO23IgjCGxVgINRE1BNaip146Tzl+4atdTIBwEEEEAAgXIIUMAqhyJ9bFVgwiVLRzeNa/yZineQe7LmVmFBAIGACLj/kPcHJJQahFGbIcd+Z+n26cbjblNVXnlVmylgVAQCK+Duk8cmk6k/ySeWpgIbJIEhgAACCCBQIwEKWDWCj8uwExfcMmrUhtRF7oZ2goq5b3HJPCZ5kmboBUyMV19VcRZ3yd69U+OY1N9V9aAqDstQCCAQIgFXxDqgeWrqL5MvX9EQorAJFQEEEEAAgYoLUFCoOPHWB4j60VF1Y36knpwY9TzJD4GwCviiN4Y19jDGPUa83xWenIYxdmJGAIEqCqi80Vuz+r+qOCJDIYAAAghUQYAhRibgjex0zkZgCwKZjJdetPwHvsnxW2jBbgQQCIBAn1d3fQDCiEUI6Wzub6p6WCySJUkEEBipgKqnn0tnO+aPtCPORyBiAqSDAAIxFqCAFePJr2TqzTu8+wtq/sdUJFHJcegbAQRGJNDx2Pw3PDuiHjh5SIGmwmdeZXO/U5U5rrG6jRUBBBAYUsDdWXgq+q1JCzsK9x1Dti++AS0RQAABBBAIpwAFrHDOW6CjbsrmPiUJ75uBDpLgEEBAzOxvMFRY4JKlKR2dPMcVr97tRlK3sUZBgBwQqJaAyrZJ1Z9PPn/ZDtUaknEQQAABBBAIqgAFrKDOTEjjalq47Bj3RG1BSMMnbARiJWCSqNnbB+MC3dRbd76ofiIu+ZInAghUQEBl50TCu21y5no+1L0CvHSJAAIIIBAeAQpY4ZmrwEc6JXt3i3r6KxXhAVblZ4sREBixQD7f1zPiTuhgcIETFiemtHd8TdX/pLtPdOvgzdiLAAIIDCXg7kBUVfZOjB3730O15TgCCCCAAAJRFohxASvK01r93Cafv2yyJ95fVHRU9UdnRAQQKFnApC9vvStLPo8TihJIH7H3hxKmX3T3iYmiTqARAgggMJSAp5+ZcsGyE4ZqxnEEEEAAgcEE2BcFAQpYUZjFAOSQTHq/VtWdAhAKISCAQDECKr969OxZ64tpSpvSBKZkc8eqypWikiztTFojgAACWxZQEc9LeJfICYsTW27FEQQqKEDXCCCAQI0FKGDVeAJCP3zGvHR7529dHjPcxooAAiER6BXv/JCEGqow0+3LZifEfhiqoAkWAQSqJjDSgVRkbPMb975npwvv2WakfXE+AggggAACYROggBW2GQtWvNq0Q8cnRexYF5Z7TOW+siKAQOAFzOT5R1r3Xxr4QEMWYPrC5buLeD8T1R1DFnqYwiVWBBAQ2Wc7v/80IBBAAAEEEIibAAWsuM14GfNtvqDjHV7Cu1BFeCl7GV3pCoHKCmzs/eGNX/lSNoGJC+5tFN9fpiJ7lK1TOkIAAQS2IKDifWdKtuMdwoIAAggggECMBChgxWiyy5nq7u13T7CEd0U5+wxNXwSKQMgF1OyukKcQsPBN65IDV7ji1biABUY4CCAQXQH1RNtFMl50UyQzBBBAAAEENhWoyQ+9TUPgWhgF6iTxYxXbJYyxEzMCcRfIq/wi7gblzL8527nAUym8lbqc3dIXAgggsFUBVdmruf34H0vGeDy/VSkOIoBArQUYH4FyCfADr1yScenHPUhKZzv+U0XmxCVl8kQgSgKFz79asarlr1HKqXa5mDYvWn6KqbTWLgZGRgCBmAuc0LTDvbNibhCH9MkRAQQQQMAJUMByCKzFC0zavnO6qn7VneFqWO4rKwIIhEtA7e+SUV9YRiywR/beN4j5F7s7Qz4HcMSadIBApQUi23/KS+SvnnjpvY2RzZDEEEAAAQQQeFmAAtbLEHwbWmDaxbmdk0n5uWuZchsrAgiEUMBEbwph2IELeY+LOpvq1L/aBVbntnisZIkAAkEV2KZ+Xf9/BzU44kIAAQQQQKBcAhSwyiUZg37WDeh3VGSvGKRKighURCAInfomtwchjjDH0Jx9sD41YD8QMf7iYJgnktgRiJKAyqcmtd99dJRSIhcEEEAAAQQ2F6CAtbkI1wcVaFqYe6t7snbSoAert5OREEBgBAImlpdVqzpG0AWniqnpuitU5S1gIIAAAkERUNFEUryse6ymQYmJOBBAAAEEEBihwOtOp4D1OhJ2bC7QnH1wO03IpW4/D4ocAisCYRUw0d+tzMzZENb4gxD3lGzne9XkPUGIhRgQQACBTQW8pub2zm9uuo9rCCAQbwGyRyBaAhSwojWf5c/mhMUJ31680D1hm1T+zukRAQSqJWDu1/Km3iXVGi+K40y5YPm0hMpPRIXPvYriBJMTAiEXUDHPpfCFSdmOGe47a7kE6AcBBBBAIDAChR90gQmGQIIn0HTEXvcl90gAABAASURBVO/2PP2wi4xXXzkEVgRCLLBBBqQzxPHXNPQJlywd7Xl+oQBYX9NAGByBEAoQclUFNCHyHclcn6zqqAyGAAIIIIBAFQQoYFUBObRDXLI0paLnhzZ+AkcAgf8TUJG1vaN61/7fDi6UJNDQW9euKoeUdFL5GtMTAgggULSAqr493Tju1KJPoCECCCCAAAIhEaCAFZKJqkWY6b7UD1SFv7JVC3zGLLMA3ZlI9+PzZq5DonSBpkXL36VqH3Rnujqg+8qKAAIIBFjA3VG51b7Aq7ACPEmEhgACCCAwLAEKWMNii/5JExd07OYe/bz3/zLlAgIIhFvA938X7gRqE31zNjfRs/xv3P1hQ20iYFQEEECgdAH3C8jJTeMazxMzd/dV+vmcgQACCCAQc4GApk8BK6ATU9OwMuY1pPRWF8M2bmNFAIEICOR9WRyBNKqegqllRTQlLAgggEDIBDyTj0258J+8kj5k80a40REgEwQQKL8ABazym4a+x6bG3HEuid3dxooAAlEQMHl05VkzVkYhlWrmkG7vaFXRwv1hNYdlLAQQQKA8AiqjPeu/1HWmbgvjSswIIIAAAghsIkABaxMOrjRnH9wuofodJBBAIEICav+MUDZVSeXlt1F/wQ3GEz+HwBpWAeKOuYC6O7C3pRd2UIiP+Q2B9BFAAIGoCFDAispMlikPsxfPMJE9y9Qd3SCAQAAEfPHuCUAY4QlhsSXqU97vRHSCCAsCCCAQbgH15PNywuJEuLMgegQQQAABBEQ8EBB4VSDjuV/VffLV61xCYOQC9FB7gaRvd9Q+ivBEMOWJzmNE/BnhiZhIwyBgJr6YrNq4iXWJ20zkicJ1d+yFMORAjOEUMNGD00fs9alwRk/UCCCAAAIIvCpAAetVi6Beqlpc6ezx54vqhKoNyEAIIFAVgV4/dWNVBorAILtnl6YTaj9RUV6tEIH5rEYK5ipRbnvSbVe5CtX5pvI53+SDJonDB0TfYEkZL7Z++/yq7cZ0rVo1fuPWOn3PLrd13/TAxML17lUPjNvQ3zh6XW//Tn4+Mcnvzx8kvn+c+DpfRL9jZoU/wtAjLAgMQ0DFPbpT/WJz9sF6YUEAAQQQCLoA8W1FgALWVnDidKg5m5soKifGKWdyRSAOAu5J9dKHztr333HItRw51kniqyK6nbAgMIiAifpu91Nuu9tMfm6+fGDDOtmj+9lpE7pbW97Z0zr97O75Lef2tLX8vLt16pKVrdPu7/5Uy1NdbYeuWZmZskEycwY2bq6Djesv5+Y3Xs/M7Xv07N3XP/6Zmc/0nDn14Z6zD1jadcaM33edMe3CrtZpX+xum/7+rvnTmnvX5XfLW/4EF8Qv3fidro/VJuJWd4kVga0L7Orbuk9uvQlHEYiKAHkggEBUBShgRXVmS8zL/db4LHcKT9ocAisCURJwT3J/GqV8KpnLlAvvOVbE+3Alx6Dv0Ar0uyrR99T8mevq+qd0jX/g4O62lg92n9Hyi8c+3/KoZNTVlKSyi6o98vkDHl/RdsCvelpb5navWnXg86Prd88P+G8xsd9VdnB6j4CAep6cN+W8uycVlQuNEEAAAQQQCKAABawATkq1Q5py0fJpnmqrirhVWBBAIEICJonrI5RORVNJ+PkLVIWfi8LiBAoFq6tdAfjEPkvst6H/xe27W1s+1dU2fdnj82auk7lz867NVteKH8zMGXjm1H3Wrjxrxg3drdOPf35d/XbmD8z0VU5zv5T6i4n4FY+BAcImkPTqvdPCFjTxIoAAAggg8IoAD9RfkYjx90Teb3Ppp9zGigACERIw0Q1r1z8f1s/Nqd5MmGlTe8cCN+AUt7HGVMBk41vxekzlW/ne/J6uYHVMd1vLjx5um3rfo2fPWh90lmc+v8/a7jMOvKtnfsvFPa3T37E2v36Cu2m3urz+6rYNQY+f+KojoKanT2rPcV9XHW5GQQABBBAoswAFrDKDhq275uzdO7mYP+I21sgJkFDsBXy75JnPH7429g5DADQt7JjpiRbeRs2rUIewiuJhV9wxV7p60UTP6Xo28Ybu+S1fXvGZAx4Ke65PnXnok91t0xa5Qtzbn3t2/XgT+Z7b1rnNrWHPjviHLaAyJmn2nWGfz4kIIIAAAgjUUMCr4djBHzr6Eapo4mKXZp3bWBFAIEICZrZ+fcNOX4pQSpVJJWOeJrzLKtM5vQZewGzAVXPOWtfXP7mnddoXJTO1L/AxDyPAVZlD17hC1qc26IY91M+f6HJePYxuOCUiAqp6TNMlS7ePSDqkgQACCJRPgJ4CL0ABK/BTVLkAm7N37+ie5L61ciPQMwII1ExA9Z+Pz5uwrmbjh2Tgpsbcf6rI/iEJlzDLJOAKOM/5Zuf0qj+pp7VlYeGv/5Wp60B389j8Q57tOuOAH9uL/ZPM/M+5YB9zG2v8BLaRvtRPJGM8D4jf3Fc8YwZAAAEEKinAD65K6ga8b9PUee63cDsEPEzCQwCBYQi4J6e3D+O0WJ2y27duH+epFj4DMFZ5xzlZV7gqvIXu6t5+27+nbfoXHmk94PE4evR8Yebq7rYZ524YlZxmZr8zMYrdwbkhVCUST/TtezQu26cqgzEIAggggAACZRLwytQP3YRMYI/s3fuK2IdDFjbhIoBAkQKj65O/K7JpPJtlrk+O2rbhHy75cW5jjZTA4MmYyd/7ZOOHs7/z0bOn88ojEXn0Y/ut6m6bfryvdfs6n3vcLtaYCLiiZV1KE4VX4cUkY9JEAAEEEIiCAAWsKMziMHKos8RcFV46Pgw6TilOoNdEnhOVx9yD5EdM7c6Nm8jDhX2vbO43//8W0TWvbO4JFH/2XcqyvPD8i2sLxZnhdRaDs5oadzjS3Ub3ikGqsU/RVFb6Zu/tXpU4+uVXXLmpjz3LJgAr5u/70HOyfrYvdrY78ILbWCMuoCLqtg81td89U1gQQAABBBAIiQAFrJBMVDnDnLjgkVHmySfL2Sd9bSoQ8Wt9rtD0qHsGuFTE/uKb/tA8+4xv3ruk36b2rsvvtnaDjOuu6x/fNb9lYnfr9D26508/eOPW2jKpsO+Vzf3mf0KXjdr5lW31mPod1uuGHfO9+cl5s0PyJie4J5/fMpPfO9PbRPUJ9511CAFXGLzz0bNnrR+iWWwP73XeAzuqepe6J2+J2CLEI/EXXQG9vbevcd+etum/kYh+QHu5pnJV26Frelqnn5+3/OHuPveucvVLP4EWSKolWgMdIcEhgAACCCDwGoGgFrBeEyIXyy1Ql3r2RPfEbXy5+6W/aAm4ApVbpV9MXhTRbleoOscG/MNXe4lx3W0tu3e3thzU1Tr9HT1t007tPn36d3va9v9z19nT733k8wc8/uRnW16UeTP7pZilbc9eeXl75tR91hY+ZHjFZw54aEXb9DtWtLX8qnt+y5fdeMd1tbYc1vXMb3bb0J/c0xVornBPsB50sXUXNnf5SVdMW+Muu1il1wUe61dyqepNxdDHtc1A/fovufvAXeKaf9Tzdv//Xd1KVrmC+iGugN726Nm7U8wtYdJXtB2Q617124PN/HPdaQNuY42ygMrcpu/wFwmjPMXkhkBIBAgTgaIEKGAVxRStRmr6vmhlRDblFHDP/PKuIHS1qJw84PkHr+vrn9x10/17u0LVF7rPmrHk6dOn1u7tJZmM/+jZ+3V1t00/uXvVtH26Vk3bq7B1r1o1cWCb7cev9+ommZec6jzebmafcdstrqgVuydgrnq33BmwDiKQXnjnVM/0E4McYldEBNz918Ln19dPLhTUI5JS9dNw97Xd/3jwizYwcKQJr3yt/gRUb0RXzG/QMals9UZkpMoJ0DMCCCAQfQEKWNGf400ynHz+sh1U5ZBNdnIFgcJnVZn82Bf90Is2ZtfutpZjuue3XLny9Bkdj39m5jPyy7n5wCFl1Jf/2+YMrDx5yobH5r/h2e7TXYGrteXvrsj1XbfNtl7ZzQX/blfIulhEbjORDe57pFf1dWWkExxucicsTohX931XnB0z3C44L8gCusbdh53S09Zy1jOf32dtkCMNRWzufr/7rAP/rjbwVhfvHW6L/hrTDFXk6N0W3c4ftIjp/JM2AgggECYBL0zBEuvIBbxk4vOul23cxhpzAVfIec4XuWlA7KiuVP8UV7T6aE/rtJ890bbn01Gi6f5sy1MrWlv+0NXWclrhbYhW179L3uQEEfuTmT0oZs+4fIt7u6NrGPTVTHxrGNMV9DhrEV/znL0PcuMe7DbWCgnUqlsT6+rr753h7sMur1UMUR23q+2A+9ZukLe4+8rrXI6xe0WryzkO604NOvqkOCRKjggggAAC4RaggBXu+Ssp+vHn5sZ4Yrx1piS1CDYufKaVr/PzXmLfnmenzVnZOv3aoj+vKgIcPfNmri58tlZX6/T/pzJm/w0Dqb19tal50bmuoPcLl2Kv22q1jnxcldt75qVXj7yjaPXQmL1tOxuwq1WED26P1tS6uor+zeq2nfnw2Qf1RCy1wKRT+FzDrlXPvdM3/W5ggiKQsgqo73+DV2GVlZTOEEAAAQQqIEABqwKoQe1ydMpLu9i2dVuEV1LbisBteZGPrZLRE7rOmHbhytOnPiGFt+BJbBfratuz99Gz91vVM3/6v1a0TvtlT2vLB9bV9Tf6nh1hIueJydqw6fi+d0HYYq5GvI3e6I+o6g7VGIsxqiPg/o+6VX+Sz+ffR9G2CuaZOQM9bdO+aL7/WRN19f4qjMkQ1RRoaPBHvaeaAzIWAggggAACpQp4rzuBHZEVUC9/nEsu5TbWmAgU3k6mKrebeu/penbVEStaWy5b1bbnmpikP6w0H583c13P6dNv7m5t+exA3t/DzP+WiOVcZ8F/m6HJi2s3rL7axcr6GoEJ5y3d0cy++ppdXAy/QJ8rMF/a9ax36sqzZjwf/nRCk4F1nzHjPLP8R01kXWiiJtAiBWyeZDI8NyhSi2YIREaARBAIkQA/pEI0WSML1ZUwVM8YWR+cHSYB9+Qibwk74cH5LYd2z9//t5KZw2eXlDiBhSfG3W0zvtzVOn26l7QpznShK4SsL7GbqjV38T3xzPr+wMZXNYjNBhpVn/q6iuy82W6uhljAF/+73W0tn5DM1L4QpxHa0HvaZvy0zwaOMrF8aJMg8NcJuF94HThlu+Pe9roD7BhSgAYIIIAAAtURoIBVHeeajzI5u+yNLohGt7FGX6DfFVm+oZbftef06b+JfrrVyfBfn5r+WHdry5nr6wd2HPD8GaLycVcwutaNHphXZqnZDRQq3Yy8di385UGz9752F5fDLWC+fb1n/PSvhDuL8Ef/SNuB/xDVD1t53k4YfpCIZOCl9PSIpEIaCCCAAAIRFKCAFcFJHSylpCQKbx8c7BD7IiJgIoX1jrzJW7vbpn+lq+2ApyOSWqDSKLzFcOXpMzq65rdc6gpaR23oL7wyy2szk8Jb916oVbCFyRd/4KJajR/UcdNH7HWBqu4U1PjKF1cMejI6ymcvAAAQAElEQVTpE9OvdT/33NdkrvLKnwBMeff8ll+Ib6cEIBRCKJ/AEZMzKxrK1x09IYAAAgggUD4BCljlswx0T6ZSeAVWoGMkuBEJ9LsCyq8Hnn3uTSvaWv4xop7ievIw83707MIrs/Zv725rOWZt8oW0b7rAFZOeFJHqvmXT5JGus2be7cZlfVmg6YKle4jqqS9f5VuIBdz/qbz7OZbtapuW4VWGwZrI7jNarnQ/fwofUVDd+7xgMUQmGhUZ6417/quRSYhEEEAAAQQiJUABK1LTOXgyExfcspuaTBv8aPn20lNtBEwsL5o4rWfVb9+/MjNnQ22iYNSCwJOfmv1UT9u0Tz9n6/casPzb3JO6vxX2V2NzTzruqMY4YRpDE3Unungb3MYacgH3f+n73Tc98AWXhqtlua+sgRJwBfysm6PLAxUUwQxbwBPv7D0u6hw77A44EQEEEEAgFgK1SJICVi3UqzxmXXL0qaKSrPKwDFcFAfdMbp2pHNc1f+qlksn4VRiSIYoQWNV26JqVbQfc2L1q2jsGBvwZYnKBif67iFOH3UQT0iEs/yfQdME9e6jZ511hz63/t5sLIRMwcf97VH61NpH4nPxybj5k4ccq3O5VD8x388XnLkZj1uuT/fnDopEKWSAQaAGCQwCBEgUoYJUIFrrmn1iacs/e3h+6uAl4SAH3ROEpr1/375k//U9DNqZBbQQy6q88a0ZHV1vLWS9ssD1NrM3N23L3nLzsH/zum91XmySDOapq/9mucD8mmNERVdECZktXa+Lkp0+fWrPPlys61rg3zMztW9/bP8/dz/0r7hRRyF+9xMfCkQdRIoAAAgjESYACVsRne5ep3g6iumvE04xfeiYvipec/eDZ03ril3w4M37ysy0vdrdOb+9e3n+gn7fZvm9lfcWUDdij4ZSpRNSm7snXhyvRM31WT8DMVnYPrHsTxasKm5ex+8c/M/OZ3n55i+tyldtYwyxg9u7CK1nDnAKxI4AAAghET8CLXkpk9FqBUV5quru+g9tYIyJgJr7v2390n75fV0RSilca35/Z33PmjDt7nkseYgP+4b7IZSLaKyNcepMNFDNfNmxq7/ymiI17+WrFvzFA+QVMZJ358hE5e9b68vdOj5UUKPxhi3ze/6Qbgw91dwhhXVXF87yBU4UFAQQQQACBAAlQwArQZFQiFM/3z1IRtwpLNAT6TezjPWdG6m2D0ZiZUrPITO3rPmvGkp7Wlo/1mu4nJhe7J+3DehWVqVz/2Pw3PFtqCFFs3/Sdpdu7H2wnRjG3WOXky6nufu7mWOUcoWRXnDnjly6d77uNNcQCpt4xIQ6f0BFAAAEEIijgHudHMKvYpTR4wnt8u3Os+w3a0YMfZW/YBFxxw8z0up5Vv7sibLET79YFHmnbv7urreW07menTXIFyq+ayQuF+d76WS8dLbSzAVvw0jW+ypi69ziFCW5jDaFA4fbs+3JZ9xktvwhh+IT8GoGBbbb7tLu6ojCn7jtrKAVsRnP27p1CGTpBI4AAApEWiG9yFLAiPPd12/gHRzi9OKbW9UKvvZ+/Nhjhqc+o3906/eu+v75ZfP2kiK0pItteP5VcWkS7yDeZfP6yHdwPtfMin2i0E7ytZ9cH5kU7xXhkt/LkKRsG8vIBNSn7H62Ih2Dts1SRhIj31dpHQgQIVECALhFAIJQC7rF+KOMm6GIEzJtVTDPaBF+g8Bts9e0/Cx8EHvxoiXCkAivOPPTJ7jOmfX/AS+5tvn1dVJ7ZYp8mXSuf/tVTWzweowOJhJzgin6NMUo5UqmayZPm+yfK3Ln5SCUW42RWnjntDvPkvMLPsBgzhDp1U33fjufcv+1gSbAPAQQQQACBagtQwKq2eBXHM5U3VnE4hqqkgOnvu86YvriSQ9B38ARWnj71ie4zpn/VT23TbGY/dk8CV28epan9kFflOZWMe5osHq/ccRRhXN1t28STz/ecMePBMMY/zJhjcJpa9/yWL6vIfTFINpIpqknj9g29kyKZHEkhgAACCIROgAJW6KasyIAzi+tcy0PdxhoBgQHxvxaBNEhhmAI989Kru9taTrR8/zQz+YF7su+/3NULa0Y3XPry5Rh+ezXl9I73vFtUDnh1D5fCJWC/69552k/CFTPRFisw4OuXi21Lu4AJqKTcfesHAhYV4SCAAAIIxFSAAlZEJz49bp+3qlhDRNOLVVquWPG9h9paOiqSNJ2GSECt58yZD7tC1rz1fb2TRfw5A6IHPXPqPmtDlETFQlU//wUV9zRLWMIm4O7jHu3tX/cxmau8dTBsk1dkvCvPmPZ7N89XFtmcZsESULd8ckJm6ehghUU0CCCAAAJxFKCANcJZD+zpZm8NbGwEVrSAe8D/RPez004XUXdRWBAoCNjjnz74ka7WGTesbJ12f2FH3LfCX8ky1Wlxdwhp/v3uzu3MR8+etSqk8RN2kQLab+eKyUCRzWkWKAFrHLVT8pBAhUQwCCCAQI0EGLa2AhSwautfydF5K00ldavUt/pyiWTcV2FBAIEtCyR+pCK84nTLQIE9YiZ/7Glt+XVgAySwsgl0nT39XhP7Ttk6pKPqCvhyVHUHZLQIC5AaAgggMGwBCljDpgv2iaqyR7AjJLqhBSzX9VziW0O3owUC8RWYckFub1E5Mr4Coc78Bd9LnR3qDAi+JIEXevU7JvJkSSfReBCB6u9S0bdXf1RGRAABBBBAYFMBClibekTjWmZxnYnuFo1k4ptF3pfvSmZqX3wFyByBoQU0Yce7Vuo21hAJmIifFzlzxfx9H6pJ2AxaE4EnP9vyouXtipoMzqAjEjCxaU0X3MMvR0ekyMkIIIAAAiMVoIA1UsEAnt+0XfMb+QD3AE5MCSGZyOr+/LhflXAKTRGoqkAQBpu44JZRnnifCUIsxFCqgD3S+2z/z0s9i/bhF+h5vuVLZvJo+DOJVwYqmlAdODFeWZMtAggggEDQBChgBW1GyhCPl/I+WIZu6KKyAlvt3T24/9SjZ+++fquNOIhAzAXq6sbME7FxMWcIXfomumF9X98Rj2dmrgtd8AQ8coGM+qLyvZF3RA/VFlBP3yUnLE5Ue1zGQwABBBBA4BWBEBewXkmB75sKWOHP1b1z031cC5WAydper+66UMVMsAjUQMDd2c2twbAMOVIB839f+EuaI+2G88Mr0NtvV7hf1PBLmrBNoVnT+IP35g9mhG3eiBeByAiQCAIiFLAidivY7Vt3NKrozhFLK1bpmMq/H7tx+fOxSppkEShRYI8FnU0qclCJp9G8xgImttr85OdqHAbD11jg0bOnPyaq55mIW4UlLAKqO46qz88MS7jEOYgAuxBAAIGQC1DACvkEbh5+/bajJmy+j+thE7D/lV/OzYctauJFoJoCqaR9342XdBtriATMNNNz5tSHQxQyoVZIQM2+74rQoftDJRXiCE23CUl8JTTBEigCCCCAQOQEvMhlFPeETMbHnSDs+ZvKT8KeA/EjUEmBSefft6uo8SqASiJXom+TFzb09XP/VgnbEPbZtWra42Z2RwhDj3fIKm/eJXv3TvFGIHsEEEAAgVoJUMCqlXylxvVsz0p1Tb+VFzCR53rmT/9X5UdihPAKEHlK+48R0e2EJTQC7r4t76uc9PhnZj4TmqAJtLICGfUH8vl5YsKrsCorXdbeVSQx2ktMK2undIYAAggggECRAhSwioQKSzPPjM+EGWqyAnxcRVYEODxCQ6D2ApcsTVlCvuX+r7i19uEQQdECPT11/X8oujUNYyHw0FkH/tMVN2+PRbIRSlJ9e3OE0iEVBBBAAIEQCQyrgBWi/OIXqmlL/JKOTsYm+kR0siETBMovMKU3dZSrXPGHKspPW9EeVbyvybyZ/cKCwOsE7Kev28WOQAuo6rsCHSDBIYBA2QXoEIGgCFDACspMlC+OyeXrip6qLaDir6r2mIyHQJgEPLETwhQvsYqY6S1drVMpUnBjGFRgTSL5U/fLm38PepCdgRQwkZbJ5y/j8WZps0NrBBBAAIEyCFDAKgNioLpQaQxUPARTkoBvsrqkE2iMQIwEJlzy+GhRPTZGKUciVV/lAhF1z3mFBYHXCTx9+tQXxLcLX3fgdTvYERQBFVEvIccJCwIIIIAAAlUWoIBVZXCGQ2BrAqmkrtvacY4hEGeBhr4nP+6eOO0QZ4MR5V6Dk83k4RXPPvvbGgzNkOES+H24wiValQSfgyUsCCCAAALVFqCAVW1xxkNgKwJ+3tZu5TCHaizA8DUUWLw44Yn3wRpGwNAlCphY3sz/lGTmDJR4Ks1jJtD93Kr7xeTBmKUd6nRVbf9QJ0DwCCCAAAKhFKCAFcpp20LQGQv6fG4hcHYjgAACWxeY+Oh+27snuG/YeiuOBklARf/tae/NQYqJWAIq4IqcpnqGiftfHtAQCWtTATOZnL5w+e6b7uUaAggggAACmwiU/QoFj7KT1q7D3cc9sEvtRmdkBBBAoHICdamBVlHZtnIj0HM5BQqFCN/873a1HbqmnP3SV3QFulunXe2ye9ptrCEQUBVPfH+esCCAQIUF6B4BBF4rQAHrtRohv1wnfS0hTyH24Zt4L8QeAQAENhMYf25ujGfy6c12czXAAiry75766Xwwd4DnKJChmSwPZFwENaiA+39+oiy2xKAHg7STWBBAAAEEIiNAASsyUynuV2FyWITSiWcqvvTFM3GyRmDLAqNH6YG8+mrLPkE8YmbXyTztD2JsxFS6QBXP+FEVx2KoEQqYSOPuTy4bP8JuOB0BBBBAAIGiBShgFU0V/Ia++FODHyURIoAAAqUJeOa/s7QzAtc6VgGZiW++XRSrpEm2LALdq1b9zBVFnitLZ3RSBQGrT5o3sQoDMQQCCCCAAAIbBShgbWSIyhdtjkom5IHApgJci6+AqYh+VFjCJLCk58wZS8MUMLEGRCAzZ0BMrglINIQxpIB6nviHDtmMBggggAACCJRJgAJWmSAD0s0eW4yDA6EQcE/V3ZP1UIRKkAhURaBpYedb3H8K/kBFVbTLNIhJ4dVXVqbe6CZmAib5v8Ys5dCm6+6b3Zo4OrQJEDgCCCAQZYGI5kYBKyITO+WC5ePdo4jtI5JObNPw1B8b2+RJHIFBBFTlPwbZza6ACpio3+flbwpoeIQVAoF83m4NQZiE+KrAWyRzfcOrV7mEQHQEyAQBBIIn4AUvJCIajoB5/fsM5zzOCZaAJ14qWBERDQK1FVC1WbWNgNFLEVCxPz3SesDjpZxDWwReK/DQWQf+08yeeu0+LgdXwP2Soa5p3I5b+gzW4AZOZAgggAACoRSggBXKaXt90Enx0q/fy56wCeTFxoUtZuJFoFICTYs69hJRtwlLCARMLJ/XVFsIQg1RiDEN1dMrY5p5ONO2/LRwBk7UCCCAAAJhE6CAFbYZ20K8JjJhC4fYHSIB91vnHUMULqEiUFkB377hBki6bfgrZ1ZPwHTlivn7PlS9ARkpqgL9+YH/NVE/YlObZwAAEABJREFUqvlFLS8VmRG1nMgHAQQQQCCYAhSwgjkvJUelnu5Q8kmcEDgBVW980IIiHgRqIbDHRZ1jPfX4cOBa4A97TLtl2KdyIgKvEahTfVjF1r9mFxcDLKDi7S8sCCCAAAIIVEGAAlblkaszgimFj+pIV3QUM5tU0QHoHIGQCCQG/D1NbFRIwiVMJ+CLLHLfWBEYscCGgQ0vmMkLI+6IDqoi4O6rW6oyEIMggAAC4RAgygoKUMCqIG41u3YPHnibTTXBKzWW2u6FV55Uqnv6RSAsAiryfhVNhCXeuMfpfgbdu6Jt+h1xdyD/8gg8evas9aLSU57e6KXSAqqyw6RsB28jrDR0rPonWQQQQGBwAQpYg7uwF4GaCBSesCcH/ONrMjiDIhAUgcw9dZ7qR4ISDnEUI6C/K6YVbRAoVsAVRf9QbFvaDSJQ5V1Js2OqPCTDIYAAAgjEUIACVgwnnZSDLaCiHw12hESHQGUF0mPzb3Ej7OQ21pAIqHh/lYgtpFNbgQ15/W1tI2D0kgTUO6qk9jRGAAEEEEBgGAIUsIaBxikIVFJAVfYdf25uTCXHoG8EqiAw/CE8fefwT+bMqguYrBp49pnbqj4uA0Za4PEzWx5wCT7lNtYQCKjYbhMXPDIqBKESIgIIIIBAiAUoYIV48gg9sgI7jKnzJ4hENj8SQ2AIAXvTEA04HCCBvPiXrczM2RCgkAglIgImUihiRSSbaKdhqjsMJJ/eJtpZkh0CCCCAQK0Fol3AqrVuNcc3cY/zqjkgY1VQIKUJb34F+6drBAIrMOE7S/dQkf0DGyCBbSLgfvTkLS8XbbKTKwiUTcD+Wbau6KjSAts3aHJcpQehfwQQQGCrAhyMvAAFrIhMsYr+OyKpkIYTUF8+Oen8pbu6i6wIxEpg1JjkZ2OVcMiTVZPn1g94T4c8DcIPqICZdgQ0NMLaTEBFvIRv79psN1dDKEDICCCAQJAFKGAFeXZKis3nFVgleQW8sUpdIpl8d8CjJDwEyiowOXN9g4oeWdZO6ayyAirLnvxsy4uVHYTe4ypgYneFMPf4huzJccKCAAIIIIBABQW8CvZN1wggMAIBNT1dPrE0NYIuOBWBUAnkx+3aKCYTQhV0jIN1vzUx3xILy09Ajwi8JLBCHs+ZCp+v9hJH4L+qyGETF9zCB7kHfqYIEAEEEAivAAWs8M4dkUddQGW/pv3r+CysqM9zJfILaZ/10nu0e7I6OqThxzHsp3rapl4Vx8TJuUoCbcf0mtlNVRqNYUYu4KWSDXuNvBt6QAABBBBAYHABCliDu4Rur3re86ELOsABByE095tMVbW2IMRCDAhUQ8BEzijc7qsxFmOMXEDF7hRRN23CgkDlBEyvrlzn9Fx+gcSe5e+THhFAAAEEEHhJwHvpW9m/0mGVBUzshSoPyXBVEHBPDSen2zu+4oZyz+vdV1YEIiow5by7J7kbOX99METza6K3hShcQg2pgC/C7SxEc+cet1DACtF8ESoCZRSgKwSqIkABqyrMVRjE93nbTRWYazGEin5tygXLeWJfC3zGrJqA1idmVm0wBiqLgFr+5rJ0RCcIbEXAVJ7cymEOBUzAS8gbAhZSiMIhVAQQQACBoQQoYA0lFJLjJvJ0SEIlzGEIeJ7/Q8ncUzeMUzkFgVAIeGKzQxEoQb4i8GKXbMsrY17R4HvFBPqf7S++gFWxKOi4WAEzmVpsW9ohgAACCCBQqgAFrFLFAtrefOkQlsgKqMqBTeMGvhPZBEks9gIm+qbYIwQAoIQQrpe2PXtLaE9TBIYl8Hhm5joR7RaWUAioyV6SyfD8IhSzRZAIIIBA+AT4ARO+ORs04p4zZ9zpDrzoNtaICniirVOyuSMiml5U0iKPYQhMPn/ZDu60GW5jDYmALz4frB2SuYpCmKby1yjkEYscVMbs3vjeKbHIlSQRQAABBKou4FV9RAasmICJ/rNinVetYwbaikDSU/tjc3Z5eittOIRA6AQSyeSRKuJWYQmNQPKO0IRKoOEXyNsN4U8iPhmkJN8Sn2zJFAEEEEBgZAKlnU0BqzSvQLdWsX8FOkCCG7GAim4vatc0LVzGX/kZsSYdBEVA/fyRQYmFOIoT8Mx/oriWtEJg5AK9yeTSkfdCD1UTMJtWtbEYCAEERDBAIEYCFLCiNdkPRisdshlcwJrF0x9PXHBv4+DH2YtAyARU+atVYZoyk76uVYmnwhQysYZb4NHT9+tyGQy4jTUEAurpPiEIc5MQuYIAAgggEA4BCljhmKfiovTtvuIa0irsAp7oIfWpgVvlkqWpsOdC/AiYymRhCY+Ayt8kM7UvPAETaRUEqjHE6moMwhgjF1DRXUbeCz0ggAACCCDwegHv9bvYE1YBE4+/0hPWyRte3Hs296X+sXf73ROGdzpnIVB7gcn/c0fhic5OtY+k1hGEZ/y86OXhiZZIIyNgsj4yuUQ8ETMZF/EUSQ8BBBBAoEYCFLBqBF+JYftT0lOJfukzmAIqGz/0+pAB8365e3YpH+wuLGEUSDTUz3W35UQYY49lzCZ99uyzf4xl7iRdUwETebGmATB40QKqwkccFK1FQwQQQACBUgQoYJWiFfC2D5827TkxeWa4YXJeOAVUdVa9pm6cePEDu4UzA6KOucBHY55/uNJXeWRlZs6GcAVNtFEQUOUVWGGZR1dsLLwCy/1uIiwREycCCCAQT4EwZk0BK4yztpWYTeWBrRzmUHQFdqsf2LC8acHdb4tuimQWNYGdMvdsIyozopZXlPNxT0wfinJ+5BZcATPJBzc6InutgKtc1acvvItXhr8WhctRFSAvBBCosgAFrCqDV3o4FftXpceg/2AKuAeMYzWV/GNTe+dZwYyQqBDYVGDMuA0T3e2Wn0ObsgT6moktDXSABBdhAeMzsEI0u5b3DikuXFohgAACCCBQvABPHIq3CkVLM/1nKAIlyIoIuAJmgye2IN2eu2Ly+ct2qMggdIpAmQTUknuUqSu6qZKAil5bpaEYpliBmLRTVT8mqUYiTU+82ZFIhCQQQAABBAIlQAErUNMx8mCUtxCOHDEaPXw0mfTu2eOizqZopEMWURTw1KYHIS9iKF5g/bP9txXfmpYIlFPA+Oy1cnJWuC8TObjCQ9A9AggggEAMBShgRW3SVZ+OWkrkU7qAirhVdkvlbUnzwtzHpLILvSMwTIHEG4d5IqfVQMBMnnw8M3NdDYZmSAQQCJuAylRZvDgRtrCJFwEEEEAg2AIUsAIxP+ULos+TJ8vXGz2FXcBVsXYxT76Xzuau3C2bmxj2fIg/QgInuCc2ZrzFJERT6u5PngtRuISKAAI1FHD3F/W7PTWJjzKo4RwwNAIIBFmA2IYrQAFruHIBPW8g0feEibg1oAESVtUF3IPIhKp8dJTIfen23FvczcPtqnoYDIjAJgJ7HNG8t7td8uRmE5WAX1HlZ0vApyji4fVFPL/IpZfwRm0fuaRIKDgCRIIAArEUoIAVsWl/fN7MdWp2Z8TSIp1yCKhs67r5c7q98+c7nnNz4bK7yopAbQSSmuTzr2pDP+xRzXxegTVsPU4cqYCrng6MtA/O31Sg0td0wKeAVWlk+kcAAQRiJkABK4IT7h7k/TCCaZFSGQRUpMFt799+9DbL09llJ0nGuA8ogytdlC7gmX9g6WdxRi0FVHVlLccP4NiEhAACWxFIqVHA2ooPhxBAAAEEShfgyWvpZoE/Y/2qgR+LCS+1D/xM1S5AFZ2k6l3e3Ji7elJ7boqIae2iYeQ4Cph6+4jEMfPw5uyL/Cu80RM5AghUX8DbrvpjMiICCCCAQJQFKGBFcHYfL/yVKJWeCKZGSpsLjPC6qb49JdKZznaeI4uNvxY0Qk9OL0XA9iylNW1rL6C+PFD7KIgAAQTCImB5f3xYYiVOBBBAAIFwCMS+gBWOaRpGlCb3DOMsTomZgIq4VbZRlc+mn8j9s6k9d5osvqdOWBCooMCESx4f7W54kys4BF1XQMBX4xcjFXCly2IFdEOxLWkXDAFNeLsFIxKiQAABBF4V4FK4BShghXv+thi9if/nLR7kAAKDCKjqnq6osKj5ifyN6Qs75kjm+uQgzdiFwIgFGtY/9RbXScptrOERsN76URSwwjNfkYvUE1sTuaQinpCZ7hLxFOOaHnkjgAACNROggFUz+soO3J9M/N6N4LuNFYGiBVRE3b9D1de/NzU23rVL9sGdhAWBMguo5x9Z5i7prsICJvLg4/P2fqbCw9A9AjERiEeaav6O8ciULBFAAAEEqiVAAata0lUe5+HTpj1nJndUeViGi5CApzJtjK57pDmbu7ppQef+EUqNVGoqYK5ImnhrTUNg8NIFfP+XpZ9UwTPoOnYCvtj62CUd8oTN4xVYIZ9CwkcAAQQCJ0ABK3BTUr6ATP3ry9cbPcVRQEXqReUoTfm3NWeXXzTlguXT4ugQxZxrldOO5zywjZg01mp8xh2eQN7z/zG8MzkLgTIJmK4tU090Uy0BE16BVS1rxkEAAQRiIkABK8oT7cvNUU6vxrnFangVHS3qf8pL+Mua2jsWjD93yc4iprFCINmyCDRst2E7VR1Vls7opGoCXl3q8aoNxkAIIBAJAVV+WRGJiSQJBBBAIEACNSxgBUghoqH0Jvpud6nxOVgOgbU8Aq5i5anomds0jLm/Obv80qZLlm5fnp7pJS4CXr+/vZg/Oi75RibP9fmGyORCIiEV0O1CGnhswzbRcbFNnsQRQGAQAXYhMHIBClgjNwxsD4/NP+RZMf15YAMksFAKqIj7paqOFbVTtK/u/qZs7vwJ371jd2FBoAiBpHj7uFsQf+GyCKsgNdGEd3qQ4iGW+AmoSkv8sg53xirmNWdvo/BYzmmkLwQQQCDmAhSwIn4D6Pf6FrgUB9zGikDZBdyD0108lTNHp+p7mrOd/910wT17lH0QOoyUgJocEqmEYpKMK1yf2JTtOGXCeUt3lEuWpmTx4sTGtxFnMt7Gy4XrbAks3O2izLeDiQseGTUl2/EOk/Lcd8Tkv2xg0lwvoyhgBWY2CAQBBBAIvwAFrPDP4VYzePHFDQ+KyRNbbcRBBEYqoJI0ta9oIv/PdHbZlY38xnWkotE939OZ0U0u2pmp6A9G16VWNvelHk0/sVdXc3tuebrx+PsKl9n26sKgMgYNqece9VSvUhHexhrCu5hkfmDbEIZNyAgggAACARWggBXQiSlXWM98/vC1pvrbcvVHPwhsScA9uVC3jRb1PtIoo1Y0ZTt+0rSoY68ttY/v/thnfnDsBUIKoCqeqIwRkZ1VdbKI7qcqe6u7zKaTMaiMgYg1qkhCWEIpoJrkFVihnDmCRgABBIIp4AUzLKIqp0Ai6Z9jIhvK2WdN+2LwQAuouKe4Ko3uN+Yf8kw7mxbmLp2S7ThYMsb9jcR7SZ+7ZGd3+9gm3gpkjwACCMRHIKEyNj7ZkikCCCCAQEUEXtMpTyhfgxHVi//61PTHVPQfUc2PvAItUFywQzUAABAASURBVO95cmpC9fZ0Y+7GKefdN2njZ8QEOmSCq5SANWw7vlJ90y8CCCCAQAAFPOOvFQdwWggpfgJkjEBUBChgRWUmh8gjL/a/QzThMAIVFVDVw736vu7mJ/bKpduXv98Npm5jjZGAmb9rjNIlVQQQQCD2AupbVD4DK/ZzCQACCCAQBAEKWEGYhSrEoHX9vxKTVVUYiiEQ2KKAiiZEdT8R/+fpbK4znV322ckX3rHLFk/gQKQEEprYOVIJkQwCCJQgQNM4Cvjq8bbxOE48OSOAAAIVEqCAVSHYoHXbM2/mal8la+LKWEELjnhiJ6DiylgqU1W9/0nm67vS7Z1fm7LovklywuKEsERWwCw/PrLJVSMxxkAAAQRCJuCp8BbCkM0Z4SKAAAJBFqCAFeTZKXNslu/7hSsc9JW5W7pDYGQCG/+qmf1nwu//V/qIvW9IX5ybOrIOt3w2R2or4O5/JtQ2AkZHAAEEEKiugFLAqi44oyGAAAKRFqCAFenp3TS5FRNmdrk9d7ttuCvnIVARAVfYUFGpU5XDtV/uamrP3djc3vHhiQtuGVWRAem0JgKmMqUmAzMoAggggEBtBJTPwKoNPKMigAACZREIXCde4CIioMoJzNX8gOef5gbodxsrAsEUUKnzRN4ooj+uT43pmLIo97H0xTk+O0nCv6h4ewsLAggggEBsBHzjLYSxmWwS3YIAuxFAoJwC7nliObujr6ALrDx9RoeJLA16nMSHQEFARfZKmPxAB+TJ9KKO8/a4qHOsiLndhaNsYRLYd/E9dSa2T5hiJlYEEEAAgZEJeFaGtxCOLATORgABBBCIkAAFrAhNZtGpmF5edFsaIhAQATX9dCpv3c3tuWsnXbj8DQEJizCKFNjw7/wRrvLIz5wivWiGQDkF6AuBWgm4X5ryVwhrhc+4CCCAQAQFeDIRwUkdKqX1q/p+6h5QPDRUO44jEDQBVwAZK6JvT/l+Lp3t+N/JF3QcKZnrk8ISeAHPkyMCH+SWA+QIAggggMAwBFTF/dwexomcggACCCCAwCACFLAGQYn6rsczM9eJ2Hejnif5BUmg7LGkVHVuMqHXpMc13j1l0bK3jz83N6bso9Bh2QRMdHbZOqMjBBBAAIFQCJjIDsKCAAIIIIBAmQQoYJUJsuLdlHkANf8XJpYvc7d0h0DVBVRk/4R5V21TL/ek2zuPkxMWJ6oeBANuXWDjq+Rs/NYbcRQBBBBAIGoCarZT1HIiHwQQQKAqAgwyqAAFrEFZor+zq+2Ap10Bq839Zsyt0c+XDCMvkFSVySr22+Y37rV0SrZj/oTM0tHCEgiBidvVp8R4G0kgJoMgEEAAgWoKqCR3b79/QjWHZCwEXhHgOwIIRE+AAlb05rTojDzb5jIV7Sn6BBoiEAoBnZ5QbR89LrUyne2clz43t7Ow1FSgt347NyW6XU2DYHAEEEAAgVIFytI+MbB+r7J0RCcIIIAAArEXoIAV45tAV9uevb74F8aYgNSjLbCTqn1PG/ShQiFLxDTa6QY3u+3z9e5njY0KboREhkClBOgXAQSSCW1CAQEEEEAAgXIIuCcV5eiGPsIq0FM3sMg9se8Ia/zEjcDQAtYgahens7l/pttzn5m44BEKKUOjlbWFX+8VioepYXXKSQgggAACoRZQpYAV6gkkeAQQQCBAAhSwAjQZNQll3sx+P6/fqMnYDFoVAQYRcdUT9/hZ93bfz61PPntfU/buTzVd0r29sCCAAAIIIIBARQXMbHJFB6BzBBBAAIHYCFDAGnqqI9+i58yWX5vI1W5za+TTJcGYC7hK1mRPExdp79oHp2RzxzZnH6yPOQnpI4AAAgggUDkBVQpYldOlZwQQKL8APQZYgAJWgCenmqH1J3S+mrxQzTEZC4FaCrhC1k4Jsd+IrrtzcrbzTcJnZNVyOhgbAQQQQCC6ArtENzUyG1yAvQgggEBlBChgVcY1dL0+fNq0HjFZ4ALnVVgOgTUmAqpJl+n+SbUbmrOdv08vXDbLXWcts4DXv3ZimbukOwQQQCDaAlHKzqReLlnK5yBGaU7JBQEEEKiRAAWsGsEHcdiuM1oyrnp1VxBjIyYEKi6gcqx4elNTtvOypkUde/GKrDKKJ6ROWBCosgDDIYBAMARMJbnTv9fydv1gTAdRIIAAAqEWoIAV6ukrf/CW7z+r/L3SIwLhEFDRhKd2ipqXS7cvXyiZTJzvI8s2aX6/TShbZ3SEAAIIIBAqARVJjNp5HK/ACtWsESwCCCAQTAGenAVzXmoWVc+ZM28W375TswAiNTDJhFVAxRrc1ppuPO7+dLbz45K5h1cQjWQyNbHzSE7nXAQQQACBEAuYJPoGBgpv2Q9xEoSOAAIIIBAEgWAXsIIgFMMYNuRT57q0V7iNFYFYC6jqnqr2/eZx+ZvS7bm3iJnGGmSYyavJbsM8ldMQQAABBEIuYGqJ+rxPASvk80j4CFRFgEEQGEKAAtYQQHE8/OjZ+616wfKHmMiGOOZPzggMInCI2/fXpvbOX+32rdvHucuspQioNZfSnLYIIIAAAtERUNFEQoW3EFZpShkGAQQQiLIABawoz+4Icnui7YCnxeTCEXTBqQhESkBF1FN5T8O2o5anF+Y+IyzFC5jyVwiL16IlAgjUVoDRyyxgZokBv45XYJXZle4QQACBOApQwIrjrBeZc/eqVV/wxf5SZHOaIRALARXbVTz5n3R7553N2Y538NcKh5529fx9hm5Fi+gIkAkCCCDwGgFVrUuq+z3Qa/ZxEQEEEEAAgWEIUMAaBlpsTsnMGch7iTNcvi+4jRUBBF4WcI/C3SNxmymq1zZlc+3N2bt3evlQeb5FqZcTFifElM/AitKckgsCCCBQgoD7mZnozwt/DKUEM5oigAACCAwuQAFrcBf2vizw0On7/9P35TgR6XdbaFYCRaBaAqp6mkli+ZRs7thqjRmmcSa8rWlsmOIlVgQQQACBMguYaR3lqzKj0h0CCCAQT4EtFbDiqUHWgwr03PzADXmziwc9yE4EYi7gfrPsalgyPqHyh3Q2d/U+izr2ijnJJumP7q3ffpMdXEEAAQQQiJWAqXp53/gMrFjNOsmGUICQEQiFAAWsUExTjYP85dz8iraWM83slhpHwvAIBFpAVY7qN70tvTB34sQFj4wKdLBVCs73BxqrNBTDIIAAAggEUMD9oscz82LwnCOA+ISEAAIIREyAHyYRm9DKpaPWP+B9RMz6KjcGPSMQfgH3QH2senJFQ+q5Wyect3TH8Gc0sgzMS/IWwpERcjYC8REgUwQQQAABBBBAYCsCFLC2gsOhTQUePntaj6ke7fbyeVgOgRWBrQtYy+iG1D+bF+W+KIstsfW20T3qaZ4CVhWnl6EQQAABBBBAAAEEEIiqAAWsqM5shfLqbm253vflv1z3A25jRSBqAuXNx2RHM/lm+onOXzctXLZneTsPSW8mO4UkUsJEAAEEEEAAAQQQQACBAAtQwArw5AQ0NOs5o+Xb7kn5n1185rbNVq4igMBrBVREVeXdnufdPbn9niMlk4nX/a7K7sKCAAIIIBBrgYQMjI81AMkjgAACkRWobmLxeiJVXdtIj9Y78OIHzOzWSCdJcgiUV2CbpA38qXnscdfseM7N25a36yD3prsEOTpiQwABBBCovIAlvdi+lb7yuowQegESQACBogUoYBVNRcPXCjx69qz1kkid6IpYz7x2P5cRQGArAqpJ8fTt24/a9uYpizrfuJWW0Tlkslt0kiETBBBAAIHhCOQH7LnhnFfsObRDAAEEEIiHAAWseMxzRbLsPn2/Lt/vP1xM1lZkADpFIKICqjLN8/1rmrIdp0j2wfqIpvlKWrxt5BUJviMQXAEiQ6CiAiqJ9cKCAAIIIIDACAUoYI0QMO6nrzjzoAd83z5oIn7cLcgfgVIEVHWUp3pZWtf9aeKCW0aVcm6Y2qpYTN5CGKZZIVYEEEAAAQQQQAABBMInQAErfHMWuIh7zpz+J/dk/LOBC4yAwiUQ02hV5G0NqW2WTlqUOyCKBKY6Nop5kRMCCCCAAAIIIIAAAghUV4ACVnW9KzpaLTvvmj9tgYmc5zZeiVXLiWDskArYvilfbmjKdn5ITlgcmQ+63W3R7eNcgS4y+YT0xkXYCCCAQE0F3GNDt/bVNAYGRwABBKIoEMecKGDFcdYrlHP3TQ98QU3+7B6lUMSqkDHdRlhAZVtP7SdNb9z7680R+VyseqkfF+EZIzUEEEAAgSIE1CyfTKSoYBVhRZOqCzAgAgiETIACVsgmLNDh/nJuvqu+/70i9odAx0lwCARYQEW+YLruT5K5PhngMIsLbcC2L64hrRBAAAEEwilA1AgggAACCFRPgAJW9azjMdK8mf39Ce8UMfljPBImSwTKK+AKWOq2tzWPG5drWrhsz/L2Xt3eTBKR/XD66koyWqQFSA6BqAuo5vMDAwNRT5P8EEAAAQQqL0ABq/LGsRvh4dOmPdeX1BNF9S4TV8qKnQAJI1AOAdtXE96dU7K5I8rRWy368BL5xmqMyxgIIIAAAsEVcI8F/X7N+8GNkMgQQAABBMIiQAErLDMVsjgLRayuzr7DVCQXstDjGC45B1RATbb3VP4ypT33/wIa4tbD8r2GrTfgKAIIIIBA1AXcY8F8ypf+qOdJfggggAAClReggFUWYzoZVOD7M/ttgxzpfvP290GPsxMBBIYUcA/86xMii5sXdpwtZu7qkKcEpoGKv01ggiEQBBBAAIGaCLjHgfn+hMdbCGuiz6AIIFAZAXqtlQAFrFrJx2Tc7s+2PJVf3/shl+4d7gGMW90lVgQQKFWgXjz9bnpRx5dksbl6Vqmn16i959XVaGSGRQABBBAIjoBfl0xQwArOfAQjEqJAAAEEhiFAAWsYaJxSmsDKzx38RNeziSNUZJmrYLm1tPNpjQACLwmoeN9oejL3AzlhcSiKWL7ptsKCAAIIIFARgbB06h7/DfSb8hbCsEwYcSKAAAIBFqCAFeDJiVRomal9q73Em0z0V5HKi2QQqLKAeyLw0fQRe/1KMvfw6qYq2zNc5ARICAEEqiBgIvn15lHAqoI1QyCAAAJRF6CAFfUZDlB+T58+9YUXN9jJvshlAQqLUBAIlYCKJlT1uOax+fObs1fV1zb4rY+uasmtt+AoAggggEDUBVRkYPv8wxSwoj7R5IcAAghUQYACVhWQGeJVgSc/2/Jiz/xpHzfTH4hJ36tHYnqJtBEYroAnp4lOvFQy1we2SOR+wOww3PQ4DwEEEEAgGgJmMtDVdkxvNLIhCwQQQACBWgq45xe1HH7kY9NDCAVUrbtt2ifyop8uvKw8hBkQMgKBEDCxDzY3Nv4xyEWsQEARBAIIIIBAzQRU5d81G5yBEUAgcgIkFG8BCljxnv+aZr+ibdoiEX2fK2KtExYEEChZQEU8U31Hety4C5sD/nbCkpPjBAQQQACBSAiY6VORSCQ6SZAJAgggEFoBClihnbpKlOVjAAAQAElEQVRoBN7dOu13edEDzexf0ciILBCoroCKeW77hHkTF8piC8VfJ6yuEKMhgAAC5Ragv1IEVPOPldKetggggAACCGxJgALWlmTYXzWBla3T7u9u+90bXBHr5qoNykAIRExAzealn+i8PGJpkU5UBcgLAQRiI+BLois2yZIoAggggEBFBShgVZSXzosXyPir1zccY6JfNRG/+PNoiUA8BQbLWlX+o2lRx1fFTAc7Xu19LopV1R6T8RBAAAEEgiWQEHkyWBERDQIIIIBAWAUoYIV15iIY9zOf32dtd+u0b6hvJ7n0Kv1yczcEKwKRE0h5pv+dbr+nNQiZ+b5SjA7CRBADAgggUEOBfN5/uIbDMzQCCCCAQIQERlDAipACqQRJwLrOmP7jXskfbGb3BSkwYkEgLAKq/sKmbOeHah2vqlitY2B8BBBAAIHaCqQSfk9tI2B0BBAojwC9IFB7AQpYtZ8DIhhE4JHWAx7P52120vNuGeQwuxBAYAgBT+ziKdl7WoZoVtnDfv75yg5A7wgggAACQRd44KYu3kL4yiTxHQEEEEBgRAIUsEbEx8mVFFh51ozn70/2vtlMflPJcegbgUgKqGzraf629MLc1Frlp6oDtRqbcRFAIJoCZBU2AV0jv5ybD1vUxIsAAgggEEwBCljBnBeiekVg3sz+7rZp7xOTX5q4r6/s5zsCCAwpoCIN4snvd8vmJg7ZuAINTI0Pca+A6wi75HQEEECgagLusRuvxK2aNgMhgAAC0ReggBX9OY5Ahmpdu0z7gIn/3+6BEL/Fi8CMhjuFcEXvilhNo1R/WouoTb21tRiXMRFAAAEEgiHgfga9EIxIiAIBBBBAIAoCFLCiMIthy2E48c7VfE/r9K+pysFmcttwuuAcBOIrYG9Mt3f+VjLXJ6tp4A8IT1yqCc5YCCCAQOAEjF9kBG5OCAgBBBCoskAZh6OAVUZMuqq0gFrX/Ja786tWzTGR80x0Q6VHpH8EoiNgxzaNHfsxl4/7hbj7WoU1kRp4tgrDMAQCCCCAQHAFeAthcOeGyEIkQKgIIPCSAAWslxz4GiKBlZk5G7pbWz77og3sYWJdxmdjhWj2CLVWAq5qlfA8vXhKtuPt1Yqht76Bz8CqFjbjIIAAAkEUMD8or8AKog4xIYAAAgiUKEABq0QwmgdH4Im2A55eXzfQ4p6Yz3eFLD4bKzhTQyQBFkiI/rRaH+r+6Mf2W+UKzPzfDPDtgdAQKF6AlggMQ0C91cM4i1MQQAABBBAYVIAC1qAs7AyLwOPzZq7ram25qN/PH+Jivsk9WXaru8SKAAKDC6jsOErl12Lmar+DNynnXlV5opz9hbovgkcAAQTiJqDyZNxSJl8EEEAAgcoJUMCqnC09V1Hg4TMOvMsVst5kYl9yFazVbnNrFQNgqKoIMEjZBA6e0t55jmSs4j8DzBc+B6ts00ZHCCCAQLgEfJGnwxUx0SKAAAIIBFmg4k9egpx8DGOLfMo9rdO/4+e9vcXX5ZFPlgQRGIGAp/KZ9LjlR46gi6JOVZWHi2pIIwQQQACByAl4ee2PXFIkhAACCIRHIHKRUsCK3JSS0Ioz93+y+7nfzPDN/7Dxmz9uEAgMKqAibpUfpi+8q1kquJjaMxXsnq4RQAABBBBAAIEKCrzatam/5tVrXEIAgVoIUMCqhTpjVl4gk/F72mb8dL3nHWiivxPRXmFBAIFNBFRsF/GTWZEKfh6WySObDMoVBBBAAIF4CZAtAlER8O35qKRCHgiEVYACVlhnjriLEnj89P0f6W6ddvyADRTeKvVCUSfRCIEYCajI0ekLln+sginz+ScVxKXreAiQJQIIIIBA7QXUk8drHwURIBBvAQpY8Z7/2GS/su2AG8XyTSb2VTEbiE3iJIpAMQIJ/7zJ5y+bXEzTUtuoH4i/QFVq2LRHAAEEECiLgM8vMcriSCdBEDDz+MM0QZgIYoi1AAWsWE9/vJLvajvg6e7W6V/Pi77FFbJucNmb21iLEqBRlAVUdLtEwrtscub6hrLnqcLL7YUFAQQQiKeAe7z1aDwzJ+tICphtiGReJIVAiAQoYFVrshgnMAIr2lr+4QpZc0y8M0RsjatiuTUw4REIAjURUJW3JMaO/XjZB8/7a8veJx0igAACCARewD24shfVHgx8oASIQJECiVR+dZFNaYaACAYVEaCAVRFWOg2DQHfr/u0b+lNTzOxnLl73OMt9ZUUgzgIqX2u6ZOn25STwU7zcvpye9IUAAgiESODRJ9oO4C2EIZqwoIUatHh8SzUGLSbiQSBuAhSw4jbj5LuJwKNn77eqp236h8W8ozzVpa6K5dZNmnAFgdgIqOoO2pv6uWQyZfvZ0P+izx9PiM0tiEQRQCBgAjUNR8VurGkADI5AmQXMBnYqc5d0hwACJQqU7UlKiePSHIFACXS17X/dv57Z/xBV+bKrYBU+r8F9C1SIBINAVQRU5K3psXP3LddgltrwXLn6oh8Eqi/AiAggMGwBnwLWsO04MZACZt6OgQyMoBCIkQAFrBhNNqkOIZBRv2t+y7e750/bw/ftHFfB8oc4g8MIRE9ApU68vjsml+kD3R89e9Z6Ee0TFgQQQACBWAkMqHdPrBIm2cgLJETHRT5JEkQg4AJewOMjPASqL6BqPWdM/2JedD/f5GIXQL/barYyMALVFlDRUV5j48llG9fkn2Xri44QQAABBEIhYPnUQ6EIlCARKFLAN9Mim9IMAQQqJBCHAlaF6Og26gIrW6fd39PWcpqf92eLya9MdEPUcyY/BF4R8NT+c8IlS8vyUnlTe+yVfvmOAAIIIBB9AfeY6ZGHztr3iehnSoZxElDxeAWWhGIhyAgLUMCK8OSSWnkEes6ccWdXW8sJG2zdnma2xBWz+kzc1/J0Ty8IBFRAJ4zqTX27HMGZCb+FLwckfSCAAAJhEDAb8D3/Yy5U93DJfWUNoQAhI4AAAsEUoIAVzHkhqgAKPNZ26KPdq55780DeP0RNbjdRPiMrgPNESOUTUNXj5ZKlqRH3qPrwiPugg0AImIjvyveFzzQr/HVJNhEMMBj8NhAPlw0b7w9M+l757u4jnvRNWlecPv26QNxpEQQCCCCAQKQEKGBFajpJpuICmTkDK8+a0dHV1nKYWf7/ufH+5DYKWQ6BNYoCNi7dn/z+SDNzBV/eRjJSxBqfbyZPutLVx/MDdenVicS4rtaWbSu90T/G3AaCfRsYeHbV2ML9wWu37tZpu/acMf17Nb7LYngEEEAAgYgKUMCK6MSSVuUFetpm/Nk9uD62oc7byze7zv3WcV3lR2UEBIoWKE9D8/4jveCu5pF0ZpJ/eiTnc25tBazwatOkvrPrjJZLV571hpVPnz618IqT2gbF6AggUHOBlZk5Gwr3B6/dRNyvLIQFAQQQQACByghQwKqMK71GQqC4JO6Zt393z6rfHe1rfl8z/y4TcWtx59IKgeALWL3UJT45kjiTYo+O5HzOrbWAbVhj3gO1joLxEUAAAQQQQAABBOItUNkCVrxtyT5OApmMv2L+AQ91r/r9wX4+/2YV/a2YDcSJgFyjKaAiqqafnNSemyLDXAbqk7zNdph2QThNTZLWkHQ3hSBEQwwIIIAAAgggEFgBAkOgwgIUsCoMTPcxEygUss484KYHW6e9p0/8FjP7sRPg7TYOgTXUAmNc+eJTw83A1q97arjncl4ABFTqRvf27RSASAgBAQQQiLwACSKAAAIIbFnA2/IhjiCAwEgEHm474L7utukfXfXs+t18sT+bSK/b3DqSXjkXgRoJmHxAMplh/czQUTttqFHUDFsmgdSA//YydUU3CFRagP4RQAABBBBAIKICw3oyElEL0kKgIgKrMoeu6Wmdfqx4A1NF7L9MbHVFBqJTBCoooCITm3Y8ft6whnjuOXGVW95GOCy8Wpw0yJiqbx5kL7sQQAABBBBAAAEEEKiaAAWsqlEzUMwFrPv0A7u6W6d/PT9gk32xT5nJUmfC52Q5hMitEU1ITc6cfPmKhlLTW6MbfBVZV+p5tA+UwJxARUMwCCCAAAIIVFtA/bXVHpLxEEBgUwEKWJt6cC0gAlEOY+VZM57vaZ3+ve62loP6fe9NrpD1N5fvCyaFF6m4S6wIBFRAzZp09aq9Sg2vITVpwEx50FcqXIDauwLk+B3PuX/bAIVEKAgggAACCFRVQEV7qzoggyEQI4FiU6WAVawU7RCogMBDZ+x/S3frtLfn816zmH5VlCf5FWCmy3IJqCY1kTq31O4eHfPkgKo9X+p5tA+WwNht+SD3YM0I0SCAAAIIVFXApL+q45U2GK0RiIUABaxYTDNJBlrAPbNfceb+T3a3TfvGKn/dRFN7j5kUXpXFD8lAT1w8g/PE3tHU3rl/SdnPm9lvpj0lnUPjwAn09xl/iTBws0JACCBQPgF6QmDrAnnf1my9BUcRQKDSAhSwKi1M/wiUILCq7dA13fOn/7a7reVt7hn/Ib7pT03kObe5tYSOaIpABQVU/ONK7d7E/0ep59A+WAKe6rhgRUQ0gRMgIAQQQAABBBBAoIICFLAqiEvXCIxE4KG26ct62qZ9uLu1pVFMv+kqWLzvfiSgnFtGAT2p1M58yd9Y6jlxbB/knD3xKWAFeYKIDQEEEEAAAQQQiLgABayITzDpRUOgu23aV/ID/i75vLzbTB6ORlYVyYJOqyCgIk1NF3S8q5ShVq5as9TddteXcg5tgyXgJ2RCsCIiGgQQQAABBKon4CVlB2FBAIGaClDAqil/EAcnpqAKFP564YozW/7Q/Y8HmvIiHzORW93mBzVe4oq2gHr6sZIyzMwZcO0fdBtrSAXUdHJIQydsBBBAAAEERi5gwl/jHbkiPQROIFwBUcAK13wRLQIiv5ybX9Hacll3a8ssX/z/ELEVFLK4YdRA4FDJZEr8GWL31yBOhiyTgIo2lakrukEAAQQQQCB0AmZSN2jQ7EQAgaoJlPjko2pxMRACCBQhsKJ1xi9Xe8lp4g+8zxWxVhdxCk0QKI+Ays5N497jCqgldOd5/yqhNU0DJ2BTAhcSASGAQCQESAKBMAiY2L1hiJMYhymg2j/MMzmtigIUsKqIzVAIVELg6dOnvtB9xoG/7X72gZ19305xP1wpElQCmj43EVARVbMFzdmr6qXIRcUeKrIpzYIoYDZl/Lm5MUEMjZgEAgQQQACBCgvUWf4P7hfGfBxChZ1r1r3KYzUbm4GLFqCAVTQVDREIuEBmbl/PGdMv7372uf3M7CvuB+yjJspnZAV82sIcnqqM75cJ+xabg5/3Hy+2bfXbMeKQAqrJMSm/6Pkesj8aIIAAAgggECKBDx9z+xrfNhzrHmffIGJPuW2dC/95MXnCXe5yW+GjEu5y+9hEwmFgtszNl/vlv92pvn+Fu8wacAEKWAGfIMJDoGSBzJyB7rbp3+jtf3Ev9wP20+78XrdVfmWEWAqkPJlTbOK+LxSwisUKajvPZgY1NOJC+07STAAAEABJREFUAAEEEECg0gKnHr30gZOPWvKW3v4NU/K9ssuLa1bt3juwPr3Gf3LqyjXPtYxec/MhbCEyWLvkoNFrVu0/es2Sw048+pZbK337of+RC1DAGrlh2XqgIwTKKfDo2bPW97S1XLCut3+ib/JBk8Jvh8o5An0hIOKbfrxYhw0J46XZxWIFtJ0nHgWsgM4NYSGAAAIIVElAxeYde9e6U9+9ZO3pc+97oXC57Ziu3szc+/rmzpU8W9gMXpq3Kt16NhmGK6ULUMAq3YwzEAiVwOOfmfmMK2T9vPvZVVN8s/9yhaxH3ObWUKVBsAEVcD9E9tljYeeBxYT3ROuMZ9wNr/By+2Ka0yaIAuqlgxgWMSGAAAIIxFKApBFAIGYC7rlHzDImXQTiKpCZs6GnbfrXup/97WQx/9siusYVE9wqLAiMSCCl/nFFdaDqbm96X1FtaRRIARObEMjACAoBBIYpwGkIIIAAAgiER4ACVnjmikgRKI9AJuN3t8348rrevrSZnC0m/MnY8sjGthcVPaLY5NWso9i2tAuegIpQwNp8WriOAAIIIIAAAgggUBUBClhVYWYQBIIn8PJbCy/w/USzifxAxChkBW+awhLR/i5QV9twX4dYTa1z8yZcD5XAmOZFnYeFKmKCRQABBBBAAAEEEIiEAAWsSEwjScRcYETp95w59eHu1pZP9Pb7s0ylUFwYGFGHnBw/AZXGSQuXF1XUyJvf6Qqmbo0fU1QyNvM/EJVcyAMBBBBAAAEEEEAgPAIUsDbOFV8QQOCRsw9Y2v3MtBkDeXuXmLyICAKlCCR1YF4x7T3P+7eK9hXTljbBFFDzTglmZESFAAIIIIAAAggUI0CbsApQwArrzBE3ApUQyKi/8szp1/p+/74mcp6I8WqsSjhHsE9Vb87kzIqGoVLL99etNfE3DNWO4wEWUBvTnL17pwBHSGgIIIAAApUWoH8EEECgBgIUsGqAzpAIBF2g58yZhbcVftZXPcoVspa7eN0395UVgS0JmOzQ37hmxy0dfmX/ujp/rYi3/pXrfA+nQN63XcMZOVEjEBwBIkEAAQQQQACB0gQoYJXmRWsEYiXQM7/lb92tLdNc9epbYhtfjeUuxoqAZIsUMJVtUiITh2r+9OlTX1CTVUO143iwBRLJupYAREgICCCAAAIIIIAAAjESoIAVo8kmVQSGK9DdOu0rA4nkQWZy73D74LwgCpQvJhXRhNnxUsTim39tEc1oEmABK3KuA5wCoSGAAAIIIIAAAgiETIACVsgmjHADJhCbcNRWnj61Y/2q/kN8kYtc2nw2lkNg3VRAPX3fpnsGv+aKXX8c/Ah7wyKgYm+fuOCWUWGJlzgRQAABBBBAAAEEwi9Q8wJW+AnJAIH4CDyembmup7XldPMHDjWRh13m7pv7yorASwJNExfc1fzSxS1/7T5j+vXuhsMHuW+ZKAxHtqlLbjM7DIESIwIIIIAAAggER4BIEBiJAAWskehxLgIxFeg+48C7rK5/mm/yp5gSkPYWBOqSyYO2cGiz3da92Q6uhkxA1d4cspAJFwEEEIiCADkggAACsRWggBXbqSdxBEYm0DNv5uqe+v73mujnxaRvZL1xdlQE3A+Vg4vJRVV7imlHm0ALHBbo6AgOgS0KcAABBBBAAAEEwijgnmuEMWxiRgCBQAjMm9nf3Trtf/r7/Tlm9lAgYiKImgqYyuHFBGC+rSimHW0CKuDCUpODJmSWjnYXWRFAAAEEEEAAAQQQqLgABayKEzMAAtEXeOjTM25ZXz+wr4k8Ev1sy5NhhHs5oLgP97Z7ImwQj9RUth01tu7D8UiWLBFAAAEEEEAAAQRqLUABq9YzwPjDFeC8gAk8Pm/muhctf6Av9hcXmqtlua+ssRNQEa8uOea4oRI3tWVDteF48AXUs0+JmQY/UiJEAAEEEEAAAQQQCLHAxtApYG1k4AsCCJRD4Im2A57uefa5Y8zkMlfBcms5eqWPsAl44h8xVMw9z9Z1mtiaodpxPOACZk17XLx8h4BHSXgIIIAAAgggIBAgEH4BCljhn0MyQCBYApk5A91tLR9X0StcYBSxHELsVtXmIXPOTO0T0b8KS7gFVLdL9vn7hTsJokcAAQSKFKAZAggggEBNBShg1ZSfwRGIrsCG/hdOF5PvuQwpYjmEOK0mOlpk6LeVqXi/FZbQC2hCvh76JEigagIMhAACCCCAAAIIDFeAAtZw5TgPAQS2KvDo2bPWbxh48dOukPFT19DcxhoTARVJSOa/dah0BwYG+CD3oZBefzxwe1T0zbtnl6cDFxgBIYAAAggggAACCERKgAJWpKaTZBAIlkChiNXVOv0jZnJtcCIjkioINIi8acifL32r8/9ysfS6jTXkAin13xXyFAgfAQQQQAABBBBAIOACQz7BCHj8hFcLAcZEoESB7lXbHW9mD5V4Gs3DK9Agu26rQ4X/eGbmOl/sl0O143jwBTyzDwY/SiJEAAEEEEAAAQQQKFkgQCdQwArQZBAKApEVyEzZoJ680+U34DbWiAu4YuX2E1/sSxaTppl/nmvHW0wdQphXUz2oOZs7NMw5EDsCCCCAAAKVEqBfBBAojwAFrPI40gsCCAwh0DV/+r2+5Y92lYoNQzTlcMgFVHRcUkfVF5PGirYDcu428XQxbWkTXAEVURP7L2FBAAEEKiNArwgggAACCAgFLG4ECCBQNYGetgP+6ooVf3QDum/uK2s0BVTqkiLTpcjFFT9WFtmUZgEWUNGDJZPxAhxizEMjfQQQQAABBBBAINwCPNAM9/wRPQKhE1jrJU5x1Sv++lzoZq60gP2k96aizzB7sOi2tWzI2FsXUGlsbjz+C1tvxFEEEEAAAQQQQAABBIYnQAFreG6chQACwxAonPL06VNfMMuf7S67Opb7yhpJAffD5bBiE/NV7yy2Le2CLWAqX59ywW3jgx0l0f1/9u4EPq6yXPz4855J0gVKaQsUSoEmk7K2maQtBUFQQMUFdynX/1VUVHqBZtIWuKi4jDvK2knhivty5SoIet29oqgoa2kzaQUKM5O00EKBBLonnZnz/p8pIEvbNMssZ/nN55zM5Czv+zzfN5k585xZEEAAAQQQQAABBPwooM8x/Bg2MSOAgJ8Fim8lFLHf1wqWTn7OhNj3JGCLbycTMTKIi2PMfYPYzEubEMseBHTAHccZc+YeVrMYAQQQQAABBBBAAIFhC1DAGjYdOyKAwPAFRLZY9zJjbc9I2mBf7woYsROmXbti/GAiTB80s1jAyg9mW7bxgYCRr0vijhofREqICCCAAAIIIIAAAj4SoIDlo8F6Raj8goDPBZ6Mz3paxGn3eRqEP4BAIVKYNMDql1bNMwX9ZbnOTAEQMCKTGw6YuCAAqZACAggggAACCCDgDQGi2ClAAWsnAz8QQKAaAune275kRR6rRt/0WX6BWjcycbC9WGvvGey2bOd9AWPlAuEbCb0/UESIAAIIhEiAVBFAwP8CFLD8P4ZkgIB/BRIJV8R8X7gEUsCJmEEXsIyJ3B9IhJAmZUSOjE54z8dCmj5pIxBUAfJCAAEEEECgqgIUsKrKT+cIINBnapdYkX4kAijgyqA+A6uYeS4vDxSvmQMk4NgvHrr03kkByqgEqdAEAggggAACCCCAwHAFKGANV479EECgJALrFhzTY0Su0ca0jqU/mQIj4Doy6FdgrbnroUf0D+DJvSbPBn4SOLCuUPcRPwVMrAgggAACCCCAAALeFaCA5d2xITIEyiLgyUZz9scaV05npiAJGDNh0OncMq/4Qe7fGfT2bOh5AS1Mm4jjXHlYcmXU88ESIAIIIIAAAggggIDnBShgDX2I2AMBBEoskJ76yMPWmp4SN0tzVRYwViYPJYQd1vmebp/XmSlAAnXifjZA6ZAKAggggAACCIRLgGw9JEABy0ODQSgIhFZg3ryCNXJ5aPMPaOJGzH5DSW37PrVPidgNQ9mHbb0vYIy8v/665ad6P1IiRAABBBAojwCtIoAAAqURoIBVGkdaQQCBEQpkW5u+J1Y2j7AZdveQgBUZ/FsINe5nPnr0ZmvNQ3qTKVgCtU4k8i1J3FETrLTIBoEKCtAVAgggMGQBPT18/rLaadeu2P+I9lR9Q/vyOQ1XLXttw5LUGQ3JzjdMa+8488W5YWnqjGh76vTDr11xcnG7w6/pOG7qNR2HHvC1h8fJjctqJZGgbjBkf3YohwB/iOVQpU0EEBiuwD+HuyP7eVDA2kF/C+GL0Rsj7S/e5jo4AkbkyPoJEz9czYzoGwEEEEAAgcALaLHpiKs7Wqa3p26KtnduaZxZu6Omxnm2ViTrSOR+Z1TtnY4jtzvG/rFGzO9fnB0rt+tj9Z/qapy/F7erqzWrRteax/cf27+pcUftjsZJ7y40JFM9jUtTv4smV5075arVB8jZN0cC70mCnhOggOW5ISEgBMIr4Iq9K7zZez7z4QSox0tD2y09uek3VuSpoe3F1n4QiBi5flp759F+iJUYEUAAAQQQ8IPAtETX6Ppk58ejyY5fN7anHtRi09baOrNcj6XerwWpsaXMwTEyUay82ZjCD8aO6ns6esqRm6Ptqfu1359NS3a+Tm62FLRKCU5buxWggLVbFhYiUA4B2tybQMFGbt3bNqz3j4AeONUMOdp5piBi/zHk/djB+wJG6iLWflms1T8N74dLhAgggAACCHhPwJqdbwdMdpzXmEzdUjNp06aIsd80xrxNYz1G5yGfPNR9hjVpn2P0AX2O7vzeGmP/0rih86nGZMfnj7h62WmSuLlOlzMhUHIBp+QtlrNB2kYAgUALrGmbeZe18pxwCYrA/sNKxHV+P6z92MnzAsbIexqSnXHPB0qACCCAAAIIeEig+Ja96JIH3hxNdj6hFaqsY8x3xMj7NET9VX96Y5ooxny2tq72z40Tj+ptvC710frrVk7WE5Nm2OGxIwKvEqCA9SoQfkUAgaoL/LXqERBAVQU2223/qwFYnZkCKOA4cvnOD4QNYG6khAACCHhNgHj8LGBN49LUrMb2zrvGjup/2Dg1v9MTQVoQ8kFORvaRiHw7ErGPRJOpO+uTq2I+iJoQfSBAAcsHg0SICIRJwBpzT5jyJdddBZ5aeOIGa+WXu65hSUAEDmzcUXv71GvuGhOQfEgj2AJkhwACCFRU4NClD02anuz8dLQ9tVKsPCBiX6PzpIoGUbLO7H7GmJMjptDR2N5xb0NyxcIDvvb3cSVrnoZCJ0ABK3RDTsIIeFzAuKs8HiHhVUDAWvebVoxbga7oouwCu3ZgRU4ZVbfvB3ddwxIEEEAAAQTCKGDNEcmOFi1afX+M3fGMNfaLRsxxwZIwcx3jXDt+7L5PNiRTF0SvTB0UrPzIphICFLAqoUwfCCAwaAGbj6wd9MZh2TCEefYbp1Os2x/C1EORshExxrXXH3Htcj2rLFwQQAABBBAIrcCM61ZOjiY7H6o15l59fPxQ0CGMmLHGyPVmtGTrlzTRVqAAABAASURBVKy4SMSaoOdMfqUToIBVOkta8rAAoflHYLuTe8I/0RLpgALGPDvg+gFWruv9+XpxnBUDbMIqvwsYqamJRL4hN9uI31MhfgQQQAABBIYqMOGKZeMb2zu+2xdxH9OCzlG6v5c+kF3DKd+kFSudZJ+I4yzV4l1n7L9WnVm+3mg5SAKDLWAFKWdyQQABDws8GZ/1tFjZ6uEQCW2QAtbawiA33XWzRMIVG/mMrrA6MwVUQA/Ym6JPpr4niTtqApoiaSGAAAIIIPBKgRuX1UbbO86ZtE9dRsR8RES8WLjSsCozGSMztuTzv4kmO77YmFx+YGV6pRe/Cjh+DZy4EUAgyALusiBnF6LcRvQWwEzrcX/W6tXjIfIKZ6rGfKB+4vh3hTN5skYAgeAKkBkCuwo0XLFsfMOO2tuNmJ+IWJ9+MPuueY10iXpEjDGftuI8cvgNnQ0jbY/9gytAASu4Y0tmCPhXwJjl/g2eyP8lYOTpf90e7g3X/mO4u7KfPwSMiImYyI+j7anThQsCLxfgNgIIIBAggWnXrniXGVu7Wp+AnxqgtEqaijFm/9qC/aceE1wpiYRSlbR5GguAAH8UARhEUkAgaALWOg8FLadQ5mPlqZHmbSPy45G2Eeb9fZR7nRayvn34Nfdz1tVHg0aoCCCAAAKDEEg+OqqhPZWI1Dg/M0YmD2KPUG+ixwOjdb4kOvFdtx6aTE0NNQbJ7yJAAWsXEhYggEC1Bawj66odwwv9czUCAWskO4Ldd+6aXdD8a2tlw85f+BF0gframrqfN+qBftATJT8EEEAAgXAITL3mromNZtvP9En357QoEwlH1qXJ0hjzLq1k3d+wtOPI0rRIK0EQ0P+lIKRBDt4VIDIEhi4QMc76oe/FHl4T0MJTiQqR5ltey414yiRgZKaVrSslsaquTD3QLAIIIIAAAhURmHrNPyeOqt3nHu3sLJ2ZhiGgRb+DjZWOhmtXvG0Yu7NLVQTK2ykFrPL60joCCAxDoFDjDv/b64bRH7uUScA1I34LYTGygtjfFK+Zgy+gB6p6wtVMjx6Qv1ESlmOU4A85GSKAAAKBFKi/bmXTqJr8Cn1cmz7kBNnhFQJGzBhTE/ll49LOy16xgl9CKcDBYSiHnaQRQACB8gu4EftYKXrpPrjpfrGWV+WVAtMnbRhrPhyd1Pldn4RLmAgg4DEBwkGgmgJaaHlNTY290xg5vJpxBKlvI3pSy9orosmOq3iVdpBGdui5UMAauhl7IIAAAggMQiDXkyvNZ1fNM4WCmP8YRJdsEiABI/KhhiWpbwcoJT+lQqwIIIAAAsMQaLgxM95a+yed9xvG7uyyFwFjzMXRSYUf7GUzVgdYgAJWgAeX1BDwrUB/gTNWvh285wO3VlatT8zZ9vxvI/+Zy0+8XQ8Gnxh5S5VqgX5KIeA4WsRKpq4tRVu0gQACCCCAQDkFpl27otns2PKEnoAZU85+wt62+v5bQzJ1c9gdwpo/Baywjjx5I+BhgYgxDeLh+Aht7wJW3Dv3vtXgt3h88WHb9azbHYPfgy0DIlDjGFnYkFx5g4jVY9aAZEUaCCCAAAKBEmi4bsXxtbWR2/WBiuJVBUZWjw3ObmhP/bgCXdGFxwQoYHlsQEoZDm0h4FcBVwyvwPLr4L0Qt7Xm7hduluwqL+aLVmyhZA3SkG8EHONeEG1P3SQ324hvgiZQBBBAAIFQCBz6lXsnmUjkVmvtpFAk7JEktZDx/6LJju9J4o4aj4RU9TDCEICOexjSJEcEEPCVgLWzfRUvwe4iMG187fJdFo5wQXdr08MihldhSVgvZl7jhs5/TL3mLs5uh/VPgLwRQACB8goMufUDvvPwuDHjRt9nxB425J3ZYcQCxpgPN0yacMmIG6IB3whQwPLNUBEoAiEROPvmiD4YHR+SbIOZppUdj23aXJJvIHw1kOvaH756Gb+HQ8CIFI9ZThhVs8+fp1x9H08UwjHsZOk7AQJGIDwCE5P37Dd+W/9vNOMGnZmqJOCI+Wp0SUdrlbqn2woLOBXuj+4QQACBAQUOO7Vxsm6wr85MPhWwRrZu7h9Tlrf69Y/O36osT+vMFFIBY+TEMXWjbj/i2pXHBJKApBBAAAEEfCEwwY7+mhE5xRfBBj1Ix3y9/oaVTUFPk/xk59lMHBBAAAHPCIwycoRngiGQ4Qr0R7bm7HB3Hmi/9fPnbHOtu2igbVgXfAEjcmRNjbu8PpniiUPwh5sMEUAAAc8J1F+34lPimPM9F1hIA9LjgtGRfOFP075+38EhJQhN2rwCKzRDTaIIDFqgqhtat+aoqgZA5yMWMGL762SzO+KG9tBA/5Ydvxcrz+xhNYtDIlA8WHWMvSPanvpSSFImTQQQQAABDwhEl6RmRBznU/o4xHNpD4zHv0Iw5oCa0aN+Oy3RNfpfy7gROAH+6coypDSKAALDF7AnD39f9vSGgNnWfci4sryFsJjfuk+d0CNibhAuoRcwYiJG5PJoMvW7KVctOyD0IAAggAACCJRVoPgKH33kuUuM7FPWjmh8eAJGWiITN1bhxNbwwmWvoQtQwBq6GXsggED5BIw45kzh4m8BK30yYXbZXoFVxEnHmz5nRZ4q3mZGwBh589hRtU8ckexoQQMBBBBAwIcCvgjZmpoxdVeKteN8EW5IgzTGXFy/dPmpIU0/8GlTwAr8EJMgAv4RiLavOMlYe5h/IibS3QoY2STzTNlegfVin9aVn714m2sEVKCmxph/RJemluhtJgRCJ0DCCCBQXoGG9s64FfPv5e2F1ksh4NiaH0295q4xpWiLNrwlQAHLW+NBNAiEWsAYh4OCAPwF6APLmkqk4bruldZKfyX6og9/CBiRMcZKvLE99ddhfEuhP5IkSgQQQACBigtMu7Zrf32M+YTOOlW8ezocooARe/iomn3/R262kSHuyuYeF9DnGR6PkPAQQCA8ApavIvb3YD8ffV7MQ8/fKu/P7kUt3WLkG+XthdZ9KnBqbY37YEMy9X5JWI51fDqIhI0AAgh4QkCLIDU1m36vlSu+4c4TAzK4IIyx72zY0PmuwW3NVn4R4KDOLyNFnOEQCHGW065fdbAVOTbEBMFJ3ZqVlUomZwvfrFRf9OM/AWPkv6OTOh8+/IbOCf6LnogRQAABBLwg0PD0P2dZMcd7IRZiGJqAEfPdxuRvRw1tL7b2skDgClhexvZUbDcuq422d7ZHk6mvc2DvqZEJbTA1hfw3jQj3SQH4C3AL+X9WKo21vb982Fr5faX6ox9/CRgRx4hMry3Yrob2zkX+ip5oEdi9wJTEsrGN7amEHsPd1JhM/SWa7Li1/oaVTbvfmqUIIDASgYYrlo03buEWI7yadySO5dx3oLZ13PZzZcrVA23DOn8J8GTRX+NVsmjr+2r+Tf+hF+jZ6Uv1wD6jB0DvozpdMl4aGqKA/v1NtSJvGOJubO5NgS0739pXqdgSCVf6t3zIivRVqkv68Z+AFrHGO2KviSZTy6ZdlzrBfxkQcagFEgknuqRzdn37yg9E21MPjJ1Uu1U9PqfHcO8XI68zxrzHKbhf1WVMCAxHgH0GEDBja8/Xx5AjBtiEVR4XcMScG736Pr4kyuPjNNjwnMFuyHbBEog4ZvGLGemd8gQ9ALpFZMqWqUtWTH9xOdcIVEqgYORMPQDnm0IqBV7efh4pb/O7tp659OSn9H4stesaliDwSgFjZHZNRO6Jtnfc+Mo1/IbASATKt2/xc9waJ76r3zh2WUTcH+l93azd9abL33pg4o59d7eOZQggMAIBI/96zjSCVti1mgJGxpnaUXdoCHpXqT+ZfC1AAcvXwze84OuTqVN0z2adXzkZUzPKMQ/pgf0dU65eSZX6lTr8ViaBA77293GOWF7aWybfSjfruvbBSvdZ7M+Ke3HxmtmnAhUO24g5P9qeeiKa7LhKEnfUVLh7ukNgQIH6azrmRpOp26PJjmcdIzeJHp8NuMMLK8dNmvSOF25yhQACJRCIJld8y4gcXIKmaKLKAtbItOiSFa+pchh0XwIBClglQPRbE0bsOXuK2YiJ6Pz6sXXu2oZk59KG9s6Ze9qW5QiUQmC/0eMW6N/c+FK0FeY2PJN7RFZVI5ZMa8s/9OCEz8KqBr5P+zT6pMQ4zuLopIkPNyRX/DvfVujTgQxA2Acnlx9Y397xgYb2lZ+LJlNPRmrNvcbIGcaY/YeUnnXPGNL2bIwAAnsUmPa9rtFiHIrCexTy1wojEhHHWSKiR4v+Cp1oXyXgvOp3fg2BgGPMyYNJ0zH2Ip1Tje2dPz7i2gcPGcw+Pt6G0KshkFhVZyJyfjW6ps/yCJiCqdpb+VxXbihPVrQaWAFrjRGJOsb578aJnU/XX3P/3J1PWgKbMIl5QWDKjcvGRq9feVixaBVtT23Y14lsiIj5kSNuQv8gJw83Rj2+mzHcfdkPAQReKWC2bjxbHx8OeuVSfvOzgI7nnGntHe/0cw7ELlLCAhacvhBI3FxnxQ7+VVVWjFaq319Tk8tEkx2/m3rNY3xOkS8G2h9BRie6SWNlmnAJjEAkl1tWrWS6Dl79W7Gyolr906/PBYxMjNTW3RPZsqmrIdnxWZ9nQ/geFKhProppwapzzI7aLnHdrmLRSg+yDpKdx1olCfjAkrRCIwiEXGBi8p79HGu+GXKGQaTvv00ixpnvv6iJ+OUCFLBerhGC240TjjrXiIkMMVVjRMYYY948qrb3mWh7542HX9Nx3BDbYHMEXiEw7doV04yR979iIb/4XWDFI5fMeaZqScybV7A15uPaf7/OTAgMR0DvluRgx3ESje2pzdFkxzeiS1acNJyG2AeB4km/6JLUhxraU9dH2zvXR5zCCj2emqnzQToP9Vhsr6BaB5u0143YwFsCRONJgfFmzOv1f3S0J4MjqJEJWPP6xmRq6sgaYe9qClDAqqZ+Ffq2Rs4bSbd6Zz7WiD2/rtasjLZ33Faf7JgrZ99c8oOwkcTIvt4XKL5Fpybi/I+I3c/70RLhoAWs/emgty3ThpmnHl5pRVaWqXmaDYuA1UdLkX2NMfNNxPl7Y3vHuvrk8vcVC+9hIfBLnp6IM5FwolemDmpcmprVmFz+uvqlKz/YmOxYPrq2d6tx5Pt6sH2hHjsdUsJXWu02be1jv8PaH56y25UsRACBQQvoE5tzB70xG/pKQO8nR4uRT/oqaIJ9hYA+pr7id34JsMAB33l4nBEp1ecjGCPm3RFj7o2ecuTmY/9r1dwA05FaiQWczc/9hxg5scTN0lwVBazYguTl11UM4fmuE/N2WHEueP4Xfg5CgE32JmD13krMlIiJ3FJT43Q1tqc2HL6UVyHvjS3w6xPWaVzS+U49mdfdOOk9OTPGPKkFqgfERP4Sse4PxZgWNTA6V3SqszveXtEO6QyBgAlM+/p9xW8dfG/A0iKdlwlYK2dNvjK1z8sWcdNHAo6PYiXUEQqM79s6WYzUjbCZXXY3xozpz7t3N7Z3/rMh2XnF22836pooAAAQAElEQVRcNnaXjViAwAsCDdd1vNYxkc+/8GsArkjheQGzqeBEqvf2weeD2Pkz2zpzmTXCNxLu1OBHGQQOqhNnpRay1kXbO2/T+V0i+hdXho5o0jsCxVff1Sc7lmjB6tfRZOqxxkmdeYnYnxsxR+j4O2I98jdgLN+a5p0/GyLxoUBkzKiP+jBsQh6CgDFyyGiRg4awC5t6SMDxUCyEUmYBt1BziBWpLUc3RqyjB3DHOsZe9tCO2g0Nyc7PR5c8MHtQfbFReASSj45yIuYH+rfCWweDNupWnul67pker6RlXXO1V2IhjgAKPF+smKKPfe/W+bZosnNjY7LjioZkx3sOvH7VvgHMOFwp6WOVFqvmRpOpc6NLU1fp9bM1NU42YkxcC1ZvM0amKogOvZ4W1Buemqx9vdxsI56KiWAQ8JWAfYuvwiXY4QjURkZL8TNTh7Mv+5RCYARtaNFhBHuzq68EHGNeY0QqMeb7aiHrs8apWRZtT61saO+cWfzMI19hEWzpBfQJQdRsu18bbtCZKWACRtxbJHFa3itpZeNNt1trf2q1WuqVmIgjsALGGBknxlymj7O3jncLm6LtqU6dTz+0+EGxyd+OCmzmPk+sUcem+NlV9VctP6KhfeWcxmTq2sb2VE+jbNumxap7dVx/YKxcrNf7a6pGZ89Pxpix07rvP9DzgRIgAl4U2HlywhzrxdBeHRO/j0zAiLmIz3EemWG19q5EMaNaudHvLgL2dbssKvMCIzJDn9iuiGzZuLJhSeqTkrijpsxd0rxHBaJma1L/HmZ6NDzCGqGAjbjfG2ETJd89Xyh8Xv/mdpS8YRpEYGABo393xW+au32MSCYqhxaLWX+LJjvm8xg4MFy51065cdnYxiUd8xraU7/SYtUyaw7tlNH2EWdUJOuIe58YWSgiE/Xa38fH+9QWP8NHU2EaQIBVCOwi0JDseIvef0/YZQULAidgxO7XcOoxxc8qDFxuQU/I3w/QQR+dUuaXWFWnZxFPKWWTg23LiIno3Og48pXopIlPN7R3XDNtaeoE3d/ozBQCgWgy9XUj5vwQpBrKFK21j2cump32WvJrFs1+SGP6b52ZEKiGgN7tSZ0xcqQROcUY843GSZP6o+2pJxuTHf8dbe/8THRp6kPR61ceVo3gRt6nt1uYklg2tiGZer9af77x+YLVljE7areIY36qB79naZFqto6Ljo0Zr9e6SJd4O6VBRxdx7SGD3pgNEUDgRQG9mzafefEXroMvYGyBL5Ty4TAXH7B9GDYhD1UgOsGdqYdm44a6X6m314PE/R0xi2qs3KNFjUcb2lPv5eC91Moeau/GZbXRJR1fMEYu8VBUhFJiAWNMR4mbLFlz6dbYx/S+b13JGixlQ7QVQgHrGJHJYsy/69nfLxgr3zeuu0YLLDt0vjea7FhQf93yU7Xo0jIx+SifFSh7uljTcN2qw+uv6zy1ob3jP3T+ttrd19je8d3GZOruxmTHurGTajcr9k1q/VltpViw2kftddLfAj5Z6zQFPEXSQ6DkAocmU4dqozGdmUIioMevbwxJqoFK0wlUNiQzgIB70gArq7LKGInqkeQtUiisjrZ3rGq4ZtnMqgRCp2UTiPbX3iCOc7l2oEOtP0s80Zw3BKyVv3kjkt1H4bq2ffdrWIqAJwSK94/FL1iZa4xJOpHIX0TMfRNl2+ONyZ2v1vpl/dXLQ/+kavxXOyc0JjvOiyZX3N/Y3vm0iRQediL2L46YG3T+qNodr24fESMnijFTRMTROZSTYxy+RCeUI0/SIxEYHamZofcdo0fSBvv6S8CKvMlfERNtUSC0D+7F5MM0G0fm7ibfqi8yog8VxowxYo4ztbWpaHuqu3Fp53eiS1Z4ruAmXAYvcP6y2sb21K+MkY8ZsdzPDF7Ol1sWjPmVlwPPjspfowcpd3s5RmJD4AUBvdsUfUiUGv05Tufiq7XeHqmLrNDiTU7vVzPR9o7b9PZ39PrGhiUdX21Idnw2mlx+cUP7irb665a/oz65au4R1y475IX2qnd147LayVf+46CGJSumR9uXv6Uxmbqgvn3F5cWYo8mOb0STK77V0J76dnFuTHZ+p7G947u6/CfRZOpW3fZ30fbU/Xr9WGN7arMuKxy4r+0RY75jjDNHk5pkRPTYQfRq56yLmF4UsGJPfPE21wggMDiBGin8h96h6DS47dnK/wI62KPr25e/w/+ZDCkD32/ME0vfD+HgErBiPH/2Vu9EigfuR4i15xnH+Xs02bE+2r6ydWcxiw9/H9xAe2Cr+htWNjXOqO3UUM7SmSngAtbKqu7Wpoc9neb8OTlxXd7G6ulBIri9CBgxpka3adAb79bb5+n1+Y5jPuEY83ljIlc54lwXiUT+N2IK99bW1K7T4k9BH0c36vynaLLz0w3tHR9pXNLxwcYlK95Zf92KNzYUvyH4+lUHF7+Fb/KVqX1ePU+4Ytn44rr6pQ8eUX/dyqaG5PI31CdTb4+2d5xTbCeaTJ0bva5jgRafPq993dLY3tERbU891dieKr4dMte4o7Zv3Oh9n3Qc5xEjkd+KkRsi4nypGLMxZr4xzscckY8WZzH2PBHzEWPMOcbIe8TIm43IHL2eKiL76jLdTH/TX5j2LqB2hx1a/AbMvW/KFgggoAKHfuXeSXnXHeRxq+7AFBgBx0beF5hkQpJI8YAgJKmGOM3EzXWa/bE6+2kyejnEiJs0jvOP6KSJG6NLU5ce/tU7J/AtTh4dxoR1prWvPCfi2g59mnG0R6MkrJILmJ+WvMkyNJhpa7nLdd0brIhOZeiAJhHwloDR+2FHH0f30/l0Y+wXHTHfFcf8UBznF5GI83+O2M4at/CEGS0bxo2Wza+eJ+1T+2xxXcTmuiMRN+WYyB8jRn6pDf9EtB1j5AcmYtq1+PRZMaJPAEzMiByoDMW3QxaLbY7e1kX6k6niAnWuzKp4p4PtkO0Q8JjAqH1Hvc6IiXgsLMKphICR4yrRDX2UTqB4cFG61mjJkwLHHHjUvxkRX98pG5GxxsrX6vbdb0PjpIn361neHxz6tVTxzKwnzUMXVPEtgxNS/xsR98dirQ5X6ATCm7Bx7vBL8n3PFi7Vv88n/RIvcSKwJ4EyLC/eb+9uLkNXNFkJAS1avqYS/dAHAkEQ0OcYJwQhD3IYuoA+8E0b+l7sUU0BCljV1K9Q3zkr769QV+XuRu9jpFY7adYb544ZK2sbk6mno+0dNzYs6VjcsLTjSF2nq/QnU0UEpiSWjY22py6Pzqx9ThxzluL7ulBaEbSAdZKLuA/6JaX1iTnbXOO0WRFeheWXQSNOBBAYloBxhC/GGZYcO4VSwHGmhzJvki4KTIxe/8/G4g1mfwhQwPLHOA07ymKBQawcNewGvL2jESMH6I/zHcdc7Yh5WIspW6PJjp9G21ecPK298+jiZ3p4OwWfRpdYVVef7Jg7dlLtI0bkSzqP9WkmhD0CAVfk1rUXNj07giYqvmtXa9MtYu3NFe+YDhFAAIHKCvCEvLLe9OZnAWuLb3/2cwbEPgIB6+bfNoLd2bXCAk6F+6O7FwUqdF134Oj9tKtw3ClbMVpIGWOMmWfEubNG3M5xo+WRxvbUqoZk6v1y9s28OkhGfpnW/sCZ0UmFRxwjd2lrh+rMFFKBfisLxYcXPVD5Tyu24MPQCRkBBBAYrECUk3iDpWI7BOwoDMIroM8f31SR7OmkJAIUsErC6N1GHLdwska3j85hm/S+yNRq0lN0Pk6LLTc1nnpU8dVZf4smU18vfrOSLmcapEDx21kal6auirZ3rIpIze+MyBFG+LDLQfIFdbOH18Vjj/sxuezCOWut1JxjRVw/xk/MCCCAwN4Eio/R+46yH9jbdqxHwE8C5YrViITxuVK5OH3XrrFyiu+CDnHAFLACPvhGzH9oikZnJpFRxphTjJFLZbRdf9T1HT+qX9Ixr2HpyrOmXZc64YCvPTwOpJcEJlyxbHx9cuWbGpOd3xkzbvSTYuViI+Y4I6KTcAm5gFZ+/uFngmyP/Erj79CZCQEEEAikgDHm/70qMX5FAIHdCFiz86T3btawKBQCRsbt/NidUCTr/yQpYPl/DPeYwbRrV+xvxL5hjxuEeIUREym45gMRx/zUse6vaiJyz/ix/c8dubRjW+OSzq+G+WX3065f0RxNplKT9qntjRj3D2LsefqnUqMzEwL/EnAdd+m/fvHjjcSMHZnWnx9vRZ4TLggMWoANEfCPgN6/HdWYvKf4URL+CZpIEaiCgLEypgrd0qWXBPYVPs/XS+MxQCwUsAbA8fuqOkdO8nsOlYzfiDiuNWPEsZ/Yd7TZFG1PPdfYnrqnMdn50/rrVrxREncErogz9ZplM7VYtURz/aPm+lBjMtUfcZ3lxkiT2nP/oAhMuxW4t/uiluG9emm3zVVrYcLVJ3iXV6t3+kUAAQTKLKDFq33C8TmoZYak+WALWMNbCIM9wnvPbtTosbyNdO9MntiCJ6ieGIbyBFFwHApYw6Q1Yh0jMl53P0GMnReJOH9onDRxuxZ5so1LUzdo0SfeuKTjg9ElnbMr/WotjWnIUzHGxvaOM+uXrLioIdl5dWN76qFosqN/dG1tSotVcc21+Eq9o8VInd7WachdsEOIBKx1bgpKutnW2H+JlZ8FJR/yQAABBF4U0Afz0a7I0S/+zjUCCOxewFip2f0aloZFwNptY8KSq9/zdPyewDDiD80uemd8RmiSLX+iehy488GtXp/sXqBFnyXimB8axy4bN1o2aUFoe7Q9ldai0A+nLUn922FLUjMarlt1eMN1yw4/4toHD5ly4+oDii/jn5a4Y7Scv6y2rN+ImFhVd+jShyYV+65Prvh4NJlaU4xRxPw+4jhLHWMXix7QGmPq9LqYl14xITA4AStSkLzz28Ft7YutbGFH4RLNa7svoiVIBBBAYPACxkjh7YPfnC0RCKmAET4HN9hDv9fsrK2hgLVXJW9sQAHLG+NQ8ihOSD66nxiZXfKGaXB3AsX/o9FaCYoaYz5Y48j/1DnSaSKFLhOpydbU5NJjdvQ9ImbMg5FJE1Y2zqzriJ561IpocsUyLXrdr8WvexrbO+9+fk7dFU12/H0P8z+e3+bFbV99nbonujS1rHFSITXG3fGI0b4jxrnRGDlcgy7GqFdMCIxY4ObM4uPSI27FQw10XTJrTaEgp2kRq+ChsAgFAQQQGLGAMeZNI26EBhCQABME8CNCAjxaZUuttpDXp3Jla56GSyjAk9oSYnqpqWecbW/VeGp1ZqqCgN4DGp0dIyZiRMbqPEHDONSIaRSxxxqRmcY4s/V6ji4/QZed+PwsrzHGnLyH+aTnt7EvbPvqaznB2J1Fy6PFyEQjJqJtG52ZECiJgBZ4+gpivlCSxjzWSPfC2L36fxOYt0Z6jJdwEECgegL1xVdlV697ekbA2wJHTRp/kLcjJLpKCORra2sr0Q99jFyAAtbIDb3Zgiu8fdCbI0NUCPhZ4NHuFlRiFgAAEABJREFUHifr5wQGij3zTO95Vuw/B9qGddUToGcEEBiewOjCtmnD25O9EAi+wA4jFC6CP8x7zTBiI3wO2l6VvLEBBSxvjEPJozBGZpa8URpEAAE/C4w4dkfcKyQxY8eIG/JqA4nT8ibvftyr4REXAgggMBwBK87k4ezHPgiEQcAp1BwQhjzJEYGgCFDACspI7ppH/a6LWDIyAfZGILwC1tpHH13Q/D9BF0gvmnV3QewHrYgb9FzJDwEEQiOwf2gyJVEEhihgHT77aIhkbI5AVQUqW8Cqaqrh6bzh6o4jNdsDdWZCAAEESiNgnJ+IMVrXKU1zXm6lqyf2EyP2T16OkdgQQACBQQsYM3rQ27IhAgggUEoB2kKgxAIUsEoM6oXmnFrnPI2DD+9WBCYEEBi5gBVb6M+5N468JZ+0kDD5dGvsTK3WZXwSMWEigAACexTQA8Ipe1zJCs8LEGCZBQrOwWXugeYRQKCEAhSwSojpiaas1eMUe6EnYiEIBBAIiEDkiscXN6+TUF2MFdecE6qUSRaBYAqQlZg5ICCAwO4FHDHO7tewFAEEvCjAP6wXR2UEMdVfveJwMTJuBE2wKwIIIPBygX7r5n/w8gVhuZ1pa3rAuvJhCf0FAAQQ8LOAMTLbz/ETOwLlFHCNbC1n+7SNAAKlFaCAVVrPqrfmjIpEqx4EASCAwCsFfPybteZ32baWR32cwohCz8SbfqgN/NKK6KS3mBBAAAH/CUxtTK7k+NB/40bElRBwChsr0Q19IIBAaQQoYJXG0TOtWHHf4JlgShgITSGAQBUErGzO9D4c7rfRGWPTPT9/t7FybxVGgC4RQACBkghYk39vSRqiEQQQQAABBCogsKcuKGDtScany4047xAuCCCAQAkErMivJTFvRwma8ncTiYRb2FH4NyvyiL8TIXoEEAirgJHIW4QLAgjsImCcUc/tsjAYC8gCgUAKUMAK0LBOvabjUCNyXIBSIhUEEKiagN2U75fLq9a9xzruumTWGnHdj4iYfuGCAAII+E7AHi4JW+O7sKsaMJ2HQaAgW7eEIU9yRCAoAhSwgjKSmkddxL5Or5gQQACBEQtYkavWXBrrGnFDAWog09Zyl+vat1mxhQClRSoIlE+Alj0joPfpE6Yc8kCdZwIiEAQ8ItB90dwn9f9DJ48ERBgIIDCgAAWsAXl8ttKYk3wWMeEigIAHBXYWaGrMjR4MreohZZ9tusO65ouVCoR+EEAAgZIIWBlfu03Gl6QtGkEgYALGGF6FFbAxJZ3gClDACtDYGjGxAKVDKgiUQoA2hihgrbhW7LmZC2JPDXHXcGyeMG62LfZ5dfp2OBImSwQQCIKAMeJEIjV8DpZwQWA3AtY+vZulLAqRgGvzuRCl6+tUKWD5evheFnzijhojUoYC1sv64CYCCARewBj7ULbnuZsDn+gIE8z09l6gRazbrYhOI2yM3RFAAIEKCDhO5F0V6IYuEPCdgD6QP+G7oAm4tAKu2VjaBv3cmrdjp4Dl7fEZdHTRSZPeKEbGDXoHNkQAAQR2I5C35mOSOC2/m1UsermAGm3cvvk9uoiztorAhAACPhBw3TNFT3j6IFJCRKDCAvaxknZIY74T6B+T42/AJ6NGAcsnA7X3MO25e9+GLRBAAIE9C1hrv98dj92z5y1Y83KBZy577eY+03esnrn958uXcxsBBBDwpICRumnj95/qydheFRS/IlBJAWOdRyrZH315S8CK/cX6+XO2eSsqotmTgLOnFSz3j8DUa+4aY8Se6p+IiRQBBLwmoEWY5woF+3mvxeX1eNYtOKHHLch7Nc6MzkwIeEWAOBDYrUBNjUwTLggg8AoBWyiseMUCfgmNgB7/WjcnXw1NwgFIlAJWAAZxlK05QKzh7YMBGEtSQKAaAsUHb+OaD3cvaumuRv/e7HPwUXUtjK0uFHa8bfB7sCUCCCBQHQFrncOr0zO9IuBdgb6Is8y70RFZOQWMtT1di5vvK2cftF1aAQpYpfWsTmt1o6ZbY/apTuf0isAeBFjsHwEjK/PP9vzBPwF7L9KuhcevzufdFrH2Ge9FR0QIIIDACwKOzH7hFlcIIPCCwLp47HFrZfULv3IVIgFrGHe/DTcFLA+P2GBDs9a8x4hlLAcLxnYIIPAvASvy7PZ85O3didP6/rWQG8MS6F7U0pEz5hxrLd9mNCxBdkIAgbILuGZO2fugAwR8KGDE/NSHYRPyiAWcP4+4iRI2QFN7F6DosXcjz29hjHuW54MkQAQQ8KSAFsC/t37hjLWeDM6HQa1pjf3ZRmrmaehbdWZCAAEEvCVgZLYkOOnprUEhmhIKDLspa5z/05N67rAbYEffCeh4W3Htzb4LPOQBU8Dy+R/AwcnlB+oZAz7PwOfjSPgIVENAH7hX9I3a8Zlq9B3kPrMXzfh7znXepDlSxFIEJgQQ8I6AETvq8AkrW/YcEWsQCKdAny2sEWv7w5l9OLM2Ig9n2mKrwpm9f7OmgOXfsdsZ+RiJHK039P9PfzIhgAACQxAoWLmQrw0eAtgQNl3TNvOugrXv0SLhU0PYjU2DIEAOCHhcoNbIazweIuEhUHGBdQevfsIYWVfxjumwagLWyq+r1jkdD1uAAtaw6byxo2PdY7wRCVEggIBfBPQB2xUjn+qOx+7xYsxBiakr3vx/OVf+nxVLESsog0oeCARCwH1tINIgCQRKKTBvnp53Mu2lbJK2vC3gir3d2xES3e4EKGDtTsVPy5zITD+FS6wVEaATBAYUMMasTC+IfXXAjVhZEoG1bbE/FfL2zJI0RiMIIIBACQT0MWBaCZqhCQQCJ5AZlfsvTSqnM1PQBazs6Oqt+UvQ0wxifhSwdjuq/llorDvXP9ESKQIIVFvAitnguoWzqx1HmPovfjuhm8s1WSPdwgUBBBCovsCU6odABAh4UGD+nJwVediDkRFSiQWslSslMWPHS81yyy8CFLD8MlK7iXPKjasPEGP4IM7d2LAIAQR2L+Da/IJsW8uju1/L0nIJZBfPWZnbseMMPWDqLFcftIsAAggMSsDaQyZfmdpnUNuyEQKDFQjKdkbuCEoq5LF7AS1Sbusv2OKr7Xa/AUs9LUABy9PDM3BwY/v7ztctanVmQgABBAYU0AdrK9Z+rSs+62cDbsjKsgmsXXx81o7KnWqtfXrneJStJxpGAAE/ClQsZmNq9qkzr6tYf3SEgI8Ecm7hRn2Mdn0UMqEOUcCI7X58nzyfTzpEN69sTgHLKyMx1DjOX1ZrjfzbUHdjewQQCKmANSvTss/nQpq9Z9LOzp+z0W7LTzcid3omqOAEQiYIIDBIAWNcPptvkFZsFi6BtfFZD2rGf9aZKaACrpjrZf4cPuvMp+NLAcunA3fojNrJGvp0nZkQQACBAQWsldX9+S2nSXx6/4AbCmsrIZD9xJyN6Z7eM6zYb1SiP/pAAAEEdiPwlt0sYxECCKiAtby9TBkCOemx1xPZnt5vBjK5kCRFAcunAz3Gmov0DP5on4Yf3LDJDAHvCWyxrv3Y44tP6vVeaCGOKHFaPtPafKEV+bIeTBVCLEHqCCBQBQEj5uADvvb3cVXomi4R8L7AtvyfxMpm7wdKhEMVMNb8QvQYbKj7sb13BDxXwPIOjYcjSdxRI44s8HCEhIYAAh4RcF33nOzC5r97JBzCeKWAzfQ0fdY1keIrIfKvXMVvCCCAQPkErJHacftMnFi+HmgZAf8KFF8pbSMm7t8M/BV5JaPNif1WJfujr9ILUMAqvWnZW2yYNOkYEbtv2TuiAwQQ8K2AteK6VhZl482/820SYQg8YdyuBTP/qMP1eivyWBhSJkcEEPCCgK01tu9AL0RCDCMWoIEyCJjCmP/RZtfrzBQQAT3O+smaePOKgKQT2jQoYPlw6I24x/owbEJGAIFKChj77Ww8dp0Yo4/XleyYvoYjkGlt+Yd13TPEygodMJ2G0wr7IIDA8ATCt5cRE7GmVk+Ihi93MkZgMALp+PR+V4TPShoMlj+2yRlrv+6PUIlyIAEKWAPpeHWdcU72amjEhQAC1RfQA66bMq3N86sfCREMRSDb1vJo+s7Vx2sR6y9D2c8T2xIEAgj4TsCx7ht8FzQBI1BBgWxr7PMiJi1cgiCQTsdjHUFIJOw5UMDy41+A1bP0foybmBFAYI8CpVth/7jZiVC8Kh1oZVu6ZV4hc3DTGwvG8DmHlZWnNwRCJ2CsfWvokiZhBIYoYF37pSHuwubeE9jSl7NvFOFdCRKACwUsnw3ioUvvnWTEOVq4vFqA3xEIvYAVuVvsPm9/+qIZW0KP4WeAeabQtaDpehH7Zh3TDX5OhdgRQMDDAsYcUJ9cHvNwhISGQNUFMqNzN2kQ9+nM5FMBPZa67fHFzeuESyAEXlbACkQ+gU9itB1zij6pYdwCP9IkiMDQBPTBeXmmLve64mc2DG1PtvaqQLq1+Q/9uYn11pr7dXx18mqkxIUAAn4VMMY53a+xEzcCFRGYPyeXl9yHxNoAfltwRQSr2okePPXZrbnPVDUIOi+pAIWQknJWojGXA41KMNMHAj4ScMV2FPLuGaIHWT4Km1AHIfD44sO2F3rHnSpiPidcEEAAgRILOGI4rhyJKfuGQqC7dfZqK6b4SqxQ5BukJK11P5n9xJy1Qcop7Lk4YQfwX/7mOP/FTMQIIFAuAWuls9/0v6F7Uctz5eqDdqsr0J2o78v03PZl19r36ng/Xt1o6B2B0grQWnUFrMhr5eybI9WNgt4R8LqAsRkZe7619lGvR0p8LxcwGbcg3xcugRKggOWz4TRi+fwrn40Z4SJQLgFrzf2Z3tXHr1twQk+5+qBdjwgkEm423nzb9h25FmvMXS+LipsIIIDAsAWMyP71rz/mjGE3wI4IhEUgPr3fGidhrbhhSdnneW7trzNncoLX56O4m/ApYO0GxauL6q9LHSVipggXBBAooYA/m7Iif84cPPM1kpi3w58ZEPVwBNZfMueZzIKmk63rftiKLQynDfZBAAEEXi7guC7fRvhyEG4jsAeBbGvTTWLMDXtYzWIPCehx8rcfmz8z46GQCKVEAhSwSgRZiWYcx15YiX6G3Ac7IIBARQWstb/IRcz7ZJ6hgFFRee90lmlr+YG4hRP0TPAK70RFJAgg4EsBa473ZdwEjUA1BPrsF8XardXomj4HLfC3TF3u0kFvzYZDF6jiHhSwqog/pK4TtkbEnCNcEEAg1AJG5CeZ3ppz1l7Y9GyoIUheMm2zH9gUiZzqWnu9cuR0ZkIAAQSGLGCMnSg3Lqsd8o7sgEAIBTKXxp7KSe0pYmVERawQ0lUoZdNTKORbhS82qpB35buhgFV582H1OG18x1QxMn5YO7MTAgj4XsCKcV0xVzzaGnu/JGbwtkHfj2hpEnj6ohlbsvHmBQVTO92KTVsRnUrTNq0ggEA4BPROY+yB+dGjfJYt4SJQNYE18eNWuGKXWj02q1oQdLyrgJUdOSNv71o4u3PXlSwJilbnQjwAABAASURBVAAFLL+MZMQeIWLqhAsCCIROwIoUxLoXZnt6PhO65El4UAJdC45ds3Hb6FnGlS8Magc2QkAgQOB5AWNlbN3GrRSwnufgJwKDEsgeHLtczxndMqiN2agiAgXrXr7mmdvurUhndFI1AQpYVaMfWseOcd5pxDJeQ2NjawT8L2Cl17r245nW2DclcVre/wkFKAOPpfLMZUdvTrfFPp+38hoNjQM4RWBCAIG9C1gj+zjjailg7Z2KLRB4SWCeKeTztYustQ++tJBbVRS4qaut5SpJJNwqxkDXFRCgIFIB5BF3kbCODtS8EbdDAwh4TIBwBhawIo/V1ci7sm3N3xNj9NeBt2ctAipgu+Oxe9I9Pz9Jzwx/Uv9ontJlTAgggMAeBYzImIiV6XvcgBUIILBbgTWLjn1Cas1p1sqG3W7AwgoJ2L+ke3o/VKHO6KbKAloXqXIEdL9XgcaJK44WMVNk1wtLEEAgoAJaeNhW2N4/98ELY3cGNEXSKqdAIuGmW5uv6DN9x+qB9d3l7Iq2EUDA/wKO1LxDuCCAwJAFMhfEntrR55xsRbYNeWd2GLFA0b3X9r1TwvMuhRGb+b0BClg+GEFrzWs1TD1Bpj+ZEEAg8ALWym2bnMjk7v+c+2TgkyXBsgqsW3BCT6b35691rX2vFZMua2c0jgACvhVwxJ577M2r+KxV344ggQ9eoPRbPvafMzPWusV3y+RK3zotDiDwcH+u5rDe+ImbBtiGVQEToIDlhwE1pvh5Jn6IlBgRQGAEAlZsQecvasHh7OK3y42gKXZF4CWBRMLNxptve9aOma3F0R/qii06MyGAAAIvCRg5YMuT0vjSggFusQoBBHYRyMZbfiNi364r+LxSRSj3ZEWy/dY56/HFx/WWuy/a95YABSxvjcduozHGnLrbFSxEAIHACOgD8XNWIidmWps/ywdQBmZYPZVIb3z6pkw89qHNfRIVMSn9m3OFS1UE6BQBrwlYMX1OIbfea3ERDwJ+Eki3Nv+hEHFmF/+f/BS3z2K1ejJus9tfOP2x+MyMz2In3BIIUMAqAWI5m5jW3nm03glOK2cftI0AAtUV0AfiO3I5MzvbOnNZdSPxTe8EOgKBDZfGnsr39JzoWnmXPr7wNtURWLIrAkEQsCKP5HJ9c7oXtTwXhHzIAYFqCnRdOLOzYPNvFitbqxlHUPvWY+asRJzjui6ZtSaoOZLXwAIUsAb2qfpaRwrnGrGMU9VHImgBkI8XBGzxLYPWLt3emztr7eKmrBdiIoZwCHQnTuvrisd+taXPNorrfl6sfTocmZMlAgjsFLCyQ69vdQvyvszK3Iy1i+f+U39nQgCBEgh0x2f9Ne/KGdbaJ0rQHE28IKDF9ru378idmLlo5mMvLOIqhAIURoY76BXar8Y4p1eoK7pBAIEKCuiD8GM51zkhE29uXZ+YwzfXVNCerl4S2HBpbGu6rSWxud/Uu9Zer2soZCkCEwJBFNDHHWvFrNWTJ98UGXtgujX2vuzC2K3yzTl88HQQB5ycqirQvTB2b2TUmCbz/Fv2bVWD8XnnVozriv11Yd/9Tl9/yZxnqpYOHXtCgAKWJ4Zhz0HkrX10z2tZgwACfhSwIj/JRUxsbVvTA36Mn5iDJ1AsZGXjzQu29eeOFWMuDl6GZIRAuAW0QP1w3hRO3rht04xMa/P8dHw639oV7j+JqmQftk4fmX/UM5v67Mli5b/Dlntp87WfzfbUvLf7I/V9pW2X1vwoQAHL46NmaszFeqZshcfDJDwEEBiEgJ76ftK67oczdblz117Y9OwgdmETBCoqUDyzmV7QdI1bt+/+1pj52vlfdWZCAAFvCAwpCj1Z8pQ+7nzFlcLx2TsfmbFmway7n7nstZuH1AgbI4DAiASKJ4gyo3IfteLEtSFe7agIg530PkyPle0HM62xL0tiRvFtz4Pdle0CLEABy+ODm7kg9lQhb0/Xf+Bf6lzweLiEhwACuxGwYgum+KqrrZuOzbS1/EDm83aN3TCxyEMC2fnRjZkFTd/UYtZpYmpm6JPg/9XwenT2+UT4CARcwMpmseb/xHXO0ZMlUzPx2OXZ1lnL5JZ5HEMGfOhJz8MCetyXaZ3ZnhfTpFF26Mw0gIA+59VJ7imIOSnd2syr1wawCuMqClg+GPXit8Jo5fmd1om8RvhGCx+MGCEi8JKAFq+2uVZOerQ19v61nzxFzyS9tM6Xtwg6XALG2PSC4/6pT4Lfle/pnVqw7uXhAiBbBHwioMeHrjgXTO3tnZiON52Zbpt5MydLfDJ2hBkage7Wpof1xNAsa+Tq0CQ9rETN0nRr00lFr2Htzk6BFqCA5aPhzV404/6C60TF2i/o2XDXR6ET6ssEuBkOASuidSv5cp/pP7wr3nxfOLImyyALPP/NhS1fyefdCa51P6B/4yuDnC+5IeB5AWvXFwru5QVrT8j39h6QbZ35jb8kTst7Pm4CRCDMAnpiKPPX1Ze5rvs2Ebs+zBSvzr14XFGwcmqmtSkuYvRX4YLALgJ+LGDtkkSYFnQtnLkhHW/+XL6Qm2qtTYqV3jDlT64IeF3AitXnEvY34pq5mdbYp9ctOKHH6zETHwJDESi+Kjgbb/lxpi432+YLb9XHotusGD5YdSiIbIvAMAR2nry0doW1dmkhZ09Ij8pP61rY8pXiSZJigXkYTbILAr4R0LpPjW+C3Vugt8wrZNtafrt986gmEfM9KxLqFybosfNTOr6fKey739yueOxO2fXCEgT+JUAB618U/rqxZtGcJzLx5rYdNaZRD2i+pXd8z+msk7/yIFoEgiSg/4BPWXHP0f/NszJ8w2CQhpZcdidQ/EyPRbN+p3/v7+2zdrr+/f9WT6ps1muddrcDyxBAYBgC/brPei1afb9QcKN6EnOW/s+1di1uvk/0f1DXMSEwCIEAbGKlLgBZvCKFdZ86pifd2nSeUzCn6Yp1+uCpk94Kz9Svxw2/KuTtUY8uaP4S3zIYnoEfSaYUsEai54F9i99klok3zc/nc8fqHcBleq/X74GwCAGBUAkU/+/0yUVrf67mmGzrrFtDlTzJIqAC6+KxxzM9P3/7dpEXHovsNl3MhEBwBCqfSW/xccW6MmdznxypRauPdC9q6a58GPSIAALlFnh0YdPf8nl3hrjyGatnQsvdnxfa1/u3u8QWZqXvXP1uvW97zgsxEYM/BChg+WOc9hKlsc+/Iit25VZbOEwPdi7VJ9Rr97ITqxFAYOQCO7RwfF2flUZ9crH08cXH8ZbekZvSgl8FEgl3XbGQFY9dabfmp1hrPuIa+ZWmk9dZmBFAYM8CVmSbPqG72Vppy4s5Jt3TO7n4uJJpi63acGls6573ZA0CCARBoFjE0f/3L1tbe/TOD3m3Erj/e72fK1jr/o8W607L9MZOScdnPcg3pAbhr7eyOVDAqqx32Xt7Mj7rab3zu2pLnxyrB0Hf1ifXgbvzKzsiHSCwFwErVp9oyJ9sLn9cOh5bVHzSvpddSrGaNhDwjUD2E3M2ZuJN388uiL2j0F9odMV+Q4N/SKzN6zUTAqEX0GO04ivmH9Lr34tr3rWl78mDMvHmczLxWHLnN28l+DD20P+RAPBqAa1/vHpR8H7Pth37aGZB7JLiF3fp/cO3dO62Ynz9GVmaw3M6/97YQlMm3vL/tFj3F0n4OyfhUjUBClhVoy9vx8WzdZl40/n5SKTRiv1DeXvzS+vEicDIBazI3YW8PU7/v96YWTw7PfIWaQGBYAt0XTJrTba1+YJ0XS62o8Y5yhXzvWBnTHYI7FnAillbsHJ2oa9/WvF/IhOPvSXd1vS/Gy49kxOOe2ZjDQJijdkeJoauhTM36P3D+YVx+x2Ti8hcve/4jQ/z7xcjl/fna6KZ1qa3pouvuPJhEoTsLYGhFbC8FTvR7FXA2O6LZjyZaW1+y/bNfQdY156uZ8E/qQWtx/e6KxsggMC/BOzz3w5z6w5xX5upy71Ozxx1ixhdLFwQQGCwAvPn5NZe2JTNtjad99y2Ufvps5HXW2s/I2LXD7YJtkPATwL6IOHqvNwW7CXFt8wUj8UyrTOndcVjP+v+z7lP8iHsfhpNYq26gP4zVT2GKgRQ/GBzfex8QAtAZ210IuMKttCsJ4L+XTmW6Pxk2UMaYgf6PPNZx8hXcvq887ltmw9ML4h9ZedHbBiOm4dIyeZ7EKCAtQeYgC226z51Qk+mrfkOPQt+ReaR9Y1uwb5dnzj8Qu/4NgYsV9JBoJQCW8TKzwo2f3K6Nfa+ta0t/+AJRyl5aSusAs9cdvTmdLzpr5l485fSPc8eoU/uW/QkS7s+Lt2lJjmdmRDwnYA+cdtordypgd9ki58BV3Cm6JPOOZmFzVfriY+/FI/FhJMfUs5Lzrj63N5bT5TLmW/I2nZDlu8u6T590YwtXfFZKT0RdFOmNbYw87fVU7dbOcxa+ZAV94f6GHqHHrdW7PNYtb/tehIqpc8nb3PFft2VwvHGrj/kkQWxy9fo885nLnvt5l2SYAECIxSggDVCQF/u3v7W/uzC5l/rE4d3bxkvh1prluqd3Va989HJlxkRNAIlE9B/Ap1kq2vtdzf3ycHpeOzs7vjse0rWAQ0hgMArBRKn5fXJfYeeZInr49LJG53IRGvc+eLa4leK67G5PkK9cg9+C5eA57LVB4niK6uKT9w26e1l+sTtgn6ba8z0xA7IxGOn6gmPf8/Em75ffAuQULCSil7ytX1WTKGifdJZhQTstgp15J9ubplXKH4OayYe+2GmteVD+hh6erq3aXIu7xxrxS61Ik/prP8TI3sc1Tb0bk76tRUtSJmsWPM1N5dr6s9vm5RubW7OtMbem21tvizbOmtZOv7Wfv8AEqkfBRw/Bk3MpRPYcG5saybe1JovuFNtwXmH3kFlS9c6LSHgMwFrH9TC1Zt3RMxh2XjzR4ufJeezDAgXgd0I+GtR8QxzZkHLN9OHxI4obO9vkJqaN2gGN1kroT/7rg5MVRLQ46N+nX8rrnNuzs3PdQtOfdruc5A+cZurT9y+8Vh8TkYShi8pkOpe1hx6zFNipUO4BE7AGLk7cEmVIyG9H1qzaOZDmdbm1kxP76F6XzXN5Asn6wPoRSL2j/r/oUWogTs2Ir1WzF9dYz6nD73vVvvj+82ohm29uYPTPbdNT8ebPpFdPGfl44tP0kL+wG2xFoFSC1DAKrWoT9vTs9/PZRfO/HXGrtOKvXmrFD9k1wbv61uFCwK7CmzRB/TvubbwxnRvLNYVb/6/tRc2PfuKzfgFAQQqLzDPFIqfE5S54Lg/p1tj/14ouJPEdd+lhayrrbX3WxE9Hq98WPQYCoHi21jvda253oqNuznTtL0nN1GLVW9Lt8380dq22Q90LZy5QeLTi6800D/FUJj4I0m938j0Oq9zTfGjMuQ/RcwVzP41cG3hc3pi8RPF8UzX5S8QLkMTSJyWL95XpRfNujvbGrsh3dr8pvSo3KSerbn9bZ9Mtrn89ELAieSNAAAQAElEQVRBji7Odkf/4dv6cwdu7Okd92hP7+RMa9PrswuavpBpbflFekFs+WOtR69fn5izTRIJHnuHNgpsXWIBClglBvV9c/G39usd1u/SrU3n9crYKVbMZfpkYbVe940kN/ZFwEsCVvT8k8jj+gh8wzP5/Q7TB/TzsvFZt0uCs+fCBQGPChRPtKTbWv43E49dkok3z93en5tsXTNfH6OKZ+WzGvbWF/639SYTAoMUsJLXLZ/Wv6PVYuRnrlt4g7s1d2C6NXZiNt60INPa3J5d3LRyffGJm27I5AOBxIwd2QXFj8qIXZlubfoks38N9NjsC9l489eK48lnkJbof2/+nNyzn5izMXNp7KnM4tnproWx1cU5c/Hcx9ZfMueZpxOnbZHEafkS9UYzIRYoV+oUsMolG4B2e+PTN2kx6+uZO1cfJzX2CFfcz2taxbOSesWEgE8FrH1GI39Dvqd3up6Nuui5RfXP6e9MCCDgM4HigXamrembWtA6Od3Te1Sv3T7F2MiMgjWtrmuLbyHi8cpnY1qJcK3IOrHmGivm3W6daSq4ztS+3NYjMr1Nx6YXxM7Ots36U1af3FUiFvpAAAEEBhBgFQII7EaAAtZuUFj0KoFb5hUyF8Seyra2JJ7btnlSXuybXTFXWGufeNWW/IqAJwWsiJ5cl7sLVs7e3G+mZVpjf+5OnMarCj05WgSFwJAFbPFscW/8xE3p+IwHu+JNS7NtzS1pu27cdlN3gGvsUa51z3Kt/ZreFzw15NbZwTcCOr46SY/e4f/dimnX+TLruh8uFMzr8nm3fnOf7JvpaTo8HW+6ONPa9Ivs/KaVxbfX7Pwcl4RxfZMogQ5SgM0QQAABBIImQAEraCNa5nyeuey1m7tbm/+QbW36ZKb3kWmOjTRb1+pBov2L1gjWW/1R5hBoHoHBCuifY/GJjL3DdQsfyvT8/LVd8djP+GD2wfKxHQI+F4i/tX/dgmN6sguaH8nGW36TjTd/ItOz+rBCxImJlct1/plY839i5a+a6b1a9Fil1+v0YSyn10xFAQ/Neodudaw2i5i0Xt+j4/RHce2trp5QE5F35vL5Y3NbNk1K9/QenInHTtECVVznr2faWn7QtbDpb92LWrp33v9TqFIuJgQQQAABBPwpQAHLn+PmjagT83Y8Ep+RyrQ160Fi82np1tjUXMQ0uq79jgbIEwBFYKq8gDWyWZ/QXGudmiPTPU0HZeLNp3e1zfoRHzpZ+bGgRxEMPCagj1tdF87sTMdjX9H57HS86cx0PPb6dGvsRC16zNTrqZFtoycVtCCikWsxS38yVUugT4uKf9djiouN47b0mboD0729E9OtTdN1zF6TLn4YcVvz+4on1NKtsV+uWTT7obWfPOXZ4qvxqhUw/SKAAAIIIIBAeQUoYJXXN2StG7v2wqZstq35Y2k7dpxWsBqsa9/juu739GzpjpBhkG5pBAbXijG/t8a+Z7uVwzLP9E7UJzSLMxcdl5YEbwkRLgggMCSB1ZcdvblLCyLpBU2H9eVqJuXzbostfl6SKwvFmO/a578B8Uldtkm4DF3A2uKHAz+tOz4kxQ9Nt/YL1nU/bN2at4i1s/pq7NSNPb3j0pOb9tWi4il6THHNoxe1dBRfTUdxStWYEEAAAQQQCLEABazAD36VEoxP71/TGuvKtDX/PNvWct7m/icn5hx7umvtNa7YP1oRPn+oSkMTkG5zWhT9qxXzRbcQOSJ90cy3ZhY0/3xdPPY4T3ACMsKkgUC1BYyxjy8+rrd7UUtHpvh5SW2xJVrU+mgm3jw387fVUzN1Ow7oy20dW5yLn61ULHbZGpmcF3NM3hZer491F8jODwuXH1ord2g666yIq9eBmDSnfp27taB3hxaefuxa+S/ryqfFtee44hyvhb/6LZsLB+2ImIlFoxfnfO+zxeLUIenW2PMfmh5v/lymreUHmbbjfp+ON694/ILmdTu/BWueKQQCiiQQQAABBBCoqECwO6OAFezx9Ux2Gy49c+uai5rvyMabL862Nr8ps+9+E2w+f4YV8xsRu16sbNXbgTmw9wy8zwOx+sehfxs7dN6sT5Q2aDoPF1y5dFtdbko6Hnu9Pqn8bHbhjLWiTzR1HRMCCCBQGYFb5hVk/pxc8cO/i/OGS2Nbi8Wu4heedLc2Pdwdn/VXfaz7Rjpe/LDw2Icy8djpWrCZauzYCVrkmela9wN6n6aFLXO/FbNWg35c5/VW5CnPzFaK97mPa5yrdf57sUil97ULih+Ibnc4h/fnt07QvOq1oHe6Fp4+kI3HLsy0xb6cbmu+Ods6c5kW/rqf/NSsp9de2PRs0ejFubv4BRoUp3S4mRBAwLMCBIYAAp4VoIDl2aEJeGAfqe/LLJr9Zy1AnJXueaR+26jR0/LGHq8HyW1W7CN6AK9TwA1Ib48CVoyrT5S+m88XTt4uEu3L10zTJ0v16Z6fH9fVFrtq/fw5z+xxZ1YggAACHhVIx6dv0iLPqmy85cda/NHCVtPcTM9MvW9r0jlSv70n55m5MG6/aeme3np9nD5GYz2lWKRKL2i6vmth098yF898rFiQ8igzYXlAgBAQQAABBBAohwAFrHKo0ubQBBLzdqyff9QzaxbElutBcjLTGjvabs1NyFk7S1z34zWOuUIb/LUVeVZnnfQ3pkAKaAHzbuu6l27f0TdNnyh9dM2iWXcX3xZYfGXDzidLiYQbyMRJCgEEwitQ/Ky+hMlLYsaO9Yk5216Yq37drSeadr4lm1e4hvdvk8wRQAABBBDwmAAFLI8NCOEUBYzNfmLOxjXx5hXptpZvP3xR0yfTrbG3778yN9k1hfqCNedroeOXuuVyK/KkFcvnZCiGXyYds43WSKe19jc6/4d13ZNd1z2yxtQdoAXMkzJtLVetv3juY37Jhzi9KkBcCCCAAAIIIIAAAgggECQBClhBGs2A5/LAN+fkuhbMWtMVb/qWFjreqUWt2ZnW2CF9ZtRkV+R9WhhZHnCCyqZXgt6sGFeLVd06Pl+1ImdI8VsCe5omZhbEYpl481k636gFq7uybS2PPrzgmJ4SdEkTCCCAAAIIIIAAAggggAACARSggFXGQaXpygis08JHtjV2a6a1aY7Y7eNdMU0F47zJtfa9rmM+4LqFC6w1n7HG3FWZiELbyzpr5dvFV1Vp1eqN+bxbv6XP7pdZ0NSg4/OpTGvsz+l48VsCjRtaIRJHAAEEEEAAAQQQQACBQAqQVPkFKGCV35geKiZgbDp+4qZsa9PKrgUz/5iNN9+Wvajpx9m2Wd/IxJu+pIWUk8UWDhIpvFOLW9droeU31kqnFdlYsRB93pFaFazYp0XsvXr9C9c114qVd/Tl7NT05NVHZOKxjxdfVZWNN93evailu/jNXCJGdxMuCCCAAAIIIIAAAggMJMA6BBBAYEABClgD8rAyaALp+Kyn062zfqnFrQWZnW9hi8UyPb0H5Lf3H+LmCscXjD3XivNl18ivNPc/a4HrgRdnLXqldNlj+vsGLdps1WtXf/ftpFUlnSQnYjbpjadEZJ1er9G8VmiB6o96+3c6f0NzvVwTfZ91d8ws5Pc7INMam5xubT4x09r87mxb0+J0PParxxc3r5N58/gsMuGCAAIIIIBANQXoGwEEEEAAgeAKUMAK7tiS2WAFEqflu/9z7pPZxbOWdS1o/lGmdeanswti70i3xs7IxJuOf3HOtsZa0nW56Mbto6bnC+4MV+xrClbOtq776ZqI82st/KwVMf3i0YvGt0ELUfcakauskQ/r/EZXcrP7atxjbd2+R+Z7ehszf1sdzbQ2zdYC1ZsyrbG36nyBFqi+ornfmmk7flX3ovrnhFdUCRcEEAiwAKkhgAACCCCAAAIIeFKAApYnh4WgvCNQfPvbC3Pxq8Tnz8k9c9nRm4tvj+uKN9/XFY/9LNPW8uWHL5z59kxr0zSxY8bn8+6EXD43pd/mGiVnZ+QLcqJ1nZN3mUXOsMa+Zziz49hTXt6eW3DnFvsqzjaXn+7k7NS8EzmkL7d1UvFzwfR6bObO1YdqIerER1tjl2YWxH6gRbo/ZVvnrHz8guZ12fnRjd2J0/rklnkFKebpnQEgEh8KEDICCCCAAAIIIIAAAgggUGoBClilFqW98Apo4Scdn96vxa3n1iya88Rj8TmZ9OLmf3YvjN2baZt51y5za+zPmQXNP9/NvNdlj1zU/PeXt5dd2HJ/sa/inFk8O/3I4uZ13RfNePLxxSf1puMnbtLr7TuLU8IFAQQQQAABBBBAAAEEEEAAAf8JBLSA5b+BIGIEEEAAAQQQQAABBBBAAAEEEBiqANuHRYACVlhGmjwRQAABBBBAAAEEEEAAgd0JsAwBBBDwgQAFLB8MEiEigAACCCCAAAIIeFuA6BBAAAEEEECgvAIUsMrrS+sIIIAAAgggMDgBtkIAAQQQQAABBBBAYI8CFLD2SMMKBBBAwG8CxIsAAggggAACCCCAAAIIBFOAAlYwx5WshivAfggggAACCCCAAAIIIIAAAggg4DmBkhewPJchASGAAAIIIIAAAggggAACCCCAQMkFaBCBSgpQwKqkNn0hgAACCCCAAAIIIIAAAi8JcAsBBBBAYJACFLAGCcVmCCCAAAIIIIAAAl4UICYEEEAAAQQQCIMABawwjDI5IoAAAgggMJAA6xBAAAEEEEAAAQQQ8LgABSyPDxDhIYCAPwSIEgEEEEAAAQQQQAABBBBAoHwCFLDKZ0vLQxNgawQQQAABBBBAAAEEEEAAAQQQCL7AsDKkgDUsNnZCAAEEEEAAAQQQQAABBBBAoFoC9ItA+AQoYIVvzMkYAQQQQAABBBBAAAEEEEAAAQQQ8JUABSxfDRfBIoAAAggggAAC3hEgEgQQQAABBBBAoFICFLAqJU0/CCCAAAII7CrAEgQQQAABBBBAAAEEEBiEAAWsQSCxCQIIeFmA2BBAAAEEEEAAAQQQQAABBIIuQAEr6CM8mPzYBgEEEEAAAQQQQAABBBBAAAEEgi/g4wwpYPl48AgdAQQQQAABBBBAAAEEEECgsgL0hgAC1RGggFUdd3pFAAEEEEAAAQQQQCCsAuSNAAIIIIDAkAUoYA2ZjB0QQAABBBBAAIFqC9A/AggggAACCCAQLgEKWOEab7JFAAEEEHhRgGsEEEAAAQQQQAABBBDwjQAFLN8MFYEi4D0BIkIAAQQQQAABBBBAAAEEEECgEgIUsCqhvOc+WIMAAggggAACCCCAAAIIIIAAAsEXIMMRClDAGiEguyOAAAIIIIAAAggggAACCFRCgD4QQCDMAhSwwjz65I4AAggggAACCCAQLgGyRQABBBBAwKcCFLB8OnCEjQACCCCAAALVEaBXBBBAAAEEEEAAgcoLUMCqvDk9IoAAAmEXIH8EEEAAAQQQQAABBBBAYEgCFLCGxMXGCHhFgDgQQAABBBBAAAEEEEAAAQQQCI9AeAtY4RljMkUAAQQQQAABBBBAAAEEP/8SXQAAB0JJREFUEEAgvAJkHggBCliBGEaSQAABBBBAAAEEEEAAAQTKJ0DLCCCAQLUFKGBVewToHwEEEEAAAQQQQCAMAuSIAAIIIIAAAiMQoIA1Ajx2RQABBBBAAIFKCtAXAggggAACCCCAQFgFKGCFdeTJGwEEwilA1ggggAACCCCAAAIIIICADwUoYPlw0Ai5ugL0jgACCCCAAAIIIIAAAggggAAClRWoRgGrshnSGwIIIIAAAggggAACCCCAAAIIVEOAPhEomQAFrJJR0hACCCCAAAIIIIAAAgggUGoB2kMAAQQQKApQwCoqMCOAAAIIIIAAAggEV4DMEEAAAQQQQMD3AhSwfD+EJIAAAggggED5BegBAQQQQAABBBBAAIFqClDAqqY+fSOAQJgEyBUBBBBAAAEEEEAAAQQQQGCYAhSwhgnHbtUQoE8EEEAAAQQQQAABBBBAAAEEEAi+wK4ZUsDa1YQlCCCAAAIIIIAAAggggAACCPhbgOgRCJgABayADSjpIIAAAggggAACCCCAQGkEaAUBBBBAwDsCFLC8MxZEggACCCCAAAIIBE2AfBBAAAEEEEAAgZIIUMAqCSONIIAAAgggUC4B2kUAAQQQQAABBBBAAAEKWPwNIIBA8AXIEAEEEEAAAQQQQAABBBBAwNcCFLB8PXyVC56eEEAAAQQQQAABBBBAAAEEEEAg+AJezZAClldHhrgQQAABBBBAAAEEEEAAAQT8KEDMCCBQBgEKWGVApUkEEEAAAQQQQAABBBAYiQD7IoAAAggg8EoBCliv9OA3BBBAAAEEEEAgGAJkgQACCCCAAAIIBEiAAlaABpNUEEAAAQRKK0BrCCCAAAIIIIAAAggg4A0BCljeGAeiQCCoAuSFAAIIIIAAAggggAACCCCAwIgFKGCNmLDcDdA+AggggAACCCCAAAIIIIAAAggEX4AMBxKggDWQDusQQAABBBBAAAEEEEAAAQT8I0CkCCAQWAEKWIEdWhJDAAEEEEAAAQQQQGDoAuyBAAIIIICAFwUoYHlxVIgJAQQQQAABBPwsQOwIIIAAAggggAACJRaggFViUJpDAAEEECiFAG0ggAACCCCAAAIIIIAAAi8JUMB6yYJbCARLgGwQQAABBBBAAAEEEEAAAQQQCIgABawBBpJVCCCAAAIIIIAAAggggAACCCAQfAEy9L4ABSzvjxERIoAAAggggAACCCCAAAJeFyA+BBBAoKwCFLDKykvjCCCAAAIIIIAAAggMVoDtEEAAAQQQQGBPAhSw9iTDcgQQQAABBBDwnwARI4AAAggggAACCARSgAJWIIeVpBBAAIHhC7AnAggggAACCCCAAAIIIOA1AQpYXhsR4gmCADkggAACCCCAAAIIIIAAAggggEAJBTxawCphhjSFAAIIIIAAAggggAACCCCAAAIeFSAsBAYnQAFrcE5shQACCCCAAAIIIIAAAgh4U4CoEEAAgRAIUMAKwSCTIgIIIIAAAggggMDAAqxFAAEEEEAAAW8LUMDy9vgQHQIIIIAAAn4RIE4EEEAAAQQQQAABBMomQAGrbLQ0jAACCAxVgO0RQAABBBBAAAEEEEAAAQR2J0ABa3cqLPOvAJEjgAACCCCAAAIIIIAAAggggEDgBHYpYAUuQxJCAAEEEEAAAQQQQAABBBBAAIFdBFiAgJ8EKGD5abSIFQEEEEAAAQQQQAABBLwkQCwIIIAAAhUSoIBVIWi6QQABBBBAAAEEENidAMsQQAABBBBAAIG9C1DA2rsRWyCAAAIIIOBtAaJDAAEEEEAAAQQQQCDgAhSwAj7ApIcAAoMTYCsEEEAAAQQQQAABBBBAAAHvClDA8u7Y+C0y4kUAAQQQQAABBBBAAAEEEEAAgeALVCVDClhVYadTBBBAAAEEEEAAAQQQQACB8AqQOQIIDFWAAtZQxdgeAQQQQAABBBBAAAEEqi9ABAgggAACoRKggBWq4SZZBBBAAAEEEEDgJQFuIYAAAggggAACfhGggOWXkSJOBBBAAAEvChATAggggAACCCCAAAIIVECAAlYFkOkCAQQGEmAdAggggAACCCCAAAIIIIAAAgMLUMAa2Mcfa4kSAQQQQAABBBBAAAEEEEAAAQSCLxDiDClghXjwSR0BBBBAAAEEEEAAAQQQCJsA+SKAgD8FKGD5c9yIGgEEEEAAAQQQQACBagnQLwIIIIAAAhUXoIBVcXI6RAABBBBAAAEEEEAAAQQQQAABBBAYigAFrKFosS0CCCCAgHcEiAQBBBBAAAEEEEAAAQRCI0ABKzRDTaII7CrAEgQQQAABBBBAAAEEEEAAAQT8IEABa2SjxN4IIIAAAggggAACCCCAAAIIIBB8ATKssgAFrCoPAN0jgAACCCCAAAIIIIAAAuEQIEsEEEBg+AIUsIZvx54IIIAAAggggAACCFRWgN4QQAABBBAIqQAFrJAOPGkjgAACCCAQVgHyRgABBBBAAAEEEPCfwP8HAAD//zjpM48AAAAGSURBVAMAajIMrLbD7TgAAAAASUVORK5CYII=;" parent="1" vertex="1">
          <mxGeometry x="49.019999999999996" y="20" width="84.91" height="60" as="geometry" />
        </mxCell>
        <mxCell id="0_99gsNGC9KbOV2Wp5mH-20" style="edgeStyle=orthogonalEdgeStyle;rounded=0;orthogonalLoop=1;jettySize=auto;html=1;entryX=0;entryY=0.75;entryDx=0;entryDy=0;strokeWidth=4;" edge="1" parent="1" source="-GlMdH1-iFwV5xs4R0uD-4" target="-GlMdH1-iFwV5xs4R0uD-1">
          <mxGeometry relative="1" as="geometry" />
        </mxCell>
        <mxCell id="-GlMdH1-iFwV5xs4R0uD-4" value="" style="shape=image;verticalLabelPosition=bottom;labelBackgroundColor=default;verticalAlign=top;aspect=fixed;imageAspect=0;image=data:image/png,iVBORw0KGgoAAAANSUhEUgAAASIAAAB1CAYAAADqQuxNAAAABHNCSVQICAgIfAhkiAAAABl0RVh0U29mdHdhcmUAZ25vbWUtc2NyZWVuc2hvdO8Dvz4AAAAqdEVYdENyZWF0aW9uIFRpbWUAVGh1IDMwIE9jdCAyMDI1IDExOjUxOjQ5IENFVGPybS4AACAASURBVHic7Z1nnBXV3ce/Z2Zu2d6ABZZdEJCmoiBgR1GRoIIF7IkmMRqVaGLyqIkmJhpLNIkaa0RNxCRSAgqKBbETUQFp0pt0lrZ997aZOc+LlUjZ3Xtu27uS8/18eMHeM2f+987Mb075FyGllGg0Gk0aMdJtgEaj0Wgh0mg0aUcLkUajSTtaiDQaTdrRQqTRaNKOFiKNRpN2tBBpNJq0o4VIo9GkHS1EGo0m7Wgh0mg0aUcLkUajSTtaiDQaTdrRQqTRaNKOlW4DmqMhJNlSIdlZ7VJZL6kNQtiWuC5YJvg8gtwMQVG2oDhPUFJg4G2z30aj0bREm3l0y6sl89c7LN3isGKbQ3lVjNlJpEu3Dhb9SgyOLTMZ3N0kL1OkxliNRpNURDrzEe2ulcz+0ua9ZTYb97hJ7Vu4Lv27eRh+jMWwfhZ+T1K712g0SSQtQvTlFod/fx7hP2sjCJn6ZaoMj2D08RZjhngoytajJE3bYvDksVHbzL9saitYkj5adWq2fKvDCx9EWLLFAUC00lp5ICKZ/FmE6fNCXHSCj6tO9pDp04Kk0bQVWkWI9tZJnn4nzIer7NY4XbOEXINJn0Z4Z2mYm0f4GdqnzSyRaTT/06T0SZTAO0ttnpgVJhBpO6mxK+oF97wS4ow+Dree6yXbr0dHGk06SZkQNYQkf3ozzEcr0zsKaokPV9ms2u5wzyV+ehZrlyqNJl2k5OnbVuFy04vBNi1C+yivkdzy93rmrG77tmo0hytJF6LlWx3G/S3Ilr3J3Y73GS65WYL2uZK8DIEpktd/yDW4598BXl+oxUijSQdJnZot3Ohw578DRCKJrbkcUWQwoLtJvxKDsnYGXQoMfAf5AUmgLijZViFZv8tl+VaH+V9FqKiN79yuCRnehMzWaDRxkjQhWrLJ4deTGoi48Q2yOuYLvtO/0QGxY150MRFAjl/Qp7OgT2eD846zkPhYuc1l1pcR3lliE3bUzi2Fy52jMjj7aL2LptGkg6Q8eRt2udw5NUQoDhEqLTS4+jQPp/e1MBOcKAqgX4lBvxIfPzrDyyvzI/z7c5tAuPkdOy1CGk36Sfjpq6qX3DmlgWAotilRhlfwg6EeLhzkSViAmiLHL7jmNC/nD/A068OkRUijaRsk9AS6Eu6dHmJ3TWwi1Lezwd0X++mQm3r/naJswW8u9nHaCpM/zwzTYDeOjrQIaTRth4SewolzIyzZpLgQ8zUXDPJw09lerFZ22zmjn0XPjga/mhRiW7WtRUijaUPE/SRu2OXy0kdBYvEAuPYML1ec7CFdfsxdCg2e/L6fldtdTuxppskKjUZzMHEJkZTw6Fsh7BhE6PozvVx2YvpzceRlCi1CGk0bI64J0uxlNiu2qTsUXjzEw6VtQIQ0Gk3bJGYhijjw4sch5fbHlpnceJY3bdMxjUbT9olZiGZ/abOzWq1ttk9w14U+DK1CGo2mBWISIilhyucR5fbjzvHqjIgajSYqMQnRok2OcjBr384Gw/X2uEajUSAmIXp7sXp0+nXDvAg9GNJoNAooC1EoAh+vVZuW9eps0L+r3iLXaL41SLfxX5pQnjst2uQop/cYMyh9TovfKhwHe+0qwksXYq9djb1tM3J3ObIuiGOHMC0fItuPaN8Rq0tXrJ698R47EKtnbzDbgNBLG1m7CFn5MbJmEQTX4zZsRcpaDKcBV1pg5WNmdISsPoicAYj80xC5g0Ckf9oetmHxJoclmx3WlLts3+tSWec0Bm9Ll/wMkw6Fgl4dDQZ0NRnSwyTT++2+s2UwQGTxF0SWLsReuwpn+zbcyt3IcONsR/g8GPkdMEtLsXr3wztwMJ6jj0v5/aZcTujxd8LMWBB9ROTxSF79aRYZ3/ILlkrsdasJvvUaoQ/fxa2ujPl4I7cA35nD8Y8cjdWjVwosbBlZuwS5/e84u6YiwrtiPt71FGG1vxjR5UeInAEpsLBl1u10mb4gwocrnRYzMxyMz3A5q7+Xy0/yUFLwzWRi4VcOt00MRj3+vTuzmvx7yssJSUlkxVICM6YS/uR9ZEh9wwka7zf/yPPJuOhyjHbt47ejBZRfS8s2qxl/Sg+PFqFmiCxfSsOL4wkvmpdQP25NJYHpUwhMn4L3+BPI/P6P8fQ9OklWNo+s/gxn/b1Q+S5A3KNeI7IXd/tzsP05KDgds/s9iPyTk2doM2zc7TL+/RCfr49vChJyDd5cbDNraZixQ3xcM9SLL/0DuxaJrFxG3XOPYy9dHHcfbk0lDZP/QWDqZDIuuZzM716L8Gck0UpFIQpFYN1uV6kO2YAj2sCUoY3hVldR/8yjBN99K+l9h7/4nPAXn+Mffi5ZN96KkZuX9HMQ2YOz5jZk+b+S33flRzhfnIEovgyz1yPgTf4bN+LAS3PCvPxJCETi0daOazD5swgLNkS479LMJFiYfGQoSP34JwjM+Hfy+nTCNEx6idAH75Dz6weS+vJTuiob97jKFVn7l+lqGPsTWbSAvdddmRIR2p/g7DfZe/0VRJYuTGq/svIj7M+PT40I7X+enZOJfDoQWflhUvvdVSO5ZUIDL8+NJEWE9mf9LrjlpXp2VLedUlkAzrYtVI27OqkidED/O8upuPV6grNmJq1PpSuztUJtKOu1XEoLtRDtI/jmDCpuuwkq9rTOCffsoeLnNxB8+/WkdOduf5HIou9AaEdS+ouGsHcSWTQSd9tzSelv3U6XG14IsKY8dUKxu0bwyJvqIU+pxl63mqpbrsXeuDGl5zFsm9o/3ktg2svJ6U+l0a4atQtZUmhp36GvCfz7X9Q+cn8rFdX+BgOo/dPvCUybmFA/7ua/4K68HkPGlm8qUQzp4K4ah7v50YT6WVvu8ot/BakOtK3RSiqxN66n8rabcKurWu2cdc88RvDN6Qn3o7RGVNWgdjGLWyHj4lkP1Kf8HC0x7WeZ5Ge2/D2Db71G3bN/aSWLmqbumUcRObn4zzkv5mPdHRNw196WAqtisGHtHWAVYHT+fszHbq90uWNSkLrg/44IuRV7qfrVzVBb2+rnrn7kAczOpXiOOz7uPpSEqF7xgmb9D5Ru3l4pWxSiyMplVD8W/0jIKMjHKC5BeP3IcBB3+3bcmti3+AGqH7kfq+sRWL37KR8ja+ZhL78p7kBl6euE4S9DGpkItwG3fhPCLo+rL3vFODxZvRF5JykfE4zAb6aGqFZ8eR5Mtk/QuUiQ5RWEIpLyKoeK+jZ+X0uXmgd/g9wd+xKA8Hkwex+D1aUUfH6oq8PZuonQ2lUYtlokhQHU3P8rCp6fjJFXELMNoChEtqN2UTP+B1IO7al1aW5GKxvqqbnnTgzF32sfVo+e+M+7GN+Jp2J06HjI587OHYQ/+w/BN17F3rBOuV/Dtqn5/S8pGD8Jkamwu2PX4Cy5EkPE5mcicgYiSq7FaHce+Dof8JkJENqGu3smcvt4ZO2X6vaLCM7S72GdtBCsXKVjnnk3xMbdsW3Pt8uBCwd5Oa23SUmhcYhbQnm1ZM4qm+lfRCivanujrMBr04gsWhDTMZ6+R5Mx5gq8Jw1F+HyHfC4b6gl9OJuGf03A2bktan9uZRV1jz9M7m8ejMmOfSgJkeq6j9v2rlHSqQk0/1nd3/+Ku0f97S/aFZNz8//hO3loiz+yWdyJjAsuIWP0WEL/+YCap/4Ee9Tefk55OfUTxpN948+itnU33Avhzcr24y/F7P04ot25tOhV5CvB6PJj6HI9cvdrOKt+BuHoNzcA4c24G36L0Sv6mtGSzQ4zF6nHQ3o8kutO93HBIE+LOdQ75gkuOcHDRYM9vDo/wnPvB3EUd5FTjVtdRe1zTyr7dImsbHJ+ege+Yee0eM+JzCz8516I7+xzqX/2L0o7cKGP3iM88nO8g05QtOYblH5Nj6n2NQNtZ/MgZQSb8cR1Nm+k4RX17VLvoBMpeu5lfKecrq70QuA77UyKxk/EO2CI8rnqp72Ms2VTi21k/SrsrU8q90m7c7FOWIhodx7qro0C0f4CrBO/gMLhyqeyt/4VWb+6xTZSwlPvRPdu3kfnAoPxP8xkzJCWRWh/LAMuOcHDUz/IIi+jbUzXApNfQgRbeDvuh9WtG4XPvYzvzBHK95zwesm++TYyL/2eUvv68X+JK2ZN6RJkK6791IXSFzTXWtjNfMWGiS9iCLXv7zv1dPLuewSRkxOXDUZuHnkPPor35KFq7YGGSS+22Mbd9DCG4g0k2l+M1X8qWHE6T3oKsY6bjmg3Wqm5IR3cjQ+02GbOapv1itEmnQsMHvuen7Ki+EY1R3Y0eOxqP1lpFiPZUE/g9VeU2pql3cj78/gmp/4qZF17E1aPnlHb2RvWEZo7J+b+la5EQZbaD7699XYN04bRxC/m7t1Nw+w3lY43e/Uh5877wUowNsDykHvXfUo3B0DDu2/iVuxt+sPQDpxyte1+kTMY8+gJiQetCg/mMf9A5PRXau7snNKiP9OUz9TWtTItwYOX+RJO2FdWZHD3hYeurbQmofdnIQMNUduJjEzy7vszRl5+fCdyXcLzP8VFLWoiMG1SzKdQEqJihVr0AOVVdrMjhsOFpmKLgu/NUvshDQ95d96H8HqTYovw+cn51X24ClNnw5GEPninyc/cnZOU/IVcw4dx9AQwkvQAGhkYR/0DV0bf5TCkg1vetPPcV7tdVm5Xu/FuOMdLlyQ53Q46wmTksekLNgu897ZSu6wf3IBZUhpz/251JQ2TXqLi6gup/vXPcde3PD3eR2TpF1GXAg5G6YqUKg5hHddgw64UK9G+vClJ/icVp1VZvkMf+tAH7yodmzHmUswuZTF93WhY3bqTNeoSpbahD2c3+XdZrhbZbZX+BJGpNgJTRWT1xSq7Xqmt3Nn0NOTDFWoL1N3aGZybZOH4/lAvhtn6b19ZW0t46dLoDdu1I2P0mBg6lkRWLqP2D79l7yXnU//8kzjlsbtfBGa+GlN7patSWmRgCldpp2DJJodeHVO3o/DeXfGtq0TjP6sdfjst+mJn/kHTVFlXS3jNqqh+N64pyBx7ZSImNkvGJVdR/+rUqGtUoZXLkA0NB27l29U4dV9EfSO50sIqvSVxY5vAKPs59tZnoq5ROdULMO1KsA70Vfl0vZoQXXmyJ+me/+1yBGf28fLucvXdumQQWbZYaU0y69yLwIo+4pTBAKH336F+xlTlkU9L2DH2oaQYlgF9O6s5CS3Y0LoXJFls2qP2VutwkPd4ZMWXSjeEf8AJGEWpyeViFnfCNyB6Xh8DiKw48C0qqz9VWqQ22p8Dvk7xmtgy/lKMgmHRbTAksvrAFCqBsGTdzujTygyv4NQ+qZlGnZmG3OyRNSuV2nlPbfl3dbZupu6ZR9l9yXnUPnJ/YiJkePCdOYL8vzxP/h+fjulQ5V+wf1eDZduiX/AFG2yq6uUhI4e2zury6N9NCpeOeQdqt7PpK6X+vSeeGpddqniHnExk8RdR2zmbvoJBJ/73/7J+lVL/RtGIuG1T6/8c3Ir3oraTdV8i9rNlwy61zBADuxkpyx10XJmJhRtT5eNEUbnvREYm1hHdmzjYIfTZfwi+NpXwF583tk3AFrO4E/5RF+P/zmiM/BR6VgMM6WE2plKIhjB4f4XNxYO/PW7WEli2OfqooCTPwnvQL2Zv26J0jljCLOLB00ctN4yz9SCHxfq1SseJ3EGxmhQTInewWsOGAx/AbZVqXrR9OqcuT5bPA107GMruA8nALo/uEGp27nxA6hO3soLgmzNoeP0V5J6dCZ3fFQLf4JPIHD0W75CTm95OjgFlIepXYpKbJaipj37hp86LcMHxHsy24XwalQ27XKUo7T4lh34hqRjpbHbuErNdsaDa/8GR2dJW89AWGT1itikWVPuX4QMfoIo6xcwQBakdoXcusFi/qxWXJWqi33ciJ69x8XnZEgKvTSUw533l+LFm+8zKJuO8i/Cff1FS72llITINOKuvxasKeat3Vks+Wmlz5lFtPI/m18xZpXZxjmpKiBT8OACMHLVYqXgRiv3LhgOzF0hHMZuBFacPiiqeIqVm0j3Q3gbFnNN5UTImJEpOcjOnRkUqhDHYW7dSed1V2Bsb4xMTGRd4+h6Nf/RYfEPPajI2LVFiUoqRx6kJEcALH4U5tfehU5m2hpTw3nK1nDsDujUxvHcU3zApXjITqlUWDrZXRrffdUXSsxseglC03z3wWrmKO+epLnue4MwkDqILsNyzEzuBKZjwWnjPPJfM0WOxevWJux8VYpKJHh0Mju5ismxr9Ae3vEoy+bMI3zu1ba8VzdvgsL0y+t3cMVdQ1u7Qu01kNF2Z4WBkIKgWAR8nboPayEZkHmivMLOi3tKGIcGpB1Ptu8aFU6PWzjxw6OG1FOMgY0soEDPBVo6zlCl8w4vOXci6YCz+c0bFHYYUKzHr+BUnqwvLS58EWbez7bpaS+DFOWGltqf3s5oc1IgstYfT2RVfTh5V3J1q6VxFdvaBf1CMF5NBtUX5eJEBtah/4T1wCpenqO27FbOMxsvu2tZNPWHmJneq7EoD3ymnk/fQE7SbMJWMMVe2mghBHEJ0Qk+TXp3U3kKuY3DvqyHleXxr894ymzWKoQHDm/EVUV2ws9cl7iTWcv9rlNqZnQ909RcZTWzvNkXdklhNigmp2L/wdz3g/8V5ardwKj3+JbAp1REFB2EUd47eSKWfgnwyr/oh7SfNIPeeP+I9/oTUT8ObsiPWAwRww5nqi1XbKlzufSXY5mLQdtdKHp+tNho6usTkiA5N/1SqIRuRxbElroqV8KL5Su0OtldkqhVolHuj+/gkglTwIYLGkJD96dbEdLkpFm5MXe7tLXtcqlo5La1VdkRix/c/jtxf30/RxDfI+sENGO2Lk2RZfMQlfcd2NTkjBi/V+Rtc/jQz2GYSpwXCkt9ODVCvmFj90pOan45afY9R6iP4yYfIsJrwxYoMBgh/qpZ6wdPvIHvz1JJY2XteA1c9309MOPU4uxRL0+QemIepOF+Qq+A8u2Wvy/oUjVr+s6Z1CwwAWH1i90sTGZlkjB5LwfMTKXhkPL4zhiuFf7QGcY/Bxo3wkhNDRdfZyxzumx4i0vrX7AAaQpI7p4RYvUNNhHoWw8lHNr+jY3bshNlRIcdLbS2h2W+omhkTwbdeU3IjMEtKD3nzCX9X8Ecf1RmRimaj3xPF3f4ihquQ9N1fhsg4cGomgMFd1XbcXp2f/BVrx4U3Fqd4JbwJPP0H4ioGzhmlXcn+6R0UTX6T7Ftux+qWWp+weIhbiAqzBD87L7Z0Fh+ttLnj5SAVCk6RqWB3jeTWfzawdLO6Gv74TH/UQEnvKdHjpABqX3xe2e9IFVlfR8M//6bU1nfK6U3+3Wh/odLx7vrfg1OnbJsSdjXOhj8oNW2089CLcWofNSF6a3FYOaZQldnL7LTksTZy8/D1O1apradbDzJGjUnqrq1bsZfICvX849FIaFXqjL4W5w+IbRtxyRaHHz9fz8KvWndotOArhxueD7AuBreKYX0tBiqU0PafPVKtw8rd1P01uWWG6p78E261WpUP31lN2yk6XaV2svA23HW/UjVNCXfNzxG22kVpzs4Te1pq2RKFwR9nhpK2XlnVIHnu3dRMt1XwD/+OUrvQnPcJf/5J8k7sONQ8+Bsqbr6O+vGPI0OJ+y4kvDz+k3N89O0cWzcV9YLbJgZ54LVQykdHNQHJo2+FuGNiMKYFxaJsyc0j1EZ8Vs/eynXAg2+8qpzeMxqBVyYRVMwM6TnqWKweRzb5mcg5DqG4VuRufRZ32wvKNrbY15ancHf8Q6mtyDsBkdN0hgGvBaOPU3shrtzu8sSskII7YMvYLtw/PdTqi9T74zvzO0i/mkt37cP34ibDhURKav/yByKLFmAIl4Yp/6Tihu8SWbksoW4TFiKPCfdd6qckP/au3ltmc+XT9TzzXpi9ijFDqtQFJS/PjXD1U4GYKjsAIF3uuiBDPSxACDKv+qFy9zWPP0Rg+pRGt+54kJLA1Jepe/oR5UMyv9uSfQKj2y+V+7JX3IS79Vnl9ociGyvJrrlV+QjjiDtb/HzsEA8ej9rvOXORzROzwnFvnkQceGBGKKU7cSqIzEyyLr5cqa1bXUnlHbfg7t0d/wltm9pH7if45owD+96yiYqf/Ij68U/EvSFj/u53v/td/JY14vcITjrSYs6qMA3h2HzpXVewYpvLK/NDrC2XmEZjzh/VyiH7YzuwcJPDvz6J8NAbQRZscAnHca/8bKSfoX1jm3KaJaVEvlyEWx7dsVAA4XlzcXdsw9N/IMLnVz6PW11J7R/vi6nmuHfAELKuuT5K+ZgjcSv/A8GNUfsTAuTet5DBrzAKhoIRQ6BVZA/OyhuQsZSULhiG2eN3tBQn4/cKpBQs3qR2wVfvcFm21eXYMlO5OATAjirJXVOCLIhjaeGa05oeYT+3fErUY68/+tIm/+45sg/Bma8qCYCsqSL40Tt4eh+FWRxbEn1n+1Zq7r6N8NyPm/xcCElk+VKCH7+Pp3dfzPYdYupfSBnva/lQtlW63PZygJ3VifVjGi59O3k4qtSgtMigtFCQmynI9Aq8VuMbqSEkqWqQ7KiSbN7jsrrc5cutNpFIYkFFPzjdy3dPiW9L09mykYprrwI3hl2UnByyxlyJf+ToFhOnuXt2E3xzOnWvTELUqZcVFqaXghdeVvJ3kvWricw7HsNVf6u5nkKssp9idP4BeFu4uUM7cLe/gL3xcQxXvcqCa3jxDPkCkdU7atuwDT9+LsBmhZCdffgMlwsGe7ngeC8d85u/d3bXSF5dEGH6vBAhN76JxHt3Nu2FP3jy2KjHzr+s+XS+wVkzqf3jvTHZ4jtzBJmXXIXVs3eLLyhny0YCM6YSeO1V5fvalQb5v38I38lNb440RVKFCBodBX81OchXrexpmgy+P9SbcGxcYPoU6p78U8zHuULg7dkXz1FHYxZ3An8GBAM45dsJr/ySyNrVGHFcqpyf/RL/+Rer27H1adzV0YsxHnKcMDBzBiHyBoO/a2NcmlMPgY3I6vk41QsaY9ZixOj1KEbpOOX2a8pdxk2ox3ViF4uexdCvxEOngsaXXjAi2VktWbbNYe1WG5lgZGuqhAgpqfnt7YTmfhSzTWZxCZ7+x2J2KUPk5gECWV+Ls20LkRVLcTZtjLlPq1tP8p/6W0wj/aQLETSmZnhwRoi5a9PsNKSIcF3GfcfPRYOS4NwlJTUP3k3o/VmJ95Ug/uHnkXP73eoFHAGQOMu/j1QsL5RKRMerMI/6G7GmLnhric2f3mh71T5TJkQ0JtPfO+4a5PatcdmWLIy8AvKf+jtmx9hCUFISVJLpFdw71s/1Z3qxaNsjI79PcN/lmckRIQAhyL39brz7pWNNB54TTiHnF3fFKEIAArPvc1B0TkrsUqZwOGbfvxJP/pSRx1ptPutDshE5ORT84XGMwvhStSYD6c8g78HHYhYhSJEQQeP9f9mJHp78YRY9Ylu3ajV6dRI890M/J/ZMchpRy0PuPQ/HNEdOJr5TTyfv7j/EX8TR8GIdMwXRflRyDVNEtDsP69ipCdVPuyYJ0+xvG2bnLuT/eTyifbtWP7eRV0DhI89i9eobvXFTxyfZnkM4sqPB0z/M4sazvGR42kZCfZ/hct0wL09ek0nngtT8BMLnJ/d3D5ExJjUlhJoj89LvkXv3Q4ln0TMzMY+ZglH20+QYpohRditm/3/HthPXBILGNb+fn+tL6ajcMF0uOL7tCJ5Z2pXCJyZgHZnaHOn7Y3XrQf6Tf0soeVpK1oiao7qhMVlaIjsPiSCFy4ijPfzwdB/tc1tPFMOff0Ltn+/FrVDzgI6Lwnbk/d+vGxOZJxm5503s5Tcg7NTlVJJWR6yjnkG0Oy/pfa/e4XL/jBDbKpIrSB6P5J6LM/AYcNvE6AHBqVwjOhgZCdPw92epm/wvpXJX8ZIxagxZN/w0poXppmhVIdpHdYPk9UU2MxeF2F2TekHwGS7Dj/UydohHuWptspEN9TT88wUC06YgneSFBQivRcZFV5B51bUpzQCJXYP71QPYW5/CcJO3EOwaPqwuNzU6LComaYuHkA2TPg0z+ZPkvASP6GBw52gf3TsYLPzKiSpEwnV599dNJxpLhRDtw167itpnHsNeujCu45vDOrIf2eN+hufo45LSX1qEaB+ubMwT8+EKm7lrHaobkmeKhcuA7hZD+3g4va/ZZKnodOBW7CXw6mSCs2YkNkIqbEfmyFFkXHR53LWk4iJcjrvlKZytExIaIUmrGLPLNRhdxqWucGMTVNRLpn4eYeYSWzkNzP7kZQi+e6qH0QM9WF8vLX7xlcPtUYTIMF1m39H6QgQ0VvJYupDAtEkE5n6U0HqMd8AgMsZcifeEU+LYCGmetArR/kjZ6APy5WaH5dtcvtrtsmWPrZwtrjgPyooM+nQ26VdickypQUYMaUpaHdclvHgB4c/nEl66kMiG1RhO85fCNQWeHr3xHjMQ74mn4D32+HRkbP8G6SArP0TufRtZ8SFO7XIM0XwojStMzOx+iPwzEO1GIgpOB5G+tZWwDfM3OMxdY7N4o0N5C6lks32CQUeYDO1rckov678CtI/P1jncNaVlIcr2CWb8IoUjVkXcqkrCcz8m/MVnhFcsQe5uuZyUkZeP2ecofAOH4DttGEaH2DyyVWkzQtQUtgt7aiQV9ZLaoCRsSxwXLEPg80C2X5CfKWiXI/Ckrn5e62DbODt34O7aiRuoh2AQ/H6MjCyMDsWNW6KqlTrSgYwgg5shuBnsukZnRsPTWIbI1wWRcQQYsaWNaU1qg5LtlZLKekkw0hhqlJsh6JRv0D5XtOhE8M6XNg+93vJ0tXO+wT9uauWaQwrIulqc8u24lRWNKWqkRPj8iLx8zOJOGAWFSR35NEebLvZjGdAxX7Toen/YYFmYJaWYJaXR27ZFhKexSGKKCzGmihy/oLdiLvaD2Vkd/V3empsjsSCycxrDG2CEMQAAB6JJREFUPNLMt6QWq0bTdlFJzN85xZVmv+1oIdIc9kgJa8tTs4UtJSzeEj2UqXszxRc0jbTpqZlGkwi1AcnbS21eW2izY6/N32/MSrr7xrKtDjUKyf16ddJC1BJaiDSHHWvKXWYsiPD+ijBh+2sBMAz++n6Y+y7xJ7X69/T50ZPu+QyX3p3a8EZDG0ALkeawIGzDhyttXv0isl/RzANHIZ+tdZj9pc05xyTntl+9w+WjFeGobhQDunu+/bu6KUYLkeaw4LkPwryiUC7o0bcCdCnMol9JYlOlfaluVHIUndFPP2bR0BNXzWHBhcdbIKMvSIdtg9tfDsZUUupgAmHJb6eF2KIQu5btFwzt3YIQ1dn8/i/1fH+2Q/rqgaQfLUSaw4KSQoPzj1dzmAxEJLf9s4FJn0ZwYtxMW7/L5eaXgsrlsEYPtPC15EDuFww7yWJML0HbdfdMPW3as1qjiYXagOTq8QGlXax9lBUYXHaKh9P7mM2GBLkSVmx1eG2RzbvLwwip9v7O8Agm/iSDHJWaa//jaCHSHFaoxH01hWG69OvkoVt7QV6mQEqoCUrKK11Wlsu4AmRvGeGNnquozub3L4RY38/P+OEG5XOD/GS+4JqTBB98arOyHnp0t7j6bA/Za8I89qnDlhCUdre46XwvQ7LFf/uZNjvCrM0u6+shK8/glMEerhtoUWgBSMrXh3nsXZvFe6Gws8mYkywq5oSYVeRl/EUeCvf183aYiesllQ5kFRmMOtvHNT2MxhGb7TJvXpiXFjmsrG48z3G9LH50moeyBDKB6FU0zWHFiT1NrjrFw78+ia0evesYLNvqsCxJKZ8HHmEyemAcQb0WhOsdJq6wGHd5Bn2DNo9Nj/DbCQ49SkxuuiaDjnsjPDzT5uk5Jv1GWmTbDq9PD/H0ToPzT/JyRT5UbLKZ+EGYcLbBb/oZUGXz2HSbxXkWv77WQ1mdzYQPwizZCxR9PS20HaZ93c+PxvoYUQTz54R4dGoQvuvnuhLBunkh7vsUhg3zcXt3QcUGm+fnhLkPwSPDLbLj/L20EGkOO34w1MuuapfZy9JTvKFjruCu0b4EYkUFg0/yMKzYACwu7m4zf4VgxDAvQ9oJyPcwqtjmqZ0uFTZkWyYjxmYwOAgd9xU67WVQsTnIB+td6voJ6jbYrLAFo4Z7OLXYgGIv43D5yeRvFsnrNkWYthkGn+/lih6N/gYjhntZsT3ErHkOY0aZrN/sQpGHMf0tyiwoG2jwh+4Wm0OJrXFpIdIcdggBt53vR8oQ7y6PscpvghRmSR66MoP8rATWhUxBv6J9xwuy/eDxC0r3JXi0IMsvCFfJr0VEEt7rMHFOhE82NU6p9pGVJ6kDKvZKwn6DY4u+sauw2KJvlsOSr/vYvMGlwmdwTdl+a2B+g8EdBLN2uZTbFj26G4TfjfDLSS7D+lkM627SM98k0cS0Wog0hyWmAb8c7aNDnuDlubFN0+KltMjggUt9iedBt8B78JNpQbMVTapsHp4aZl6Wxa2XWwwuMSjEZeKLQRqLQknqgl/3u38fFhT6+XokIwkHIRJyefjpBh4++BxZkjobhgzxMT7PZuKnESa97TAJyOpgcftYL6cmkCVDC5HmsEUIuPYML0d1MXn49RDVcSw4q3JWP4ufjvSmJRNoxU6HFfWCYed7GNH1axEMSjaHoHHRpnFUhQ1hJP8VNBsqgnw9qhJ4/YBpcPkoD4MPrr3gF/TMFoCgrLeXO3p7uLXKZd6aCC/NsXl4pqDsci9lcSqKFiLNYc+JPU0m3JjBhI8jvL4ghJ1E97nSQoMbh3s5oUe6Yji+FlcTsq1v/laxwWZ+NVAE2FBYJPAGXbZUw74V5Yqdjbty++hYYlCwUJJdZHJcsfhvX3VVLmG/QbbtsmKNQ0WRyanFBt58k1OHGBRWB/j5GpfyIJTFuVqthUjzP0GOX/CTc7xceqKHafMivPVlfDmroTER/oAjPIweZHFKLwsjrW5Cgux8g444fLLQYViehM02z8+T9CyCxXUudQjKyix6WmGmzYnQ92yLwmqbCR+4hM1v+insbjGiOMTE10MUDvcwOA9WrIjw0qcOhaf5uXcgrFwY5um9BpcP9zKqTFCxOcLzKyTeYlNv32s0qnTIFdx4tpfrhnlZtMlh3gaHlVsd1u12iESaVhRTuJS1t+jV0aB/mcmQHiaFiSxGJxlvsYfbR0oe/iDMzc8KenQ1uWKUj75VEe6bafPjF+DP13i5aZjDwx9E+MX4CKVlJmNO85D9YZj5+1TAb3Hd5YK+CyO88naQh/dCcQeDwcN8XDfQxAuMOt9H+cwwk6YHmQR4sgyG9PPyyGkWHRNQE+3QqNHQOMGprpdUNkhCkcb1Jb+nMW91fqZojbTNKeabKVahv/HLhKsi3P1CmIqBfp4cZqY1xESPiDQaGpdv87NEYtvubZkqm0cnhJmfZzFumMXgLMmsdyPMDwku7p7+ODc9ItJo/ieQVGyK8PDMSOMiNoApOGekj3H9zbg9opOFFiKNRpN2dBoQjUaTdrQQaTSatKOFSKPRpB0tRBqNJu1oIdJoNGlHC5FGo0k7Wog0Gk3a0UKk0WjSjhYijUaTdrQQaTSatPP/EtOHtz20qrYAAAAASUVORK5CYII=;" parent="1" vertex="1">
          <mxGeometry x="10.000000000000018" y="100" width="123.93" height="50" as="geometry" />
        </mxCell>
        <mxCell id="0_99gsNGC9KbOV2Wp5mH-2" style="edgeStyle=orthogonalEdgeStyle;rounded=0;orthogonalLoop=1;jettySize=auto;html=1;entryX=1;entryY=0.5;entryDx=0;entryDy=0;strokeWidth=4;fillColor=#e1d5e7;strokeColor=#000000;" edge="1" parent="1" source="-GlMdH1-iFwV5xs4R0uD-5" target="0_99gsNGC9KbOV2Wp5mH-1">
          <mxGeometry relative="1" as="geometry" />
        </mxCell>
        <mxCell id="-GlMdH1-iFwV5xs4R0uD-5" value="Experiments&lt;div&gt;with K-Fold&lt;/div&gt;&lt;div&gt;Cross Validation&lt;/div&gt;" style="rounded=1;whiteSpace=wrap;html=1;fontSize=16;strokeWidth=4;fillColor=#e1d5e7;strokeColor=#000000;" parent="1" vertex="1">
          <mxGeometry x="449.02" y="180" width="160" height="70" as="geometry" />
        </mxCell>
        <mxCell id="0_99gsNGC9KbOV2Wp5mH-1" value="Statistical Analysis&lt;div&gt;and Dataset Visualization&lt;/div&gt;" style="rounded=1;whiteSpace=wrap;html=1;fontSize=16;strokeWidth=4;fillColor=#e1d5e7;strokeColor=#000000;" vertex="1" parent="1">
          <mxGeometry x="200" y="175" width="160" height="80" as="geometry" />
        </mxCell>
        <mxCell id="0_99gsNGC9KbOV2Wp5mH-4" value="" style="shape=image;verticalLabelPosition=bottom;labelBackgroundColor=default;verticalAlign=top;aspect=fixed;imageAspect=0;image=data:image/png,iVBORw0KGgoAAAANSUhEUgAAAgAAAAIACAYAAAD0eNT6AAAABHNCSVQICAgIfAhkiAAAAAlwSFlzAAAOxAAADsQBlSsOGwAAABl0RVh0U29mdHdhcmUAd3d3Lmlua3NjYXBlLm9yZ5vuPBoAACAASURBVHic7d15nFTVnffxT1c3NPsuKCgKCCgqiogsKm5hjKOJS/QxmLglatRRo8Y1aozRMdG4YJbJPs4TY+aZOCZxyWJiotG4ZxQMbhj3uCKCsjZNdz9/XJgAItB9T91TVefzfr3OSym4v/pRVNf91l3OqUOSVMn6A3sBU4ExwEigF9A3Yk8bsmDleAeYDTwGPAw8CrRF7EuSpIpWAg4F7gCayXaatTBeAa4BxoZ7qSRJqg1HAM8Qf2ddztEK/ALYOdBrJklS1doKuIv4O+eig8B3gZ75Xz5JkqrPQcC7xN8hxxovArvnfhUlSaoipwAtxN8Jxx5NwJE5X0tJkqrCmcTf8VbSaAVOz/WKSpJU4Y4k2+HF3ulW2mgFPpnjdZUkqWJtBywm/s62UscyYI8Ov7qSJFWgBmAm8XeylT5eIZvwSJKkmnAW8Xeu1TK+38HXWJKkitKTtG/3a+9oJZsGWWVQit2AJCXkJCp7Dv9KUwdcD9THbqQW+aJKUnH+HRgQu4kqMwh4E/hL7EYkSeqIycQ/pF6tYy4eOQnOUwCSVIz9YzdQxQYAl8ZuotbUxW5AkhJxLznvbe/SWM/p07fj2INGMWLzXnTuVHnf4Vpa23hj7hJmPjuPH/3iWW6952Xa2oKUXgHsBDwZpJoMAJJUkPlAn45u3L1rA3d+Z39222lQwJbK75d3v8wxF93D+4ubQ5S7C5gWopA8BSBJRRhEjp0/wFVn7lp1O3+Ag/fekp9csTd1Yb5ufoRs5UQFYACQpPLbJM/GPbp14jMHjQ7VS+E+tudQTj58TKhy1wCNoYqlzAAgSeXXI8/G2w7rQ5fG6r5r+7J/GU//3kH22yPIVlFUTgYASSq/znk27t61IVQf0fTr3cilp4wPVe5CYHCoYqkyAEiSCnHS4dsydlS/EKV6AF8NUShlBgBJUiHqS3XMOGdyqHJHAbuHKpYiA4AkqTB7T9iMQ/fdKkSpOmAG7sc6zBdOklSoq8+aGOqixvFkRwLUAQYASVKhhg3pyVlH7RCq3JVAr1DFUmIAkCQV7oLP7MjgTbqFKDUIuCBEodQYACRJhevRrRNfPX1CqHJnAaNCFUuFAUCSFMVRB45k93GbhijVGbgqRKGUGAAkSVHU1cGMcyZRKgVZKOAg4KMhCqXCACBJimb8mAEcdcDWocpdC3QKVazWGQAkSVFdecau9OoeZL+9LXByiEIpMABIkqIa1L8r539mp1DlvgwMCFWslhkAJEnRfeHoHRg5tHeIUn2By0IUqnUGAElSdJ07lbjyjGC3BZ5INkug1iPIpZeSpPWaCvypoxs31JfoGeYcecWb/35TqFJLgWWhilWAVuA94B3gWeAJ4G5gJtDSkYIGAEkqv1wBQFqPN4GfAj8AnmnPhp4CkCSpem1KNhPik8DNwOiN3dAAIElS9SsBh5GdGricbHbEDW4gSZJqQ2fgQuA+YKv1/UEDgCRJtWdX4CFg3If9AQOAJEm1aRDZnQLrDAEGAEmSaldv4DfAsLV/wwAgSVJtG0R2h0Dj6g8aACRJqn3jga+s/oABQJKkNJwFjF31CwOAJElpaGC1hZIMAJIkpeNjwI5gAJAkKSV1ZKslGgAkSUrMJ4HOBgBJktLSD5jYELsLSdL67bbL5tz+75+I3YaK0rQcli5a46GlTS08/sw8vvHT2fzuwddCPMs+BgBJqnCdGkr07d0ldhsqSlMddGpe46G+wOBNunHAHlvwle89ziXf+Z+8z7KjpwAkSaoiX/rcOA6cOjRvmVEGAEmSqszZx+yQt8QgA4AkSVVmwnab5C3R0wAgSVKV6dalgVKpLk+JRgOAJEkJMgBIkpQgA4AkSQkyAEiSlCAnApJUlF7AUGAgcb98LANeB14BVkTsQ4rKACCp3A4GzgB2B+oj97K6ecAvgCuAFyP3IhXOUwCSyqUncBvZTnZPKmvnD9AfOB54euV/paR4BEBSOXQBfgdMit3IRmgEfrDyv9+O3ItUGI8ASCqHK6mOnf/qZgDjYjchFcUAICm0rYCTYzfRAQ3A5bGbkIpiAJAU2hFAp9hNdNB+QO5J1qVqYACQFNqU2A3kUA9Mjt2EVAQDgKTQNovdQE7V3r+0UQwAkkJrjN1ATotiNyAVwQAgSWv6W+wGpCIYACTpH94CHo3dhFQEA4Ak/cM1QGvsJqQiGAAkKfMY8M3YTUhFMQBIEjxDtmjRstiNSEUxAEhKWQvwI7Jpi1+N3ItUKBcDklRpHqL8t+LNBR4HbgFeKPNzSRXJACCp0pwAzI7dhFTrPAUgSVKCDACSJCXIACBJUoIMAJIkJcgAIElSggwAkiQlyAAgSVKCDACSJCXIACBJUoIMAJIkJcgAIElSggwAkiQlyAAgSVKCDACSJCXIACBJUoIMAJIkJcgAIElSggwAkiQlyAAgSVKCDACSJCXIACBJUoIMAJIkJcgAIElSggwAkiQlyAAgSVKCDACSJCXIACBJUoIMAJIkJcgAIElSggwAkiQlyAAgSVKCDACSJCXIACBJUoIMAJIkJcgAIElSggwAkiQlyAAgSVKCDACSJCXIACBJUoIMAJIkJcgAIEnl15Zn49a2XJurBrW1QVu+90WbAUCSym9xno1ff2tRqD5UI16fu5icuXCxAUCSym9hno3/9tJ8nnrunVC9qOJteM9+2z2v5H2S9wwAklR+rwAteQqccekfaGnxVEASNvDV/q15S7ns+4/nfZaXDACSVH5NwEt5Cvz+vpf4P6f8knnzl4bpSJWr5cOz4uy/zWffE3/NG+8syfssz9TlrSBJa5kFjM2x/Q7A7EC9VJIbgU/nLdKrRyMH7DuC0cP70aWxPkBbqjhNy6C1dY2HFi5u5i9PvcNdD71GS2uQI0HHhygiSaubRXYSs6Nj++JbLsRx5HtdHI6QY5inACSpGLeSnQqQYnsUeNEAIEnFeBf4VewmJLLTUU4EJEkF+nrsBpS8ecB/gAFAkor0EHBX7CaUtGtYOS+FAUCSivV5oDl2E0rS34DrVv2ioaAn7QJ0Lei5itQMOEenpPZ4CrgCuCR2I0pKC3AisGzVAyEDQB3Z/bt7AzsD2wDDgH5ALd+s2gIsWDleAWYCjwOPkf2gt8VrTVKFugzYE9grch9Kx2XA3aGLjgeuB94i/n2NlTZeAq4GJpIFJCkFzgOwcfrzjy8JDkc5x08JeMq/DjgQeKAC/mLVMp4mmwWslo+GSGAAaI8tgGeJ//nkqN3xS6AzgexMdiVr7L9UtY7ngKPwiIBqlwGgfTYBHib+Z5Oj9sb3CHSqv5Hs9oEVFfCXqoVxJzC0Xf8CUnUwALRfI/ANoJX4n02O6h+LyaaeDmI42dSBsf9StTbeA47d+H8GqSoYADpuL+BJ4n82Oap33EZ2AX4QE4C3K+AvVcvja3hKQLXDAJBPA9lpQoOAY2NHK/BbYA8C2otsxqDYf7kUxk8IeKGGFJEBIJxJZHdZebeAY+3RDNwPXEQHv/Gv7+KAXcgOJfToSGG126eAnsChZHMLSNJDKwfAQGAM2Yf9QLLPi6Imc1N8S8kmnnuL7M6RpynTRHRb4WH/WOMbG/7nkSqaRwCkKrCuiQE6ATeR3Zqi4p0GnBG7CUlSbVtXALgMmFJ0I1rDqtkDJUkqi7UDwHbAWTEa0RrqydZr7hK5D0lSjVo7APwb2SkAxbcNrhYmSSqT1QPAvsDUWI1onc4GdozdhCSp9qx+C8kXy/Uk9aU6evWovVvcV7S0snBxczmfogGYQbbEsiRJwawKANsC+4Qq2rlTif/zT8M5eO8tmbzjIAb170p9qTYnumtrgxdfW8hfnprL7X96hV/e/TKLlgQNBXsBhwH/HbKoJCltq/bKXwXOD1HwkH224uqzJjJ8854hylWdd99r4uofP8E1P/4ry5tbQ5V9iSykLQtVUCqjWcDYHNvvAMwO1IukD7HqGoAj8haqq4MrTpvALdd8JNmdP0C/3o1ccdoEHrnp4JCvw1Zk1wNIkhREiWylv9wrB33llPFc8NkdqavNI/3ttuOoftz/Hx9nuxF9Q5U8HxgSqpgkKW0lsnPMuRw4dSgXHj8ufzc1ZtMBXfn1t/dj0wFdQ5TrTrZqoCRJuZWAXHvu+lIdV525q9/8P8TQTXvww0uC3V35KWD3UMUkSekqAaPyFPj4Xluy7bA+gdqpTQfssQWf/OiIEKXqgGtZ9xTOkiRttBKQa890yD5bhemkxl11xq506xJk5c4JwNEhCkmS0lUCeucpsOv2Lhq4MbbYtDvnHpvnzqg1XEG2FrgkSR1SAnrkKTB4k26BWql95x43lq0GB9lvb0YZZ26UJNW+EtDY0Y3r6qBnd9cO2lhdGxv42ucnhCp3JjlP30iS0uXFZAU7Yr/h7Dl+sxClGoGrQxSSJKXHABDBjHMnhVob4WBgvxCFJElpMQBEsNPo/nzm4NGhyl0LeB5GktQuBoBILj91PH16BlkieQxwUohCkqR0GAAiGdivKxefGGz65EuBAaGKSZJqnwEgotOmb8forXJNw7BKX+DLIQpJktJgAIioU0OJb54/JVS5k8i3BrskKSEGgMimTRrCP+++RYhS9cB1IQpJkmqfAaACXH/eZBo714cotQ9wSIhCkqTaZgCoAFtv0Yt/OWJMqHJXA11CFZMk1SYDQIW45KSd2XRA1xClhpNNEyxJ0ocyAFSIXt07cenJ40OV+yIwOFQxSVLtMQBUkOMPGc0uY4Lczt+DbMlgSZLWyQBQQUqlOmacO5m6IMsEcDQwMUglSVLNMQBUmN12GsTh04aHKFUHzFj5X0mS1mAAqEDXfGEi3bs2hCg1Cfh0iEKSpNpiAKhAmw/qztnHBJvU7yqgV6hikqTaYACoUOcdN5YtN+sRotSmwLkhCkmSaocBoEJ1bWzgq6dPCFXubGDrUMUkSdXPAFDBpu8/gqnjNw1RqhH4WohCkqTaYACocDPOmUypFORC/k8A00IUkiRVPwNAhRu3TX+OO2hUqHLXAUFuL5AkVTcDQBW44rRd6N2jc4hS2wEnhCgkSapuub8NXnnDrBB9aAO2Hd6Hh554O0Spr+Btge0xH1gMvAY8C7wRtx1JCqMOaMXZ4qSN9S5wH3A3cBvwYtx2KtIsIM9EFjsAswP1IulDGACkjmsjCwM/BP4f0By3nYphAAhvILAHMAYYBfQGgqwfXiZLgQVkgXkW8BjwJLAiZlP6oFayDzKHw9Hx8SJwEl5kCdkHfp7XcvviW65Ig8km8ZpJbXxOvw/cBBxEdmuyKkAtvLEcjkoZM4EppM0AkM9wsqNKTcR/P5drvAGcCXQL9JqpgwwADkfY0QJcQbpHAwwAHdMZ+BLZ4fPY7+GixpvAkSFePLWftwFK4ZWAC4A/AgMi96LqMBy4H7gU6BK5lyINIjst8IuV/68CGQCk8tkDeAgYEbsRVbQJwMPALrEbiehgsgsFd4zdSEoMAFJ5jSC7ZXBo7EZUkfYie394pCi76PFuYGrsRlJhAJDKbwvgt0D/2I2ooowDbgW6x26kgvQF7gB2it1ICgwAUjG2BX4G1MduRBWhL9l5b2fl/KCeZCFgi9iN1DoDgFScfYCLYjehivADYMvYTVSwIWSTa7mPKiNfXKlYFwM7x25CUR1Itjy31m8K8PnYTdQyA4BUrHrg3/BnL1X1wLWxm6gil+NdNGXjh5BUvIk4+UmqDgdGxm6iinTDwFQ2BgApji/iz1+KTovdQBX6OPDR2E3UotxTlZ538qQQfUjxLFu6zoeblrfw1rtLefqFBcyaM4+2tqDPui3wMbLbwJSGrYHJsZuoUtcAf8AVN4PKFQDq6uBr5+8ZqhcpjvnzNvhH/v7WYm64dQ5X/98neH9xsM+g4zAApOTjuPR6R40BTgGuj91ILakjWwyoQ2/Kujpofem8sB1JRduIALDK3PnLOOrCe7jzgb+HeOblZLc7vROiWAWZBYzNsf0OwOxAvVSS28nuAMhl8tiBHHXgSLYe2ou6Co0Tb81byhNz3uXHdzzHm++s+whbB8wHRlF7Py/RGACkdgQAgJbWNk66/M/88OfPhnj2T5MthlJLDADr9jqwWUc3rquDa74wiTM/XT2LJTavaOX86x/l2hv/Gqrkd4GTQxVLnRchSe1UX6rjOxfuxkcmDglRbp8QRVTxepFj5w9w2vTtqmrnD9CpocQ1X5jIZf8yPlTJE3DBoGAMAFIHNNSX+I/LptKtS+7raPcI0Y8qXq602FBf4qITxoXqpXBf/OxO7DtxcIhS9XgdQDAGAKmDhgzszmnTt8tbZjhprf+eqh55Nh4zog+b9K3et0mpVMe3zp9Cp4Ygu5w9yeZTUE4GACmHYz6ee06XerLbw1TbuubZuG/PxlB9RLPNsD6c+skxocp9nZyvqQwAUi7bDuvD8M175i0T5NioalelXu3fXl/63M6hjmRsCZwTolDKDABSTiOH9s5bIneCkKpBn56dufzUXUKVOx9XVMzFACDltNmAbnlLGACUjM8eMpqdRvcPUaor8LUQhVJlAJBy6twp949RfYg+pGpQX6rjWxdMCXVa45PA1CCVEmQAkCQVaredBnH4tOGhys3AEN0hBgBJUuGu+cJEunfNPY8GwDjgMyEKpcYAIEkq3OaDunP2MXlmjF7D5UCfUMVSYQCQJEVx3nFj2XKzXHMkrTIQuDhEoZQYACRJUXRtbOCrp08IVe50IPfUnCkxAEiSopm+/wimjt80RKkG4LoQhVJhAJAkRTXjnMnUl4LcFzgNOCBEoRQYACRJUY3bpj/HHTwqVLkZQPUvnlAAA4AkKbp/PXUXevfoHKLU1sBpIQrVOgOAJCm6gf26ctEJ40KV+xKwWahitSrILAySpPKZNeddpn3uN7HbKLvlK1pCleoJ/AF4LVTBCvAesBiYCzwL/BX4C7CiowUNAJJU4ea/38RdD9fSvqwQ264ctWwh8HvgRuDXwPL2bOwpAEmSqlNP4FDgF8DzZHMhdNnYjQ0AkiRVv82B68lODXx0YzYwAEiSVDu2Bn4DfI8N3A5pAJAkqfacSHYhZN8P+wMGAEmSatNuwJ+AAev6TQOAJEm1awfgDqD72r9hAJAkqbZNBH609oMGAEmSat8RwLGrP2AAkCQpDdcAm6z6hQFAkqQ09CNbJwEwAEiSlJLjgcFgAJAkKSVdgBPAACBJUmqOAuoMAJIkpWUEsL3LAUtShRszcgBfPnO32G2oKM0rYPmyNR5asaKVWXPe5YZb5/D2u0tDPMu+BgBJqnAD+3fj8AO2id2GitLUBEsWfeDh6fuP4IvH78SnLribO+59Je+z7OIpAEmSqkSv7p24+ev7ssPIfnlLjTYASJJURbo01nPxiePyltnCACBJUpXZd9fBeUv0NABIklRl+vVupFSqy1OimwFAkqQEGQAkSUqQAUCSpAQZACRJSpABQJKkBBkApDTUAQcCPwVeApYBbWUaY3P2+tcy9tYGNAN/B24HjgacEVVJ8o0v1b6hZDt+J5PPNABDVo4DgQuA6cDMmE1JRfMIgFTbRgKP4M5/fbYB/gxMjd2IVCQDgFS7ugC3AYNiN1IFugO3AJvGbkQqigFAql2nkn271cYZAFwSuwmpKAYAqXadELuBKnQ00C12E1IRDABSbdoKGBW7iSrUDZgSuwmpCAYAqTYNjd1AFfO1UxIMAFJtaovdQBXztVMSDABSbXo1dgNVzNdOSTAASLXpJWBO7Caq0BLggdhNSEUwAEi16/uxG6hCPyYLAVLNMwBItevbwNOxm6gic4FLYzchFcUAINWuZcBBwJuxG6kCi4HD8LVSQgwAUm17DtiVbK57rdvTwO7AvbEbkYpkAJBq36vAHsDHgP8EXgaWR+0orhbgdeAOspn/xuJKgEqQywFL6bhj5Si3WWQ71Y7aAZgdqBdJH8IjAJIkJcgAIElSggwAkiQlyAAgSVKCDACSJCXIACBJUoIMAJIkJcgAIElSggwAkiQlyAAgSVKCDACSJCXIACBJUoIMAJIkJcgAIElSggwAkiQlyAAgSVKCDACSJCXIACBJUoIMAJIkJcgAIElSggwAkiQlyAAgSVKCDACSJCXIACBJUoIMAJIkJcgAIElSggwAkiQlyAAgSVKCDACSJCXIACBJUoIMAJIkJcgAIElSggwAkiQlyAAg5dTWFrsDSWq/EtDU0Y3b2uD9RR3eXKoJ8xfm/hlYGqIPSWqPErAwT4E33l4cqBWpOr0xd0neEotC9CFJ7VEC3s9T4OHHXw/UihRDvuP3y5pamDXn3bxNLMhbQJLaqwQ8n6fAL+98LlArUgQ5T+D/4ZHXWbSkOW8XL+QtIEntVQKezVPgtrue46nn3gnUjlSw1tZcm19741/zdrAIeC1vEUlqrxIwM0+BlpY2zr3iHq+EVnVqaenwpj//w0v88ZHcp8Bmkvc8hCR1QAm4O2+RX/3xeS7/5gMB2pEK1rKiQ5s9+9J7fPbL94boIPfPn2pfmxlRZVACXiTAOchLrr2Pf/3mgx4JUHVpbn8AePyZeUw76dcsWLg8RAd3hSiiipfrVs/57y0L1YdqxIKFy2ltzbXDXbpqIqD/yttMWxtcdPW9HHLiz3n+ZS9qVhVoWdGuIwBNy1u49sa/svuxt/Pqm0Fuf30N+HOIQqp4uW71fOq5ecydl/t2U1WNDe/Y7/nLG3mf5P36lf/zGnBq3moAzz7/Lt/9yUye+ds82tqgT68udOvaiVKpLkR5KZymJbBi/dcALFi4nFlz5vHdm5/mc5fdz89+9wLNK/JdOLia7wK/D1WsgpwMDMqx/XeAtwP1UimWAxd0dOPW1jaWNbWw/97DA7akirWiORsfonlFK8dc/Ke8c5DMWX2vfBewb55qH6a+vo5ePRrLUVrquA2cr2pa3sKSZR27RmAjrAC2IedtuBVqFjA2x/Y7ALMD9VJJXgc26+jGdXXw9Qv35qzjd6XO71O1bekiWLbuGUaXNq3g2Ivv5We/y33m/j9XfxvtDfwxb0VJG+Um4NOxmygTA8C63Q4cmLfIpHGDOfoT2zNiyz4eWa1VSxZD65pHJ5c3tzLzmXl877+f4ZU3g0weevba754/kgUBSeWzHNgReCZ2I2ViAFi3M4FrYzchrbTz2qsBngbkntZM0npdR+3u/PXhbsM5H1QZXgZmrh0AngS+HqEZKRUvAJfFbkJRPA84YYoqwU+AtrUDAMAlwP0FNyOloJnsvL9LaKbrm7EbUPKagR9ANhHQ2lYARwJvFdmRlIAzgQdjN6Go/puc669IOd1AdgpgnQEA4BXgn3CZUimUK4Fvx25C0bUAn4/dhJL1PvDlVb/4sAAA8ARwMLCwzA1Jte575JgERjXnTuDm2E0oSecB/zuF4PoCAMCfyG4LrLVZuaSiXAmchFd/a00nkq3DIhXldrIvI/9rQwEA4H+AicAj5ehIqlGLyC74Oz92I6pIC4BDgfdiN6IkzCL7PFrji8jGBACAl4A9yG4RLNvcqFKNeBTYhWy2P+nDzCQ7zepdISqn54D9yc7/r2FjAwBks5edS/bB5m2C0ge9C5wCTMIrvbVx7iFbg2Ve5D5Um/4H2J3Vzvuvrj0BYJVZKwvugWsHSADvAJcCI8hWsgu2XKCS8DCwM94iqrBuBPakzNfwjSOb2vQNsvMLDkcKowm4AzgC6IpWN4t8r+32xbdcEToDFwNLiP/+dlTveBX4BBsh5FJSdcB2ZIezdgK2BYYB/YH6gM8jFe19sqVcnwGeAu4F7iP7oNYHuRhQPlsBFwJHk4UCaWO8A8wArie7CHmDilpLsivQpaDnkkJpxau0O8IAEMZgsiu3p5OtHunav1rbcrLb9X8C3EI7Lyj1DSUpNANAeAPJrrsaA4wC+uCXqhQtAuYCc8h+zu7HI5GSKojXAEhVoCN3AUiSpCpnAJAkKUEGAEmSEmQAkCQpQQYASZISZACQJClBBgBJkhJkAJAkKUEGAEmSEmQAkCQpQQYASZISZACQJClBBgBJkhJkAJAkKUEGAEmSEmQAkCQpQQYASZISZACQJClBBgBJkhJkAJAkKUEGAEmSEmQAkCQpQQYASZISZACQJClBBgBJkhJkAJAkKUEGAEmSEmQAkCQpQQYASZISZACQJClBBgBJkhJkAJAkKUEGAEmSEmQAkCQpQQYASZISZACQJClBBgBJkhJkAJAkKUEGAEmSEmQAkCQpQQYASZISZACQJClBDbEbkCRtlEHAGGA4MADoAXSK2tG6tQALVo65wGzgeaAtZlP6IAOAJFWuKcB0YBowOnIvebwHPAL8fOV4O247kqRymEX2ba+jY/viW64onYBjgafI9zpW6lgB3ApMCPR6SZIqhAGg4/YFniH+Trqo8StgVJBXTpIUnQGg/boA3yb+DjnGWAKchRelS1LVMwC0zyDgUeLviGOP3wI9c76WagcTlyTFMxS4D9gldiMVYD/gT8BmsRtJhQFAkuIYANwJjIzdSAUZB9wN9I/dSAoMAJJUvAbgFmCb2I1UoNHAL8mui1AZGQAkqXhfAqbGbqKC7U52UaQkqYp4EeD6bQcsJ/5Fd9UwDurga6yN4BEASSrWN6nMKXwr0beA3rGbqFUGAEkqziRg79hNVJHNyU6XqAwMAJJUnHNjN1CFTsOLJcvCACBJxegH/HPsJqpQJ7LTJgrMACBJxTgYaIzdRJX6CHBA7CZqjcsBS1Ix9glRpFf3Tnxszy0ZObQXXRrrQ5QMqnlFK6+9vYQn5rzLA7PeCln6WuD3ZHdQKAADgCQVY3LeAodNG8b3Ltqdfr2r40DCUy8s4MSv3Mf9M4MEgVHA6cDVIYoJ6mI3IKnmzALG5th+B2B2oF4qRRdgEdDhr+z7TdmcX31rP+pL1fWx3byilenn380td70Yotz7ZEEg6KGFVHkNgCSV3xbk2PkDXHfOpKrb+QN0aihxw6VTGTk0yO38vYArQhSSAUCSB4dsPAAABz1JREFUipBrmdutt+jFtsP6hOqlcD27d+LbX5wSqtyxwPhQxVJmAJCk8uueZ+PBA7uF6iOaaZOG8PG9tgxRqgR8A09h52YAkKTyy7WzKtXVxr7uurMn0dg5yJ0LU4DpIQqlzAAgSSrE8M17csangq31dBU5j6ykzgAgSSrMhcfvxGYDgpzSGAKcH6JQqgwAkqTC9OzeiX89bZdQ5c4GhoUqlhoDgCSpUMd8bCS7br9JiFJdgK+HKJQiA4AkqVClUh0zzp1MoGsbPwFMC1IpMQYASVLhJo8dyJH7bx2q3HU4tX27GQAkSVFcecYEenTrFKLUdsCJIQqlxAAgSYpiyMDunHdcnmUj1nAZ0D9UsRQYACRJ0Zx99FiGDck1U/Iq/YBLQhRKhQFAkhRNl8Z6rjpj11DlTiFbTVIbwQAgSYrqsGnDmDZpSIhS9cCMEIVSYACQJEV33TmTaKgPskvaBzg4RKFaZwCQJEW33Yi+HH/o6FDlriGbJEjr4X2TklThXnlzEVfeMCt2G2XXo1uwXdJw4EfAE6EKVoAmYDHwJjAHeAFojtqRJK1lFtCWYwRbLq6CTCXfa+JwrD0WAb8FPg8MogM8BSBJUvXpDuxHdtHj34GbgXHtKWAAkCSpujUAhwGPAT8FBm/MRgYASZJqx3TgKeDwDf1BA4AkSbWlN/Az4FrWs583AEiSVJvOBG4kmyDpAwwAkiTVriOBG4C6tX/DACBJUm07Cjh37QcNAJIk1b7LgSmrP2AAkCSp9jWQnQpoXPWAAUCSpDSMAk5d9QsDgCRJ6TgX6AYGAEmSUjIQOBoMAJIkpcYAIElSgiYDQ4MtvixJKo+hg3sx/aAxsdtQUVpWQHPzGg8tXtrMY0/P48En3qKtLciz7GMAkKQKN3xoH752/p6x21BRmppgyaJ1/tYjs+dy5AV38/yr7+d9limeApAkqUrsuv0m3PPDA9ikb5e8pbYxAEiSVEU2H9Sdi04Yl7fMMAOAJElV5pB9tspborcBQJKkKjNkYDfqPrC+X7v0MABIklRlSqU66vIlgDoDgCRJCTIASJKUIAOAJEkJMgBIkpQgZwKUVGl+AKx7GrRw5gIzgVuA58v8XFJFMgBIqjSTCnqe6cAVwI+Bs4AFBT2vVBE8BSApZfXAccBDwBaRe5EKZQCQJBgN3Ap0jd2IVBQDgCRlxgGnx25CKooBQJL+4Uz8XFQifKNL0j8MAibEbkIqggFAktY0MnYDUhEMAJJCa4rdQE7dYzcgFcEAICm012M3kFO19y9tFAOApNDuj91ADi3Ag7GbkIpgAJAU2s+A5bGb6KDfAu/EbkIqggFAUmgvA/8Wu4kOaAYujN2EVBQDgKRyOB94IHYT7XQGMCt2E1JRDACSyqEJ+CjZ9LqVbhnwWarzqIXUYQYASeWyEDgYOAi4m+wCu0oyj2zp4W2Af4/ci1Q4lwOWVG63rRw9gS3JZturi9jPMrJb/V6m8kKJVBgDgKSiLARmrxySIvMUgCRJCTIASJKUIAOAJEkJMgBIkpQgA4AkSQkyAEiSlCADgCRJCTIASJKUIAOAJEkJMgBIkpQgA4AkSQkyAEiSlCADgCRJCTIASJKUIAOAJEkJMgBIkpQgA4AkSQkyAEiSlCADgCRJCTIASJKUIAOAJEkJMgBIkpQgA4AkSQkyAEiSlCADgCRJCTIASJKUIAOAJEkJMgBIkpQgA4AkSQkyAEiSlCADgCRJCTIASJKUIAOAJEkJMgBIkpQgA4AkSQkyAEiSlCADgCRJCTIASJKUIAOAJEkJMgBIkpQgA4Akld/yPBsvXtocqg/ViCXLVtDa2panxHIDgCSV36I8Gz/9t3ksa1oRqhdVvA3v2B97+p28T7LQACBJ5Tc3z8aLFi/nR//1RKheVPE2HABm3PRk3id52wAgSeX3FrAgT4Fzr7iHPz/69zDdqLK1rD8AXPeT2dxy14t5n2VOfd4KkqSNcgCwZUc3bl7Ryk2/eIr3FzYxZNOe9OnVSH293+Fq0rKl0Nq6xkOLl67goSfe5syrH+L6m2aHeJab60JUkSRt0KXAl2I3Ia20t/FRkorxm9gNSCstAB40AEhSMR4Cno3dhATcDDQZACSpOD+I3YAEfB/AawAkqTjdgZeAAZH7ULp+A/wzgHcBSFJxmleOj8ZuRElqAT4JvAlOBSxJRfsWMDN2E0rSt4DHV/3CUwCSVLxRwF+AnrEbUTJmAxOBJase8BSAJBVvHvACcCh+EVP5zQP2Y+Wh/1UMAJIUx5PAe3g9gMprMbA/MGvt3zAASFI8DwOvkk0T7DVZCm0+2XvrgdiNSJLW7UCyw7RtDkegMYvsWhNJUoUbCtxJ/B2Ho7pHMzAD6IokqaocRnZ9QOwdiaP6xq+BnZAkVa0ScDBwG7Cc+DsWR+WO+WRT+46nnbz9RJIqW19gL2AqMAbYeuVjffAzPCXNwEKyW/nmAE8AdwMPAk0dKfj/AWTD4esMFI2MAAAAAElFTkSuQmCC;" vertex="1" parent="1">
          <mxGeometry x="379.02" y="10" width="60" height="60" as="geometry" />
        </mxCell>
        <mxCell id="0_99gsNGC9KbOV2Wp5mH-5" value="" style="childLayout=tableLayout;recursiveResize=0;shadow=0;fillColor=#ffe6cc;fontSize=6;strokeColor=#d79b00;" vertex="1" parent="1">
          <mxGeometry x="389.02" y="160" width="40" height="40" as="geometry" />
        </mxCell>
        <mxCell id="0_99gsNGC9KbOV2Wp5mH-6" value="" style="shape=tableRow;horizontal=0;startSize=0;swimlaneHead=0;swimlaneBody=0;top=0;left=0;bottom=0;right=0;dropTarget=0;collapsible=0;recursiveResize=0;expand=0;fontStyle=0;fillColor=#ffe6cc;strokeColor=#d79b00;fontSize=6;" vertex="1" parent="0_99gsNGC9KbOV2Wp5mH-5">
          <mxGeometry width="40" height="13" as="geometry" />
        </mxCell>
        <mxCell id="0_99gsNGC9KbOV2Wp5mH-7" value="0.5" style="connectable=0;recursiveResize=0;strokeColor=#d79b00;fillColor=#ffe6cc;align=center;whiteSpace=wrap;html=1;fontSize=6;" vertex="1" parent="0_99gsNGC9KbOV2Wp5mH-6">
          <mxGeometry width="13" height="13" as="geometry">
            <mxRectangle width="13" height="13" as="alternateBounds" />
          </mxGeometry>
        </mxCell>
        <mxCell id="0_99gsNGC9KbOV2Wp5mH-8" value="0.2" style="connectable=0;recursiveResize=0;strokeColor=#d79b00;fillColor=#ffe6cc;align=center;whiteSpace=wrap;html=1;fontSize=6;" vertex="1" parent="0_99gsNGC9KbOV2Wp5mH-6">
          <mxGeometry x="13" width="14" height="13" as="geometry">
            <mxRectangle width="14" height="13" as="alternateBounds" />
          </mxGeometry>
        </mxCell>
        <mxCell id="0_99gsNGC9KbOV2Wp5mH-9" value="0.3" style="connectable=0;recursiveResize=0;strokeColor=#d79b00;fillColor=#ffe6cc;align=center;whiteSpace=wrap;html=1;fontSize=6;" vertex="1" parent="0_99gsNGC9KbOV2Wp5mH-6">
          <mxGeometry x="27" width="13" height="13" as="geometry">
            <mxRectangle width="13" height="13" as="alternateBounds" />
          </mxGeometry>
        </mxCell>
        <mxCell id="0_99gsNGC9KbOV2Wp5mH-10" style="shape=tableRow;horizontal=0;startSize=0;swimlaneHead=0;swimlaneBody=0;top=0;left=0;bottom=0;right=0;dropTarget=0;collapsible=0;recursiveResize=0;expand=0;fontStyle=0;fillColor=#ffe6cc;strokeColor=#d79b00;fontSize=6;" vertex="1" parent="0_99gsNGC9KbOV2Wp5mH-5">
          <mxGeometry y="13" width="40" height="14" as="geometry" />
        </mxCell>
        <mxCell id="0_99gsNGC9KbOV2Wp5mH-11" value="0.1" style="connectable=0;recursiveResize=0;strokeColor=#d79b00;fillColor=#ffe6cc;align=center;whiteSpace=wrap;html=1;fontSize=6;" vertex="1" parent="0_99gsNGC9KbOV2Wp5mH-10">
          <mxGeometry width="13" height="14" as="geometry">
            <mxRectangle width="13" height="14" as="alternateBounds" />
          </mxGeometry>
        </mxCell>
        <mxCell id="0_99gsNGC9KbOV2Wp5mH-12" value="0.8" style="connectable=0;recursiveResize=0;strokeColor=#d79b00;fillColor=#ffe6cc;align=center;whiteSpace=wrap;html=1;fontSize=6;" vertex="1" parent="0_99gsNGC9KbOV2Wp5mH-10">
          <mxGeometry x="13" width="14" height="14" as="geometry">
            <mxRectangle width="14" height="14" as="alternateBounds" />
          </mxGeometry>
        </mxCell>
        <mxCell id="0_99gsNGC9KbOV2Wp5mH-13" value="0.1" style="connectable=0;recursiveResize=0;strokeColor=#d79b00;fillColor=#ffe6cc;align=center;whiteSpace=wrap;html=1;fontSize=6;" vertex="1" parent="0_99gsNGC9KbOV2Wp5mH-10">
          <mxGeometry x="27" width="13" height="14" as="geometry">
            <mxRectangle width="13" height="14" as="alternateBounds" />
          </mxGeometry>
        </mxCell>
        <mxCell id="0_99gsNGC9KbOV2Wp5mH-14" style="shape=tableRow;horizontal=0;startSize=0;swimlaneHead=0;swimlaneBody=0;top=0;left=0;bottom=0;right=0;dropTarget=0;collapsible=0;recursiveResize=0;expand=0;fontStyle=0;fillColor=#ffe6cc;strokeColor=#d79b00;fontSize=6;" vertex="1" parent="0_99gsNGC9KbOV2Wp5mH-5">
          <mxGeometry y="27" width="40" height="13" as="geometry" />
        </mxCell>
        <mxCell id="0_99gsNGC9KbOV2Wp5mH-15" value="0.5" style="connectable=0;recursiveResize=0;strokeColor=#d79b00;fillColor=#ffe6cc;align=center;whiteSpace=wrap;html=1;fontSize=6;" vertex="1" parent="0_99gsNGC9KbOV2Wp5mH-14">
          <mxGeometry width="13" height="13" as="geometry">
            <mxRectangle width="13" height="13" as="alternateBounds" />
          </mxGeometry>
        </mxCell>
        <mxCell id="0_99gsNGC9KbOV2Wp5mH-16" value="0.3" style="connectable=0;recursiveResize=0;strokeColor=#d79b00;fillColor=#ffe6cc;align=center;whiteSpace=wrap;html=1;fontSize=6;" vertex="1" parent="0_99gsNGC9KbOV2Wp5mH-14">
          <mxGeometry x="13" width="14" height="13" as="geometry">
            <mxRectangle width="14" height="13" as="alternateBounds" />
          </mxGeometry>
        </mxCell>
        <mxCell id="0_99gsNGC9KbOV2Wp5mH-17" value="0.2" style="connectable=0;recursiveResize=0;strokeColor=#d79b00;fillColor=#ffe6cc;align=center;whiteSpace=wrap;html=1;fontSize=6;" vertex="1" parent="0_99gsNGC9KbOV2Wp5mH-14">
          <mxGeometry x="27" width="13" height="13" as="geometry">
            <mxRectangle width="13" height="13" as="alternateBounds" />
          </mxGeometry>
        </mxCell>
      </root>
    </mxGraphModel>
  </diagram>
</mxfile>
